<svg viewBox="0 0 24 24" fill="none" xmlns="http://www.w3.org/2000/svg">
<path d="M10.3059 11.2642C10.3059 10.7947 9.92532 10.4142 9.45587 10.4142C8.98643 10.4142 8.60587 10.7947 8.60587 11.2642H9.45587H10.3059ZM9.12155 15.2342L9.09353 14.3847H9.09353L9.12155 15.2342ZM6.77801 15.5585L6.5124 14.7511H6.5124L6.77801 15.5585ZM4.10016 17.2102L4.90542 17.4823V17.4823L4.10016 17.2102ZM4.10019 18.2012L4.90551 17.9292L4.90551 17.9292L4.10019 18.2012ZM19.3305 18.5315L18.7334 17.9265H18.7334L19.3305 18.5315ZM19.6652 16.7147L20.2623 16.1097L20.2623 16.1097L19.6652 16.7147ZM17.6568 15.5585L17.9224 14.7511V14.7511L17.6568 15.5585ZM14.6438 15.2326L14.6643 14.3828H14.6643L14.6438 15.2326ZM12.1873 12.2602C11.734 12.1382 11.2676 12.4068 11.1456 12.8601C11.0236 13.3134 11.2921 13.7798 11.7455 13.9018L11.9664 13.081L12.1873 12.2602ZM14.8116 13.081L14.4355 12.3187V12.3187L14.8116 13.081ZM12.1337 2.34523L12.7308 2.95024V2.95024L12.1337 2.34523ZM10.7948 2.67551L10.5912 3.50076H10.5912L10.7948 2.67551ZM9.45583 2.84066L9.92301 3.55076L9.92301 3.55076L9.45583 2.84066ZM7.78221 5.31817L7.57863 4.49291L7.57863 4.49291L7.78221 5.31817ZM7.44748 8.12601L6.64218 8.39802V8.39802L7.44748 8.12601ZM6.94538 8.95184L6.21908 8.51026V8.51026L6.94538 8.95184ZM6.94537 10.4383L6.18707 10.8224V10.8224L6.94537 10.4383ZM10.6274 10.2732L11.3681 10.6902L11.3681 10.6902L10.6274 10.2732ZM12.3011 6.63951L13.0593 6.25534V6.25534L12.3011 6.63951ZM12.6358 18.6967L13.1625 19.3638V19.3638L12.6358 18.6967ZM9.45587 11.2642H8.60587V14.8978H9.45587H10.3059V11.2642H9.45587ZM9.12155 15.2342L9.09353 14.3847C8.44205 14.4062 7.30784 14.4894 6.5124 14.7511L6.77801 15.5585L7.04362 16.3659C7.58846 16.1867 8.50884 16.1049 9.14957 16.0838L9.12155 15.2342ZM6.77801 15.5585L6.5124 14.7511C6.07651 14.8944 5.41646 15.1517 4.82081 15.4749C4.52363 15.6361 4.2181 15.8268 3.95934 16.0434C3.71714 16.2462 3.42832 16.5432 3.29489 16.9381L4.10016 17.2102L4.90542 17.4823C4.88977 17.5286 4.89415 17.4779 5.05061 17.3469C5.1905 17.2298 5.38908 17.1007 5.63149 16.9692C6.11504 16.7068 6.67615 16.4868 7.04362 16.3659L6.77801 15.5585ZM4.10016 17.2102L3.29489 16.9381C3.25094 17.0681 3.17012 17.2943 3.15332 17.5744C3.13595 17.8643 3.18716 18.1542 3.29487 18.4731L4.10019 18.2012L4.90551 17.9292C4.84589 17.7527 4.84959 17.6876 4.85028 17.6761C4.85155 17.6549 4.85438 17.6333 4.90542 17.4823L4.10016 17.2102ZM4.10019 18.2012L3.29487 18.4731C3.48184 19.0268 3.97136 19.4092 4.4698 19.7371L4.93698 19.027L5.40416 18.3169C5.17334 18.165 5.03743 18.0564 4.95856 17.9787C4.88245 17.9037 4.89196 17.8891 4.90551 17.9292L4.10019 18.2012ZM4.93698 19.027L4.4698 19.7371C4.72444 19.9046 5.42737 20.3625 6.15951 20.821C6.86824 21.2648 7.67435 21.7541 8.09938 21.9477L8.45171 21.1742L8.80404 20.4006C8.50381 20.2639 7.80361 19.8448 7.06182 19.3802C6.34343 18.9303 5.65162 18.4797 5.40416 18.3169L4.93698 19.027ZM8.45171 21.1742L8.09938 21.9477C8.79273 22.2635 9.74242 22.85 11.6317 22.85V22V21.15C10.1736 21.15 9.5612 20.7455 8.80404 20.4006L8.45171 21.1742ZM11.6317 22V22.85C13.4887 22.85 14.9711 22.296 16.2334 21.5842L15.8158 20.8438L15.3983 20.1034C14.3174 20.713 13.122 21.15 11.6317 21.15V22ZM15.8158 20.8438L16.2334 21.5842C16.8248 21.2507 17.551 20.8293 18.218 20.4047C18.8668 19.9915 19.522 19.5367 19.9276 19.1365L19.3305 18.5315L18.7334 17.9265C18.4695 18.187 17.9532 18.558 17.3049 18.9707C16.6748 19.3718 15.9784 19.7763 15.3983 20.1034L15.8158 20.8438ZM19.3305 18.5315L19.9276 19.1365C20.1631 18.9041 20.421 18.6576 20.5873 18.3908C20.8009 18.0483 20.85 17.7165 20.85 17.3753H20H19.15C19.15 17.4643 19.1435 17.4949 19.1426 17.4988C19.1425 17.4994 19.1433 17.496 19.1453 17.4912C19.1472 17.4866 19.148 17.4862 19.1448 17.4913C19.136 17.5054 19.1105 17.5415 19.0387 17.6186C18.9659 17.6969 18.8718 17.79 18.7334 17.9265L19.3305 18.5315ZM20 17.3753H20.85C20.85 17.1163 20.7645 16.872 20.6773 16.6915C20.5824 16.4952 20.4443 16.2893 20.2623 16.1097L19.6652 16.7147L19.0682 17.3197C19.0817 17.333 19.0966 17.3504 19.1112 17.3713C19.1259 17.3921 19.1379 17.413 19.1467 17.4313C19.1559 17.4503 19.1588 17.4606 19.1586 17.4596C19.1583 17.4588 19.1565 17.4522 19.1546 17.44C19.1528 17.4284 19.15 17.4063 19.15 17.3753H20ZM19.6652 16.7147L20.2623 16.1097C19.8378 15.6908 19.0561 15.124 17.9224 14.7511L17.6568 15.5585L17.3912 16.3659C18.266 16.6537 18.8232 17.0779 19.0682 17.3197L19.6652 16.7147ZM17.6568 15.5585L17.9224 14.7511C17.5198 14.6186 16.9083 14.5368 16.3493 14.4833C15.7639 14.4272 15.1411 14.3943 14.6643 14.3828L14.6438 15.2326L14.6233 16.0823C15.0645 16.093 15.6466 16.1238 16.1873 16.1756C16.7545 16.2299 17.1906 16.2999 17.3912 16.3659L17.6568 15.5585ZM14.3095 14.8978H15.1595V13.2462H14.3095H13.4595V14.8978H14.3095ZM14.6438 15.2326L14.6643 14.3828C14.9197 14.389 15.1595 14.5979 15.1595 14.8978H14.3095H13.4595C13.4595 15.5626 13.9983 16.0673 14.6233 16.0823L14.6438 15.2326ZM9.45587 14.8978H8.60587C8.60587 14.5965 8.84562 14.3929 9.09353 14.3847L9.12155 15.2342L9.14957 16.0838C9.76701 16.0634 10.3059 15.564 10.3059 14.8978H9.45587ZM11.9664 13.081L11.7455 13.9018C12.1023 13.9978 12.6716 14.1079 13.2719 14.1403C13.8441 14.1713 14.584 14.1412 15.1877 13.8433L14.8116 13.081L14.4355 12.3187C14.2359 12.4172 13.86 12.4697 13.3638 12.4428C12.8957 12.4175 12.4441 12.3293 12.1873 12.2602L11.9664 13.081ZM14.8116 13.081L15.1877 13.8433C16.3955 13.2473 17.2708 12.2125 17.4908 10.9102L16.6526 10.7687L15.8145 10.6271C15.6997 11.3068 15.2361 11.9237 14.4355 12.3187L14.8116 13.081ZM16.6526 10.7687L17.4908 10.9102C17.5908 10.3179 17.5855 9.1524 17.5652 8.17035C17.5432 7.11037 17.5026 6.22332 17.5026 5.97884H16.6526H15.8026C15.8026 6.22986 15.8456 7.24222 15.8655 8.20553C15.8871 9.24677 15.8818 10.2284 15.8145 10.6271L16.6526 10.7687ZM16.6526 5.97884C17.0287 6.7411 17.029 6.74095 17.0293 6.74081C17.0294 6.74076 17.0297 6.7406 17.0299 6.7405C17.0303 6.7403 17.0307 6.74008 17.0312 6.73986C17.032 6.73943 17.033 6.73897 17.0339 6.73848C17.0359 6.73752 17.038 6.73645 17.0402 6.73529C17.0448 6.73297 17.0501 6.73026 17.056 6.72715C17.0677 6.72095 17.0821 6.71316 17.0988 6.70375C17.1321 6.685 17.175 6.65948 17.2243 6.62701C17.3216 6.56304 17.4517 6.46695 17.5843 6.33611C17.8443 6.07961 18.1721 5.62729 18.1721 4.98784H17.3221H16.4721C16.4721 5.00905 16.4651 5.05224 16.3903 5.12607C16.3555 5.16039 16.3183 5.18818 16.29 5.20679C16.2766 5.21561 16.2672 5.22106 16.2638 5.22296C16.2622 5.22387 16.2622 5.22382 16.2642 5.22278C16.2652 5.22226 16.2667 5.22148 16.2687 5.22045C16.2697 5.21994 16.2709 5.21936 16.2722 5.21871C16.2728 5.21839 16.2735 5.21805 16.2742 5.21769C16.2746 5.21751 16.2749 5.21733 16.2753 5.21715C16.2755 5.21705 16.2758 5.21691 16.2759 5.21686C16.2762 5.21672 16.2765 5.21658 16.6526 5.97884ZM17.3221 4.98784H18.1721C18.1721 4.174 17.9539 3.33997 17.1198 2.79123L16.6526 3.50133L16.1855 4.21143C16.3556 4.32336 16.4721 4.48035 16.4721 4.98784H17.3221ZM16.6526 3.50133L17.1198 2.79123C16.6863 2.50605 16.1346 2.40851 15.7186 2.38436C15.4954 2.37141 15.2718 2.37726 15.0676 2.40201C14.8798 2.42478 14.6446 2.47074 14.4355 2.57391L14.8116 3.33616L15.1877 4.09842C15.146 4.11901 15.1619 4.10303 15.2721 4.08966C15.366 4.07828 15.4876 4.07382 15.6201 4.08151C15.9155 4.09865 16.1168 4.16628 16.1855 4.21143L16.6526 3.50133ZM14.8116 3.33616L14.4355 2.57391C14.531 2.52679 14.764 2.44942 15.0362 2.56367C15.2738 2.66337 15.3707 2.84162 15.3892 2.87704C15.4128 2.92201 15.4156 2.94435 15.4046 2.90443C15.3948 2.86897 15.3853 2.82723 15.3673 2.75037C15.3369 2.62038 15.2854 2.39892 15.1896 2.18111C15.0917 1.9585 14.9205 1.6747 14.6093 1.46996L14.1421 2.18006L13.675 2.89016C13.6148 2.85059 13.611 2.81453 13.6334 2.86546C13.6579 2.9212 13.6796 2.99909 13.712 3.13748C13.7291 3.21071 13.7806 3.46982 13.8835 3.66627C13.9413 3.77652 14.084 4.00767 14.3784 4.13124C14.7076 4.26936 15.0085 4.18683 15.1877 4.09842L14.8116 3.33616ZM14.1421 2.18006L14.6093 1.46996C14.1073 1.13971 13.442 1.12221 12.9873 1.16944C12.7331 1.19585 12.4752 1.24936 12.2412 1.32999C12.0253 1.40441 11.7514 1.52829 11.5367 1.74022L12.1337 2.34523L12.7308 2.95024C12.6834 2.99699 12.6816 2.97636 12.7951 2.93723C12.8906 2.9043 13.0197 2.87523 13.163 2.86034C13.3064 2.84545 13.4404 2.84721 13.5466 2.86196C13.6619 2.87799 13.693 2.90202 13.675 2.89016L14.1421 2.18006ZM12.1337 2.34523L11.5367 1.74022C11.3652 1.90944 11.2388 2.08104 11.1447 2.24821C11.0509 2.41499 10.9973 2.56336 10.9631 2.67168C10.9498 2.71377 10.932 2.77514 10.9294 2.78358C10.9209 2.81171 10.9263 2.78939 10.9424 2.75396C10.9577 2.72034 11.0134 2.60352 11.1434 2.49685C11.2125 2.4402 11.2945 2.39303 11.3869 2.36171C11.4778 2.33089 11.5621 2.32101 11.6316 2.32101L11.6316 3.17101L11.6317 4.02101C11.8287 4.02099 12.0409 3.95941 12.2215 3.81127C12.3786 3.6824 12.4557 3.53285 12.4901 3.45713C12.5254 3.3796 12.5476 3.30581 12.5571 3.27425C12.5725 3.22301 12.5738 3.21647 12.5842 3.1836C12.6036 3.12203 12.6284 3.05131 12.7308 2.95024L12.1337 2.34523ZM11.6316 3.17101L11.6316 2.32101C11.773 2.321 11.8777 2.36116 11.9308 2.3863C11.9583 2.39932 11.9782 2.41128 11.9895 2.4185C12.001 2.4258 12.0076 2.43078 12.0082 2.43129C12.009 2.43188 12.0067 2.43014 12.0001 2.42466C11.9934 2.41917 11.9849 2.41191 11.9727 2.40141C11.9531 2.3845 11.9119 2.34837 11.8751 2.3173C11.7105 2.17833 11.4228 1.95496 10.9984 1.85025L10.7948 2.67551L10.5912 3.50076C10.6368 3.51201 10.6839 3.5364 10.7784 3.61619C10.7985 3.63316 10.912 3.73382 10.9845 3.7885C11.0478 3.83621 11.2883 4.02102 11.6317 4.02101L11.6316 3.17101ZM10.7948 2.67551L10.9984 1.85025C10.3886 1.69981 9.65424 1.69267 8.98865 2.13056L9.45583 2.84066L9.92301 3.55076C10.0608 3.46013 10.2609 3.41927 10.5912 3.50076L10.7948 2.67551ZM9.45583 2.84066L8.98865 2.13056C8.75783 2.28242 8.39437 2.51391 8.11109 2.85562C7.7964 3.2352 7.60167 3.71612 7.60167 4.32717H8.45167H9.30167C9.30167 4.1124 9.35797 4.01523 9.41984 3.9406C9.5131 3.82809 9.65172 3.72924 9.92301 3.55076L9.45583 2.84066ZM8.45167 4.32717H7.60167C7.60167 4.78753 7.70135 5.12054 7.77601 5.33133C7.78637 5.36058 7.81461 5.43769 7.81509 5.43904C7.82543 5.46783 7.8196 5.45476 7.81288 5.42635C7.80919 5.41077 7.77608 5.28102 7.81221 5.10973C7.83277 5.01224 7.8756 4.90149 7.95412 4.79617C8.03247 4.69109 8.12567 4.61915 8.21138 4.57231L8.61904 5.31817L9.0267 6.06404C9.25697 5.93818 9.42094 5.71979 9.47561 5.4606C9.51786 5.26031 9.48127 5.09435 9.46712 5.03461C9.44261 4.93108 9.3828 4.77598 9.37846 4.76373C9.34152 4.65945 9.30167 4.52747 9.30167 4.32717H8.45167ZM8.61904 5.31817L8.21138 4.57231C8.34185 4.501 8.45283 4.48957 8.47694 4.48712C8.51221 4.48353 8.53108 4.48519 8.52011 4.4847C8.49188 4.48343 8.4555 4.47918 8.35589 4.46878C8.27382 4.46022 8.15726 4.44873 8.03417 4.44665C7.9139 4.44461 7.7509 4.45041 7.57863 4.49291L7.78221 5.31817L7.98578 6.14343C7.95874 6.1501 7.959 6.14562 8.00542 6.14641C8.04901 6.14714 8.10257 6.15158 8.17944 6.1596C8.23877 6.16579 8.35016 6.17879 8.44392 6.18299C8.49395 6.18524 8.56737 6.18669 8.64892 6.1784C8.71931 6.17124 8.8683 6.15061 9.0267 6.06404L8.61904 5.31817ZM7.78221 5.31817L7.57863 4.49291C6.97432 4.64198 6.58752 5.02738 6.36878 5.42311C6.16225 5.79676 6.09533 6.19095 6.09533 6.47433H6.94533H7.79533C7.79533 6.459 7.79781 6.42117 7.80928 6.37251C7.82052 6.32481 7.83705 6.28091 7.85662 6.24551C7.87559 6.21118 7.89397 6.19082 7.90887 6.17858C7.92138 6.16829 7.94265 6.15407 7.98578 6.14343L7.78221 5.31817ZM6.94533 6.47433H6.09533C6.09533 6.66618 6.13675 6.85891 6.17329 7.00228C6.21324 7.15897 6.26592 7.32548 6.31955 7.48422C6.37357 7.64413 6.43329 7.80999 6.48881 7.96412C6.5456 8.12177 6.59773 8.26643 6.64218 8.39802L7.44748 8.12601L8.25278 7.85399C8.20181 7.7031 8.14346 7.54136 8.08821 7.38797C8.03168 7.23106 7.9778 7.08125 7.93013 6.94015C7.88208 6.79789 7.84501 6.67805 7.82061 6.58236C7.79283 6.47335 7.79533 6.44765 7.79533 6.47433H6.94533ZM7.44748 8.12601L6.64218 8.39802C6.63968 8.39063 6.61154 8.29352 6.65609 8.15869C6.6967 8.03579 6.76745 7.97723 6.76143 7.98251C6.75869 7.98492 6.74881 7.99314 6.71969 8.01446C6.70166 8.02767 6.64483 8.06835 6.60403 8.09932C6.51717 8.16527 6.34732 8.29933 6.21908 8.51026L6.94538 8.95184L7.67167 9.39342C7.62712 9.46671 7.5828 9.49066 7.63192 9.45338C7.63318 9.45242 7.79312 9.33889 7.88248 9.2605C8.00198 9.15567 8.17734 8.97324 8.27025 8.69205C8.36711 8.39893 8.33896 8.10913 8.25278 7.85399L7.44748 8.12601ZM6.94538 8.95184L6.21908 8.51026C5.91539 9.00977 5.74134 9.94224 6.18707 10.8224L6.94537 10.4383L7.70367 10.0543C7.63219 9.91315 7.61025 9.76511 7.61872 9.62983C7.62295 9.56221 7.63458 9.50307 7.64809 9.45714C7.66241 9.4085 7.67476 9.38835 7.67167 9.39342L6.94538 8.95184ZM6.94537 10.4383L6.18707 10.8224C6.43542 11.3128 7.17437 12.2793 8.61904 12.2793V11.4293V10.5793C8.05531 10.5793 7.78991 10.2246 7.70367 10.0543L6.94537 10.4383ZM8.61904 11.4293V12.2793C10.2031 12.2793 10.9987 11.3463 11.3681 10.6902L10.6274 10.2732L9.88667 9.85619C9.78519 10.0364 9.65168 10.2124 9.46675 10.3433C9.29259 10.4666 9.03257 10.5793 8.61904 10.5793V11.4293ZM10.6274 10.2732L11.3681 10.6902C11.5143 10.4304 11.6237 10.0787 11.6768 9.73317C11.7297 9.3885 11.7438 8.94018 11.6 8.51466L10.7947 8.78667L9.98943 9.05868C10.0131 9.12867 10.0272 9.27488 9.99644 9.47523C9.96582 9.67469 9.90786 9.81855 9.88667 9.85619L10.6274 10.2732ZM10.7947 8.78667L11.6 8.51466C11.5479 8.36019 11.4921 8.22614 11.451 8.12724C11.4041 8.01472 11.3856 7.96903 11.3756 7.93661C11.3658 7.90514 11.392 7.969 11.3786 8.07835C11.3712 8.13864 11.3529 8.20346 11.3211 8.26629C11.2898 8.32799 11.2532 8.37227 11.2244 8.40068L10.6274 7.79567L10.0303 7.19067C9.84832 7.37026 9.72438 7.60183 9.69129 7.8709C9.66196 8.10948 9.71275 8.31429 9.75206 8.44084C9.79107 8.56645 9.84622 8.69585 9.88163 8.78086C9.92271 8.8795 9.95792 8.9654 9.98943 9.05868L10.7947 8.78667ZM10.6274 7.79567L11.2244 8.40068C11.1911 8.43359 11.1471 8.46675 11.093 8.49353C11.0393 8.52015 10.9877 8.53449 10.9444 8.54137C10.8668 8.55368 10.8233 8.5404 10.8566 8.54683C10.8702 8.54946 10.8893 8.5538 10.9233 8.5622C10.9507 8.56898 11.0014 8.5819 11.0469 8.59244C11.14 8.61403 11.291 8.64567 11.4643 8.64567V7.79567V6.94567C11.4878 6.94567 11.4876 6.94953 11.4309 6.93638C11.4148 6.93264 11.2653 6.89439 11.1795 6.87778C10.9538 6.83412 10.4504 6.77614 10.0303 7.19067L10.6274 7.79567ZM11.4643 7.79567V8.64567C12.6208 8.64567 13.6749 7.47023 13.0593 6.25534L12.3011 6.63951L11.5429 7.02367C11.5338 7.00574 11.5283 6.97941 11.5309 6.95393C11.5321 6.94285 11.5345 6.93466 11.5365 6.9295C11.5384 6.92441 11.5401 6.92211 11.5401 6.92198C11.5407 6.92121 11.5233 6.94567 11.4643 6.94567V7.79567ZM12.3011 6.63951L13.0593 6.25534C13.0337 6.20468 13.0127 6.14072 12.9987 6.075C12.984 6.00581 12.9837 5.96625 12.9837 5.97884H12.1337H11.2837C11.2837 6.19116 11.3359 6.61526 11.5429 7.02367L12.3011 6.63951ZM12.1337 5.97884H12.9837C12.9837 6.03665 12.9738 6.07748 12.9675 6.09789C12.9611 6.11892 12.9554 6.12847 12.956 6.12742C12.9581 6.12371 12.9722 6.10207 13.0026 6.07474C13.0321 6.04833 13.0642 6.02798 13.0927 6.01565C13.1205 6.00362 13.1356 6.003 13.1379 6.003V5.153V4.303C12.6115 4.303 12.1666 4.54094 11.8674 4.80935C11.5982 5.05079 11.2837 5.46905 11.2837 5.97884H12.1337ZM13.1379 5.153V6.003C13.1334 6.003 13.2128 6.00956 13.4109 6.0718C13.5872 6.12718 13.7956 6.20624 14.0187 6.29692C14.4098 6.4559 14.9534 6.70009 15.2154 6.78627L15.481 5.97884L15.7466 5.1714C15.5512 5.10711 15.191 4.93838 14.6588 4.72206C14.4203 4.62509 14.1622 4.5259 13.9204 4.44995C13.7005 4.38086 13.4103 4.303 13.1379 4.303V5.153ZM15.481 5.97884L15.2154 6.78627C15.6115 6.91659 16.0452 6.90338 16.3059 6.88257C16.4506 6.87103 16.5766 6.85384 16.667 6.8395C16.7126 6.83227 16.75 6.82562 16.7773 6.82051C16.791 6.81795 16.8022 6.81577 16.8107 6.81408C16.8149 6.81323 16.8185 6.8125 16.8214 6.81192C16.8228 6.81162 16.824 6.81136 16.8251 6.81114C16.8257 6.81103 16.8262 6.81092 16.8266 6.81083C16.8268 6.81078 16.827 6.81074 16.8272 6.81069C16.8273 6.81067 16.8275 6.81064 16.8275 6.81063C16.8277 6.8106 16.8278 6.81057 16.6526 5.97884C16.4773 5.1471 16.4774 5.14708 16.4776 5.14705C16.4776 5.14704 16.4777 5.14701 16.4778 5.147C16.478 5.14696 16.4781 5.14693 16.4782 5.1469C16.4785 5.14685 16.4788 5.1468 16.479 5.14676C16.4793 5.14668 16.4796 5.14663 16.4796 5.14662C16.4798 5.14659 16.4793 5.14669 16.4782 5.14691C16.476 5.14735 16.4714 5.14825 16.4647 5.14951C16.4511 5.15204 16.4292 5.15597 16.4006 5.1605C16.3428 5.16967 16.2617 5.1807 16.1707 5.18796C15.9601 5.20477 15.8079 5.19156 15.7466 5.1714L15.481 5.97884ZM14.3095 14.8978H13.4595C13.4595 15.5521 13.2943 17.0938 12.1091 18.0295L12.6358 18.6967L13.1625 19.3638C14.9899 17.9211 15.1595 15.675 15.1595 14.8978H14.3095ZM12.6358 18.6967L12.1091 18.0295C10.8536 19.0208 8.75696 20.0738 7.97221 20.3835L8.2843 21.1742L8.5964 21.9648C9.48531 21.6139 11.7402 20.4867 13.1625 19.3638L12.6358 18.6967Z" fill="black"/>
</svg>
