<svg viewBox="3.00 4.00 18.00 16.00" fill="none" xmlns="http://www.w3.org/2000/svg">
<path d="M9.45 16.1667H12.85C13.9772 16.1667 15.0582 15.7277 15.8552 14.9463C16.6522 14.1649 17.1 13.1051 17.1 12V11.1667H17.95C18.6263 11.1667 19.2749 10.9033 19.7531 10.4344C20.2313 9.96559 20.5 9.32971 20.5 8.66667C20.5 8.00363 20.2313 7.36774 19.7531 6.8989C19.2749 6.43006 18.6263 6.16667 17.95 6.16667H17.1V5.33333C17.1 5.11232 17.0104 4.90036 16.851 4.74408C16.6916 4.5878 16.4754 4.5 16.25 4.5H6.05C5.82457 4.5 5.60837 4.5878 5.44896 4.74408C5.28955 4.90036 5.2 5.11232 5.2 5.33333V12C5.2 13.1051 5.64777 14.1649 6.4448 14.9463C7.24183 15.7277 8.32283 16.1667 9.45 16.1667ZM17.1 7.83333H17.95C18.1754 7.83333 18.3916 7.92113 18.551 8.07741C18.7104 8.23369 18.8 8.44565 18.8 8.66667C18.8 8.88768 18.7104 9.09964 18.551 9.25592C18.3916 9.4122 18.1754 9.5 17.95 9.5H17.1V7.83333ZM6.9 6.16667H15.4V12C15.4 12.663 15.1313 13.2989 14.6531 13.7678C14.1749 14.2366 13.5263 14.5 12.85 14.5H9.45C8.7737 14.5 8.1251 14.2366 7.64688 13.7678C7.16866 13.2989 6.9 12.663 6.9 12V6.16667ZM19.65 17.8333H4.35C4.12457 17.8333 3.90837 17.9211 3.74896 18.0774C3.58955 18.2337 3.5 18.4457 3.5 18.6667C3.5 18.8877 3.58955 19.0996 3.74896 19.2559C3.90837 19.4122 4.12457 19.5 4.35 19.5H19.65C19.8754 19.5 20.0916 19.4122 20.251 19.2559C20.4104 19.0996 20.5 18.8877 20.5 18.6667C20.5 18.4457 20.4104 18.2337 20.251 18.0774C20.0916 17.9211 19.8754 17.8333 19.65 17.8333Z" fill="#00071A"/>
</svg>
