<svg width="24" height="24" viewBox="0 0 24 24" fill="none" xmlns="http://www.w3.org/2000/svg">
<path d="M9.97091 6C9.70909 4.86667 8.66182 4 7.41818 4C6.17455 4 5.19273 4.86667 4.86545 6H3.49091C2.83636 6 2.83636 7.33333 3.49091 7.33333H4.86545C5.12727 8.46667 6.17455 9.33333 7.41818 9.33333C8.66182 9.33333 9.64364 8.46667 9.97091 7.33333H20.5091C21.1636 7.33333 21.1636 6 20.5091 6H9.97091ZM7.41818 8C6.69818 8 6.10909 7.4 6.10909 6.66667C6.10909 5.93333 6.69818 5.33333 7.41818 5.33333C8.13818 5.33333 8.72727 5.93333 8.72727 6.66667C8.72727 7.4 8.13818 8 7.41818 8ZM16.5818 9.33333C15.3382 9.33333 14.3564 10.2 14.0291 11.3333H3.49091C2.83636 11.3333 2.83636 12.6667 3.49091 12.6667H14.0291C14.2909 13.8 15.3382 14.6667 16.5818 14.6667C17.8255 14.6667 18.8073 13.8 19.1345 12.6667H20.5091C21.1636 12.6667 21.1636 11.3333 20.5091 11.3333H19.1345C18.8727 10.2 17.8255 9.33333 16.5818 9.33333ZM16.5818 13.3333C15.8618 13.3333 15.2727 12.7333 15.2727 12C15.2727 11.2667 15.8618 10.6667 16.5818 10.6667C17.3018 10.6667 17.8909 11.2667 17.8909 12C17.8909 12.7333 17.3018 13.3333 16.5818 13.3333ZM10.6909 14.6667C9.44727 14.6667 8.46545 15.5333 8.13818 16.6667H3.49091C2.83636 16.6667 2.83636 18 3.49091 18H8.13818C8.4 19.1333 9.44727 20 10.6909 20C11.9345 20 12.9164 19.1333 13.2436 18H20.5091C21.1636 18 21.1636 16.6667 20.5091 16.6667H13.2436C12.9818 15.5333 11.9345 14.6667 10.6909 14.6667ZM10.6909 18.6667C9.97091 18.6667 9.38182 18.0667 9.38182 17.3333C9.38182 16.6 9.97091 16 10.6909 16C11.4109 16 12 16.6 12 17.3333C12 18.0667 11.4109 18.6667 10.6909 18.6667Z" fill="#00071A"/>
</svg>
