<svg viewBox="0 0 24 24" fill="none" xmlns="http://www.w3.org/2000/svg">
<path d="M19.65 9.85688C19.7616 9.85691 19.8722 9.83476 19.9753 9.79169C20.0785 9.74863 20.1722 9.68549 20.2511 9.60589C20.33 9.52629 20.3927 9.43179 20.4354 9.32778C20.4781 9.22377 20.5 9.11229 20.5 8.99972V6.42823C20.5001 6.24838 20.444 6.07307 20.3397 5.92717C20.2354 5.78128 20.0882 5.67221 19.9189 5.61544L12.2689 3.04395C12.0944 2.98535 11.9056 2.98535 11.7311 3.04395L4.08105 5.61544C3.91182 5.67221 3.76461 5.78128 3.66031 5.92717C3.55602 6.07307 3.49993 6.24838 3.5 6.42823V8.99972C3.49997 9.11229 3.52194 9.22377 3.56464 9.32778C3.60735 9.43179 3.66996 9.52629 3.74889 9.60589C3.82783 9.68549 3.92154 9.74863 4.02468 9.79169C4.12782 9.83476 4.23837 9.85691 4.35 9.85688H5.2V16.015C4.70423 16.1911 4.27466 16.5176 3.97028 16.9498C3.66589 17.3819 3.50162 17.8985 3.5 18.4285V20.1428C3.49997 20.2554 3.52194 20.3669 3.56464 20.4709C3.60735 20.5749 3.66996 20.6694 3.74889 20.749C3.82783 20.8286 3.92154 20.8917 4.02468 20.9348C4.12782 20.9779 4.23837 21 4.35 21H19.65C19.7616 21 19.8722 20.9779 19.9753 20.9348C20.0785 20.8917 20.1722 20.8286 20.2511 20.749C20.33 20.6694 20.3927 20.5749 20.4354 20.4709C20.4781 20.3669 20.5 20.2554 20.5 20.1428V18.4285C20.4984 17.8985 20.3341 17.3819 20.0297 16.9498C19.7253 16.5176 19.2958 16.1911 18.8 16.015V9.85688H19.65ZM18.8 19.2857H5.2V18.4285C5.20023 18.2012 5.28985 17.9834 5.44921 17.8227C5.60857 17.662 5.82464 17.5716 6.05 17.5713H17.95C18.1754 17.5716 18.3914 17.662 18.5508 17.8227C18.7101 17.9834 18.7998 18.2012 18.8 18.4285V19.2857ZM6.9 15.857V9.85688H8.6V15.857H6.9ZM10.3 15.857V9.85688H13.7V15.857H10.3ZM15.4 15.857V9.85688H17.1V15.857H15.4ZM5.2 8.14256V7.04599L12 4.75993L18.8 7.04599V8.14256H5.2Z" fill="#00071A"/>
</svg>
