<svg viewBox="0 0 24 24" fill="none" xmlns="http://www.w3.org/2000/svg">
<path d="M17.0976 10.2C17.7702 10.2 18.4277 9.98886 18.9869 9.59329C19.5462 9.19772 19.982 8.63548 20.2394 7.97766C20.4968 7.31985 20.5642 6.59601 20.433 5.89768C20.3017 5.19934 19.9779 4.55789 19.5023 4.05442C19.0267 3.55095 18.4207 3.20808 17.7611 3.06917C17.1014 2.93027 16.4176 3.00156 15.7962 3.27404C15.1748 3.54651 14.6437 4.00793 14.2701 4.59995C13.8964 5.19197 13.6969 5.88799 13.6969 6.6C13.6969 7.55478 14.0552 8.47045 14.693 9.14559C15.3307 9.82072 16.1957 10.2 17.0976 10.2ZM17.0976 4.8C17.4339 4.8 17.7627 4.90557 18.0423 5.10336C18.3219 5.30114 18.5398 5.58226 18.6685 5.91117C18.7972 6.24008 18.8309 6.602 18.7653 6.95116C18.6997 7.30033 18.5377 7.62106 18.2999 7.87279C18.0621 8.12453 17.7592 8.29596 17.4293 8.36541C17.0995 8.43487 16.7576 8.39922 16.4469 8.26298C16.1362 8.12675 15.8707 7.89604 15.6838 7.60003C15.497 7.30402 15.3973 6.95601 15.3973 6.6C15.3973 6.12261 15.5764 5.66477 15.8953 5.32721C16.2142 4.98964 16.6467 4.8 17.0976 4.8ZM16.1199 12.423C16.0437 12.2928 15.9373 12.1853 15.8108 12.1108C15.6844 12.0362 15.542 11.9971 15.3973 11.9971C15.2525 11.9971 15.1102 12.0362 14.9837 12.1108C14.8573 12.1853 14.7509 12.2928 14.6746 12.423L13.8245 13.89L11.0274 8.85C10.9521 8.7157 10.8451 8.60445 10.7169 8.52717C10.5887 8.4499 10.4438 8.40927 10.2963 8.40927C10.1487 8.40927 10.0038 8.4499 9.87556 8.52717C9.74737 8.60445 9.64038 8.7157 9.5651 8.85L3.61391 19.65C3.53951 19.7864 3.50023 19.9411 3.5 20.0986C3.49977 20.2562 3.53861 20.411 3.61262 20.5477C3.68663 20.6843 3.79323 20.798 3.92176 20.8774C4.0503 20.9568 4.19626 20.9991 4.34506 21H19.6481C19.8 21.0003 19.9492 20.9576 20.0802 20.8761C20.2112 20.7947 20.3192 20.6777 20.393 20.5371C20.4668 20.3965 20.5036 20.2376 20.4997 20.0768C20.4958 19.9161 20.4513 19.7594 20.3708 19.623L16.1199 12.423ZM10.6788 19.2H5.82435L10.2963 11.1L12.7958 15.6L11.733 17.4L10.6788 19.2ZM12.6767 19.2L13.9435 17.067L14.5471 16.113L15.3973 14.601L18.1178 19.2H12.6767Z" fill="#00071A"/>
</svg>
