<svg width="24" height="24" viewBox="0 0 24 24" fill="none" xmlns="http://www.w3.org/2000/svg">
<path d="M20.4599 9.62982C20.3195 8.16873 19.8031 6.7689 18.9611 5.56664C18.119 4.36437 16.98 3.40065 15.6549 2.76931C14.3298 2.13798 12.8638 1.86054 11.3996 1.96402C9.93543 2.06751 8.52301 2.54838 7.29988 3.35982C6.24908 4.06247 5.36693 4.98912 4.71682 6.07321C4.06672 7.1573 3.66478 8.37193 3.53988 9.62982C3.41736 10.8795 3.57455 12.1407 4.00005 13.3221C4.42555 14.5035 5.10868 15.5753 5.99988 16.4598L11.2999 21.7698C11.3928 21.8636 11.5034 21.9379 11.6253 21.9887C11.7472 22.0395 11.8779 22.0656 12.0099 22.0656C12.1419 22.0656 12.2726 22.0395 12.3945 21.9887C12.5163 21.9379 12.6269 21.8636 12.7199 21.7698L17.9999 16.4598C18.8911 15.5753 19.5742 14.5035 19.9997 13.3221C20.4252 12.1407 20.5824 10.8795 20.4599 9.62982ZM16.5999 15.0498L11.9999 19.6498L7.39988 15.0498C6.72197 14.3719 6.20268 13.5521 5.87935 12.6496C5.55601 11.747 5.43667 10.784 5.52988 9.82982C5.6237 8.86092 5.93164 7.92498 6.43145 7.08966C6.93126 6.25435 7.61044 5.54053 8.41988 4.99982C9.48083 4.29506 10.7262 3.91912 11.9999 3.91912C13.2736 3.91912 14.5189 4.29506 15.5799 4.99982C16.3869 5.53844 17.0646 6.2491 17.5642 7.08076C18.0639 7.91242 18.3732 8.84442 18.4699 9.80982C18.5661 10.7672 18.4483 11.7341 18.1249 12.6404C17.8014 13.5466 17.2805 14.3697 16.5999 15.0498ZM11.9999 5.99982C11.1099 5.99982 10.2398 6.26374 9.49982 6.75821C8.75979 7.25267 8.18302 7.95548 7.84242 8.77775C7.50183 9.60001 7.41271 10.5048 7.58635 11.3777C7.75998 12.2506 8.18856 13.0525 8.8179 13.6818C9.44724 14.3111 10.2491 14.7397 11.122 14.9134C11.9949 15.087 12.8997 14.9979 13.722 14.6573C14.5442 14.3167 15.247 13.7399 15.7415 12.9999C16.236 12.2599 16.4999 11.3898 16.4999 10.4998C16.4972 9.30716 16.0223 8.1641 15.1789 7.32076C14.3356 6.47742 13.1925 6.00246 11.9999 5.99982ZM11.9999 12.9998C11.5054 12.9998 11.0221 12.8532 10.611 12.5785C10.1998 12.3038 9.8794 11.9133 9.69018 11.4565C9.50096 10.9997 9.45145 10.497 9.54792 10.0121C9.64438 9.52714 9.88248 9.08169 10.2321 8.73205C10.5817 8.38242 11.0272 8.14432 11.5122 8.04786C11.9971 7.95139 12.4998 8.0009 12.9566 8.19012C13.4134 8.37934 13.8039 8.69977 14.0786 9.1109C14.3533 9.52202 14.4999 10.0054 14.4999 10.4998C14.4999 11.1629 14.2365 11.7987 13.7676 12.2676C13.2988 12.7364 12.6629 12.9998 11.9999 12.9998Z" fill="#00071A"/>
</svg>
