<svg width="40" height="45" viewBox="0 0 40 45" fill="none" xmlns="http://www.w3.org/2000/svg">
<g clip-path="url(#clip0_421_3066)">
<path d="M20.001 44.1665L31.0719 36.6665H8.94238L20.001 44.1665Z" fill="#E1DEE2"/>
<path d="M20 0.5C30.7696 0.5 39.5 9.23045 39.5 20C39.5 27.1439 34.9411 33.148 29.8037 36.8623C27.8544 38.2716 25.3386 39.9495 23.3057 41.2773C22.2901 41.9407 21.3963 42.5166 20.7568 42.9258C20.4373 43.1302 20.181 43.2934 20.0049 43.4053C20.0014 43.4075 19.9975 43.409 19.9941 43.4111C19.9758 43.3999 19.9566 43.3882 19.9365 43.376C19.7284 43.2488 19.4274 43.064 19.0566 42.8359C18.3151 42.3797 17.294 41.7488 16.1768 41.0479C13.9374 39.6429 11.3255 37.9676 9.79199 36.8623C4.02306 32.7043 0.5 27.1686 0.5 20C0.5 9.23045 9.23045 0.5 20 0.5Z" fill="#E1DEE2" stroke="#525766"/>
</g>
<defs>
<clipPath id="clip0_421_3066">
<rect width="40" height="45" fill="white"/>
</clipPath>
</defs>
</svg>
