<svg viewBox="0 0 24 24" fill="none" xmlns="http://www.w3.org/2000/svg">
<path d="M18.125 3C17.8929 3 17.6704 3.09482 17.5063 3.2636C17.3422 3.43239 17.25 3.66131 17.25 3.9V8.814L16.375 9.417V3.9C16.375 3.66131 16.2828 3.43239 16.1187 3.2636C15.9546 3.09482 15.7321 3 15.5 3C15.2679 3 15.0454 3.09482 14.8813 3.2636C14.7172 3.43239 14.625 3.66131 14.625 3.9V9.417L13.75 8.814V3.9C13.75 3.66131 13.6578 3.43239 13.4937 3.2636C13.3296 3.09482 13.1071 3 12.875 3C12.6429 3 12.4204 3.09482 12.2563 3.2636C12.0922 3.43239 12 3.66131 12 3.9V9.3C12.0007 9.44824 12.0371 9.59399 12.1058 9.72431C12.1745 9.85462 12.2734 9.96547 12.3937 10.047L14.625 11.586V20.1C14.625 20.3387 14.7172 20.5676 14.8813 20.7364C15.0454 20.9052 15.2679 21 15.5 21C15.7321 21 15.9546 20.9052 16.1187 20.7364C16.2828 20.5676 16.375 20.3387 16.375 20.1V11.586L18.6062 10.047C18.7266 9.96547 18.8255 9.85462 18.8942 9.72431C18.9629 9.59399 18.9993 9.44824 19 9.3V3.9C19 3.66131 18.9078 3.43239 18.7437 3.2636C18.5796 3.09482 18.3571 3 18.125 3ZM9.375 3C8.21468 3 7.10188 3.47411 6.28141 4.31802C5.46094 5.16193 5 6.30653 5 7.5V12.9C5 13.1387 5.09219 13.3676 5.25628 13.5364C5.42038 13.7052 5.64294 13.8 5.875 13.8H8.5V20.1C8.5 20.3387 8.59219 20.5676 8.75628 20.7364C8.92038 20.9052 9.14294 21 9.375 21C9.60706 21 9.82962 20.9052 9.99372 20.7364C10.1578 20.5676 10.25 20.3387 10.25 20.1V3.9C10.25 3.66131 10.1578 3.43239 9.99372 3.2636C9.82962 3.09482 9.60706 3 9.375 3ZM8.5 12H6.75V7.5C6.74972 6.94141 6.91787 6.39649 7.2313 5.94032C7.54472 5.48415 7.98799 5.1392 8.5 4.953V12Z" fill="#00071A"/>
</svg>
