<svg viewBox="3.00 2.50 18.00 19.00" fill="none" xmlns="http://www.w3.org/2000/svg">
<path d="M13.6979 17.4117C13.9241 17.4117 14.1411 17.3172 14.3011 17.149C14.4611 16.9808 14.551 16.7526 14.551 16.5147V14.7206C14.551 14.4827 14.4611 14.2545 14.3011 14.0863C14.1411 13.918 13.9241 13.8235 13.6979 13.8235C13.4716 13.8235 13.2547 13.918 13.0947 14.0863C12.9347 14.2545 12.8448 14.4827 12.8448 14.7206V16.5147C12.8448 16.7526 12.9347 16.9808 13.0947 17.149C13.2547 17.3172 13.4716 17.4117 13.6979 17.4117ZM10.2856 17.4117C10.5119 17.4117 10.7289 17.3172 10.8888 17.149C11.0488 16.9808 11.1387 16.7526 11.1387 16.5147V14.7206C11.1387 14.4827 11.0488 14.2545 10.8888 14.0863C10.7289 13.918 10.5119 13.8235 10.2856 13.8235C10.0594 13.8235 9.8424 13.918 9.68241 14.0863C9.52243 14.2545 9.43256 14.4827 9.43256 14.7206V16.5147C9.43256 16.7526 9.52243 16.9808 9.68241 17.149C9.8424 17.3172 10.0594 17.4117 10.2856 17.4117ZM17.9632 6.64706H16.786L15.3102 3.55221C15.2651 3.43833 15.1981 3.33546 15.1135 3.25002C15.0289 3.16457 14.9285 3.0984 14.8184 3.05564C14.7084 3.01287 14.5912 2.99443 14.474 3.00146C14.3569 3.00849 14.2424 3.04085 14.1378 3.09651C14.0331 3.15217 13.9404 3.22994 13.8656 3.32496C13.7908 3.41997 13.7354 3.53019 13.7029 3.64873C13.6705 3.76726 13.6616 3.89157 13.6769 4.01388C13.6921 4.13618 13.7312 4.25386 13.7917 4.35956L14.8751 6.64706H9.10839L10.1918 4.35956C10.2746 4.15046 10.2791 3.91617 10.2044 3.70371C10.1298 3.49126 9.98141 3.31637 9.78919 3.21417C9.59697 3.11196 9.3751 3.09001 9.16812 3.15271C8.96114 3.21542 8.78438 3.35813 8.67333 3.55221L7.19752 6.64706H6.02029C5.41733 6.6567 4.83698 6.88993 4.38159 7.30561C3.9262 7.7213 3.62502 8.29273 3.53118 8.91913C3.43734 9.54553 3.55686 10.1867 3.86867 10.7294C4.18047 11.2722 4.66453 11.6818 5.23547 11.8859L5.86674 18.5779C5.93039 19.244 6.22788 19.8613 6.7011 20.3092C7.17432 20.757 7.78929 21.0033 8.42594 21H15.5746C16.2113 21.0033 16.8263 20.757 17.2995 20.3092C17.7727 19.8613 18.0702 19.244 18.1338 18.5779L18.7651 11.8859C19.3373 11.6812 19.8221 11.2701 20.1337 10.7255C20.4453 10.1809 20.5635 9.53794 20.4675 8.91046C20.3714 8.28298 20.0673 7.71149 19.6089 7.29722C19.1506 6.88295 18.5676 6.65263 17.9632 6.64706ZM16.4192 18.3985C16.398 18.6205 16.2988 18.8263 16.1411 18.9756C15.9833 19.1249 15.7783 19.207 15.5661 19.2059H8.41741C8.20519 19.207 8.0002 19.1249 7.84246 18.9756C7.68472 18.8263 7.58556 18.6205 7.56434 18.3985L6.95866 12.0294H17.0249L16.4192 18.3985ZM17.9632 10.2353H6.02029C5.79404 10.2353 5.57706 10.1408 5.41708 9.97254C5.2571 9.80431 5.16722 9.57614 5.16722 9.33823C5.16722 9.10031 5.2571 8.87214 5.41708 8.70391C5.57706 8.53568 5.79404 8.44117 6.02029 8.44117H17.9632C18.1895 8.44117 18.4065 8.53568 18.5664 8.70391C18.7264 8.87214 18.8163 9.10031 18.8163 9.33823C18.8163 9.57614 18.7264 9.80431 18.5664 9.97254C18.4065 10.1408 18.1895 10.2353 17.9632 10.2353Z" fill="#00071A"/>
</svg>
