<?xml version="1.0" standalone="no"?>
<!DOCTYPE svg PUBLIC "-//W3C//DTD SVG 20010904//EN"
 "http://www.w3.org/TR/2001/REC-SVG-20010904/DTD/svg10.dtd">
<svg version="1.0" xmlns="http://www.w3.org/2000/svg"
 width="837.000000pt" height="634.000000pt" viewBox="0 0 837.000000 634.000000"
 preserveAspectRatio="xMidYMid meet">

<g transform="translate(0.000000,634.000000) scale(0.100000,-0.100000)"
fill="#000000" stroke="none">
<path d="M3910 6184 c-305 -34 -506 -93 -799 -235 -270 -131 -439 -252 -614
-441 -199 -214 -250 -292 -365 -553 -83 -186 -204 -595 -257 -864 -13 -69 -33
-164 -44 -211 -29 -119 -27 -137 18 -189 21 -24 43 -41 49 -37 6 3 31 95 57
204 131 555 253 939 374 1180 94 186 248 379 413 519 204 172 522 354 748 427
199 65 499 108 720 105 144 -2 193 -13 115 -24 -367 -52 -570 -105 -817 -215
-300 -134 -582 -361 -740 -596 -117 -173 -131 -234 -73 -310 52 -69 199 -114
371 -114 280 0 901 111 1374 246 344 98 1095 352 1395 471 112 45 305 140 305
152 0 26 -164 109 -375 188 -299 113 -855 239 -1225 279 -138 14 -555 27 -630
18z m1537 -459 c192 -24 191 -34 -3 -34 -291 -1 -521 -31 -787 -100 -430 -112
-749 -245 -1347 -561 -155 -82 -280 -141 -332 -157 -40 -12 -15 33 55 100 83
80 292 244 387 304 191 120 303 175 520 256 298 112 521 165 880 211 73 9 510
-4 627 -19z"/>
<path d="M6310 5541 c-179 -135 -574 -336 -985 -498 -506 -201 -1007 -335
-1530 -409 -99 -14 -187 -28 -195 -31 -13 -5 -13 -6 0 -10 8 -3 60 -23 115
-45 192 -77 248 -90 355 -84 52 3 106 9 120 12 17 5 22 3 15 -4 -5 -5 -44 -20
-85 -32 -41 -12 -106 -33 -143 -46 -38 -13 -78 -24 -90 -24 -12 -1 -35 -7 -52
-15 -27 -13 -4 -14 205 -11 262 3 293 9 475 87 112 49 80 22 -79 -64 -165 -89
-204 -103 -369 -133 -167 -31 -194 -41 -94 -36 67 4 71 3 52 -12 -19 -16 -19
-16 8 -10 17 4 27 2 27 -5 0 -19 102 -13 222 13 208 44 491 152 728 277 65 35
71 36 42 12 -60 -50 -204 -132 -412 -235 -113 -55 -241 -119 -285 -141 -44
-22 -123 -59 -175 -83 -52 -24 -89 -44 -82 -44 34 0 498 132 672 192 145 50
467 188 548 235 77 44 54 19 -36 -41 -91 -61 -613 -324 -792 -399 -171 -72
-321 -140 -317 -143 1 -2 65 15 141 36 76 22 143 40 150 40 30 0 315 86 486
147 174 62 450 178 585 246 109 54 37 1 -108 -81 -300 -170 -864 -430 -1132
-523 -95 -33 -82 -37 30 -8 44 11 130 31 190 45 321 72 778 238 1120 406 209
102 -8 -38 -310 -201 -75 -40 -315 -151 -478 -219 -285 -120 -319 -134 -469
-180 -81 -25 -146 -47 -145 -49 5 -5 483 95 578 121 233 63 702 243 913 348
76 38 140 67 142 65 15 -15 -518 -305 -706 -385 -324 -139 -703 -277 -817
-298 -19 -4 -32 -8 -29 -11 5 -5 231 32 326 53 35 8 96 21 135 29 252 52 783
246 1083 395 57 29 105 50 107 48 7 -7 -304 -190 -430 -253 -300 -152 -725
-314 -1020 -391 -71 -19 -114 -32 -95 -29 19 2 84 9 143 15 349 35 960 229
1392 442 141 69 128 56 -50 -52 -398 -239 -869 -426 -1342 -532 -78 -18 -141
-33 -139 -35 7 -7 401 40 520 62 146 27 369 88 497 135 46 18 120 44 164 60
99 34 318 129 405 176 116 62 20 -8 -125 -91 -172 -98 -491 -240 -706 -313
-156 -53 -445 -131 -601 -162 -32 -6 -58 -14 -58 -16 0 -14 408 36 578 71 409
84 894 303 1170 528 107 88 232 223 296 322 33 50 71 102 84 117 l25 27 -22
213 c-40 404 -148 1032 -238 1388 -9 36 -19 68 -22 72 -3 3 -40 -19 -81 -51z"/>
<path d="M1695 4426 c-413 -194 -662 -351 -877 -554 -277 -262 -432 -472 -544
-734 -64 -153 -79 -203 -110 -375 -24 -134 -26 -164 -21 -313 7 -186 21 -274
67 -417 168 -525 627 -1003 1310 -1366 299 -159 798 -337 1181 -422 503 -111
949 -151 1616 -142 636 8 975 47 1458 168 710 178 1205 407 1680 777 39 30
144 130 235 222 188 191 313 358 416 558 76 148 108 242 135 402 19 109 21
150 16 325 -4 128 -12 227 -22 275 -107 491 -491 997 -1040 1372 -104 71 -403
244 -409 236 -3 -3 24 -218 44 -348 6 -41 15 -112 18 -157 4 -45 9 -83 12 -86
3 -2 14 -9 25 -16 19 -11 18 -11 -4 -5 -24 6 -24 6 -18 -53 8 -80 14 -90 51
-103 105 -34 316 -298 426 -533 180 -383 110 -892 -179 -1309 -177 -255 -634
-616 -986 -778 -38 -18 -137 -59 -220 -92 -409 -164 -732 -244 -1205 -298
-183 -21 -637 -41 -755 -34 -51 3 -56 2 -30 -7 39 -13 537 -3 785 17 650 52
1339 247 1783 506 84 49 289 193 364 255 148 124 302 287 395 418 107 149 222
432 254 622 9 54 19 100 21 103 12 12 -11 -163 -32 -245 -87 -334 -203 -533
-460 -791 -132 -132 -338 -296 -494 -391 -42 -25 -100 -62 -129 -81 -220 -142
-815 -354 -1222 -436 -161 -33 -312 -55 -470 -70 -244 -24 -249 -25 -80 -20
240 8 664 68 908 129 565 142 1019 345 1329 592 457 364 681 701 748 1125 22
138 23 141 24 83 2 -135 -68 -416 -139 -555 -154 -301 -496 -647 -870 -877
-116 -72 -479 -257 -568 -289 -26 -9 -82 -32 -124 -50 -42 -18 -116 -45 -165
-60 -166 -52 -58 -35 137 22 402 115 680 233 924 389 152 97 426 343 544 490
106 129 184 240 217 305 91 180 155 434 155 612 0 156 -36 348 -102 542 -35
104 -163 356 -233 461 -153 226 -265 335 -523 508 -64 43 -78 56 -42 37 46
-24 144 -92 230 -161 204 -162 364 -365 488 -621 165 -341 231 -688 187 -981
-16 -104 -68 -272 -115 -373 -100 -208 -361 -515 -630 -739 -307 -255 -712
-434 -1345 -593 -265 -67 -707 -133 -1050 -156 -205 -14 -740 -18 -910 -7
-203 13 -584 54 -720 77 -402 68 -884 216 -1228 377 -224 105 -538 301 -703
440 -131 109 -293 283 -401 427 -292 392 -369 783 -241 1235 96 340 309 655
638 939 135 117 400 304 400 282 0 -3 -35 -31 -77 -62 -226 -166 -355 -299
-556 -574 -160 -218 -235 -375 -296 -615 -55 -219 -63 -397 -27 -602 18 -101
68 -263 107 -344 16 -35 27 -55 24 -44 -4 11 -24 72 -45 136 -64 192 -75 260
-75 464 0 198 8 250 72 450 74 232 166 387 403 684 47 59 245 232 355 311 90
64 271 217 334 283 28 30 36 49 53 133 10 54 24 106 29 117 6 10 9 20 7 22 -2
1 -52 -21 -113 -49z m5406 -443 c13 -16 12 -17 -3 -4 -17 13 -22 21 -14 21 2
0 10 -8 17 -17z m40 -30 c13 -16 12 -17 -3 -4 -10 7 -18 15 -18 17 0 8 8 3 21
-13z m130 -100 c13 -16 12 -17 -3 -4 -10 7 -18 15 -18 17 0 8 8 3 21 -13z
m-300 -65 c133 -95 298 -273 398 -428 63 -97 149 -279 193 -409 32 -92 41
-135 45 -211 3 -52 1 -105 -4 -118 -6 -16 -9 3 -10 65 -2 271 -192 665 -447
931 -61 63 -183 168 -221 190 -11 6 -15 12 -10 12 6 0 31 -15 56 -32z m567
-220 c76 -103 193 -291 246 -397 94 -186 173 -469 182 -649 7 -119 -14 -344
-36 -394 -9 -19 -9 -15 -5 18 36 290 32 446 -15 633 -38 148 -80 262 -148 397
-115 229 -232 404 -377 564 l-77 85 80 -81 c44 -45 112 -124 150 -176z"/>
<path d="M1668 4122 c-43 -24 -147 -115 -402 -352 -120 -112 -177 -179 -287
-343 -145 -216 -223 -384 -277 -596 -25 -99 -27 -120 -27 -326 0 -174 4 -237
18 -302 43 -195 100 -327 233 -542 96 -154 191 -272 301 -369 70 -62 274 -211
328 -239 17 -9 55 -32 85 -53 75 -50 84 -55 76 -42 -3 6 -77 58 -164 116 -184
122 -355 258 -412 324 -22 26 -51 61 -66 77 -53 61 -168 243 -220 350 -68 139
-119 292 -140 420 -22 136 -14 404 15 520 47 190 137 397 233 539 161 239 314
394 610 620 125 95 127 97 139 150 16 75 12 80 -43 48z"/>
<path d="M1637 3935 c-30 -15 -154 -115 -202 -161 -326 -318 -544 -686 -599
-1009 -35 -202 -30 -380 13 -590 24 -114 57 -200 127 -336 103 -197 292 -419
463 -541 103 -74 404 -260 381 -235 -5 5 -135 91 -260 172 -384 248 -640 637
-704 1068 -20 129 -20 203 -1 332 25 175 73 322 167 514 99 201 330 465 558
638 90 68 98 79 99 131 1 36 -3 38 -42 17z"/>
<path d="M1567 3720 c-109 -83 -322 -338 -418 -502 -80 -136 -153 -346 -178
-515 -26 -170 -3 -420 54 -608 96 -317 322 -589 661 -797 92 -57 234 -132 234
-124 0 2 -48 32 -107 66 -471 270 -708 572 -798 1015 -40 195 -31 387 26 580
93 315 238 536 517 786 68 61 84 80 89 112 3 21 2 37 -4 37 -6 0 -40 -22 -76
-50z"/>
<path d="M6650 3685 c-73 -112 -181 -236 -287 -327 -137 -119 -256 -192 -380
-232 -30 -10 -53 -24 -53 -31 0 -8 11 -78 24 -157 36 -209 46 -318 46 -500 0
-90 5 -170 10 -178 8 -12 14 -10 37 12 15 14 71 54 123 89 249 163 401 328
540 583 l44 79 -18 246 c-10 135 -23 300 -30 366 l-11 119 -45 -69z"/>
<path d="M6873 3638 c3 -13 8 -43 12 -68 5 -37 13 -50 47 -75 162 -121 321
-429 350 -678 31 -277 -38 -586 -184 -812 -121 -189 -296 -370 -508 -526 -114
-84 -294 -201 -400 -259 -260 -144 -674 -287 -1055 -365 -332 -68 -611 -94
-1030 -97 -172 -1 -226 -3 -175 -8 211 -20 687 -5 975 31 211 26 291 41 532
100 356 87 603 172 833 288 395 199 735 481 915 761 140 217 200 386 236 660
17 137 -16 348 -81 502 -105 254 -353 568 -448 568 -20 0 -23 -4 -19 -22z"/>
<path d="M1766 3559 c-9 -39 -44 -292 -67 -481 l-21 -177 57 -113 c81 -159
143 -244 254 -351 188 -180 448 -324 806 -445 203 -69 317 -97 533 -133 470
-76 976 -74 1507 6 289 43 556 120 870 249 61 25 118 46 128 46 16 0 17 16 17
189 0 249 -17 410 -59 566 -20 75 -27 78 -96 44 -137 -68 -511 -176 -755 -218
-717 -123 -1419 -102 -1982 60 -302 86 -490 165 -693 288 -201 122 -356 265
-440 406 -26 44 -49 82 -51 84 -2 2 -5 -7 -8 -20z m123 -255 c-12 -62 -21 -74
-30 -40 -5 19 -2 41 9 67 20 47 32 32 21 -27z"/>
<path d="M1508 3487 c-95 -96 -196 -237 -257 -362 -189 -381 -193 -767 -11
-1162 49 -104 92 -170 175 -262 83 -91 156 -155 243 -213 70 -47 302 -173 302
-164 0 2 -50 32 -112 66 -196 108 -335 223 -464 384 -143 179 -234 431 -251
691 -12 193 54 455 165 661 44 80 159 233 233 309 37 38 61 72 65 93 4 21 3
32 -5 32 -6 0 -43 -33 -83 -73z"/>
<path d="M6898 3302 c4 -187 2 -217 -17 -293 -32 -130 -115 -289 -206 -392
-219 -251 -404 -405 -595 -494 -63 -30 -155 -74 -205 -98 -137 -67 -378 -172
-458 -199 -249 -84 -658 -185 -817 -201 -36 -3 -132 -15 -215 -26 -82 -10
-247 -22 -365 -26 l-215 -8 125 -8 c167 -11 653 8 854 34 293 37 537 93 846
196 156 52 186 66 273 125 53 37 97 64 96 60 -2 -19 -145 -133 -206 -165 -99
-52 -377 -159 -518 -200 -373 -108 -757 -156 -1285 -159 -236 -1 -278 -3 -185
-8 192 -11 689 -11 836 0 190 15 433 54 619 100 187 46 562 161 636 195 32 14
83 54 135 104 46 45 122 110 169 143 137 99 338 284 385 356 36 54 43 54 13 0
-35 -65 -289 -315 -393 -388 -112 -78 -227 -171 -221 -178 3 -3 12 1 21 8 9 7
18 11 20 8 6 -5 -71 -62 -130 -96 -67 -39 -282 -127 -431 -175 -425 -139 -797
-194 -1394 -206 -190 -4 -309 -8 -265 -9 44 -2 172 -7 285 -12 582 -26 1139
61 1700 267 241 89 305 130 622 399 118 101 251 244 312 339 60 92 70 114 102
210 13 39 23 62 24 53 0 -24 -38 -133 -67 -192 -101 -201 -270 -384 -568 -614
-44 -34 -102 -80 -130 -102 -140 -112 -510 -264 -830 -340 -451 -107 -786
-144 -1257 -138 -152 1 -275 1 -273 -1 26 -25 681 -29 964 -6 221 19 263 25
475 71 255 55 511 133 754 230 377 150 825 536 972 839 71 145 91 229 99 415
6 152 6 153 13 73 18 -206 -54 -466 -183 -657 -108 -159 -264 -316 -459 -460
-52 -38 -115 -87 -140 -107 -109 -90 -287 -179 -540 -272 -540 -198 -1075
-278 -1760 -265 -145 3 -212 2 -175 -3 33 -5 220 -11 415 -15 314 -5 380 -3
570 15 557 53 1210 249 1534 458 205 132 346 242 461 357 134 135 182 195 254
315 106 176 146 347 138 591 -5 144 -15 207 -53 335 -4 11 -3 17 0 14 4 -4 21
-53 38 -110 30 -99 31 -113 32 -279 0 -192 -12 -277 -62 -419 -112 -315 -438
-642 -927 -932 -162 -96 -321 -164 -578 -248 -220 -72 -298 -92 -499 -130
-346 -66 -528 -82 -994 -84 -407 -2 -405 -10 6 -21 605 -17 1092 49 1630 221
393 125 630 247 923 475 219 170 311 267 440 460 267 399 259 939 -21 1321
-38 53 -142 157 -156 157 -1 0 0 -94 2 -208z"/>
<path d="M1497 3285 c-58 -70 -114 -177 -172 -325 -132 -343 -88 -727 120
-1055 81 -128 269 -288 470 -400 73 -41 55 -27 -80 63 -66 44 -151 106 -189
139 -175 147 -325 422 -362 663 -28 192 -13 337 56 535 43 125 116 269 166
330 44 55 64 87 64 104 0 24 -21 8 -73 -54z"/>
<path d="M1493 3023 c-31 -68 -66 -183 -59 -191 2 -2 10 14 16 35 7 21 28 76
47 122 42 103 39 130 -4 34z"/>
<path d="M1395 2555 c4 -169 18 -234 80 -379 63 -146 185 -312 278 -378 17
-12 1 7 -34 43 -94 93 -155 186 -224 339 -61 136 -86 237 -95 390 l-8 135 3
-150z"/>
<path d="M1550 2374 c0 -36 123 -282 150 -299 5 -3 -7 23 -27 57 -20 35 -55
106 -79 158 -24 52 -44 90 -44 84z"/>
<path d="M1790 1776 c0 -2 8 -10 18 -17 15 -13 16 -12 3 4 -13 16 -21 21 -21
13z"/>
<path d="M1830 1746 c0 -2 8 -10 18 -17 15 -13 16 -12 3 4 -13 16 -21 21 -21
13z"/>
<path d="M3858 623 c12 -2 30 -2 40 0 9 3 -1 5 -23 4 -22 0 -30 -2 -17 -4z"/>
<path d="M5508 513 c6 -2 18 -2 25 0 6 3 1 5 -13 5 -14 0 -19 -2 -12 -5z"/>
<path d="M5458 503 c7 -3 16 -2 19 1 4 3 -2 6 -13 5 -11 0 -14 -3 -6 -6z"/>
</g>
</svg>
