<svg width="116" height="55" viewBox="0 0 116 55" fill="none" xmlns="http://www.w3.org/2000/svg">
<path d="M14.532 47.512C14.5693 47.624 14.6067 47.7267 14.644 47.82C14.6813 47.9133 14.7093 48.016 14.728 48.128C14.7653 48.24 14.784 48.3427 14.784 48.436C14.784 48.5667 14.7373 48.6693 14.644 48.744C14.5507 48.8373 14.4387 48.912 14.308 48.968C14.196 49.024 14.084 49.0613 13.972 49.08C13.86 49.0987 13.7947 49.108 13.776 49.108C13.664 49.108 13.4587 48.7627 13.16 48.072C12.8613 47.4 12.5347 46.448 12.18 45.216C11.844 43.984 11.4987 42.5187 11.144 40.82C10.7893 39.1213 10.5 37.2547 10.276 35.22C10.2387 35.6493 10.164 36.1533 10.052 36.732C9.95867 37.292 9.80933 37.824 9.604 38.328C9.39867 38.832 9.128 39.2613 8.792 39.616C8.47467 39.952 8.064 40.12 7.56 40.12C7.20533 40.12 6.804 39.9333 6.356 39.56C5.908 39.1867 5.46933 38.748 5.04 38.244C4.62933 37.7213 4.24667 37.1987 3.892 36.676C3.556 36.1347 3.304 35.696 3.136 35.36C3.21067 36.1813 3.332 37.1707 3.5 38.328C3.68667 39.4853 3.96667 40.708 4.34 41.996C4.37733 42.1267 4.41467 42.2293 4.452 42.304C4.508 42.36 4.55467 42.4253 4.592 42.5C4.648 42.5747 4.68533 42.6587 4.704 42.752C4.74133 42.8267 4.76 42.948 4.76 43.116C4.76 43.3587 4.66667 43.536 4.48 43.648C4.29333 43.76 4.116 43.816 3.948 43.816C3.85467 43.816 3.73333 43.676 3.584 43.396C3.43467 43.0973 3.276 42.7147 3.108 42.248C2.94 41.7813 2.772 41.268 2.604 40.708C2.436 40.1293 2.27733 39.56 2.128 39C1.99733 38.44 1.88533 37.9173 1.792 37.432C1.69867 36.928 1.652 36.5267 1.652 36.228C1.652 35.7427 1.67067 35.4067 1.708 35.22C1.764 35.0333 1.83867 34.8933 1.932 34.8V33.092C1.932 32.8307 1.99733 32.6347 2.128 32.504C2.27733 32.3547 2.464 32.28 2.688 32.28C2.87467 32.28 3.08933 32.4387 3.332 32.756C3.57467 33.0733 3.836 33.4747 4.116 33.96C4.41467 34.4453 4.72267 34.968 5.04 35.528C5.35733 36.088 5.66533 36.6107 5.964 37.096C6.28133 37.5813 6.58 37.9827 6.86 38.3C7.15867 38.6173 7.43867 38.776 7.7 38.776C7.94267 38.776 8.176 38.552 8.4 38.104C8.624 37.6373 8.82933 37.0307 9.016 36.284C9.22133 35.5373 9.39867 34.688 9.548 33.736C9.69733 32.784 9.81867 31.8133 9.912 30.824C9.912 30.712 9.90267 30.5907 9.884 30.46C9.86533 30.3107 9.856 30.152 9.856 29.984C9.856 29.76 9.90267 29.5173 9.996 29.256C10.108 28.9947 10.3133 28.864 10.612 28.864C10.78 28.864 10.9107 28.9107 11.004 29.004C11.116 29.0973 11.1907 29.2187 11.228 29.368C11.2653 29.4987 11.284 29.6387 11.284 29.788C11.3027 29.9187 11.312 30.0307 11.312 30.124C11.312 30.2733 11.2933 30.5253 11.256 30.88C11.2373 31.216 11.228 31.7387 11.228 32.448C11.228 33.064 11.2747 33.7827 11.368 34.604C11.4613 35.4067 11.5827 36.2653 11.732 37.18C11.9 38.076 12.0867 39.0093 12.292 39.98C12.516 40.932 12.7493 41.8653 12.992 42.78C13.2533 43.6947 13.5053 44.5627 13.748 45.384C14.0093 46.1867 14.2707 46.896 14.532 47.512ZM28.7755 40.176C28.7755 40.512 28.6168 40.932 28.2995 41.436C28.0008 41.9213 27.5901 42.3973 27.0675 42.864C26.5448 43.3307 25.9381 43.732 25.2475 44.068C24.5568 44.3853 23.8381 44.544 23.0915 44.544C22.7555 44.544 22.4008 44.488 22.0275 44.376C21.6541 44.264 21.2901 44.1053 20.9355 43.9C20.5808 43.676 20.2635 43.4147 19.9835 43.116C19.7035 42.7987 19.4981 42.444 19.3675 42.052C19.2555 42.164 19.1155 42.3507 18.9475 42.612C18.7981 42.8733 18.6301 43.144 18.4435 43.424C18.2568 43.6853 18.0515 43.9187 17.8275 44.124C17.6035 44.3107 17.3701 44.404 17.1275 44.404C16.8848 44.404 16.6795 44.2827 16.5115 44.04C16.3621 43.7787 16.2408 43.4987 16.1475 43.2C16.0541 42.8827 15.9888 42.584 15.9515 42.304C15.9141 42.024 15.8955 41.8653 15.8955 41.828C15.8955 41.604 15.9608 41.184 16.0915 40.568C16.2221 39.9333 16.4181 39.28 16.6795 38.608C16.9408 37.936 17.2675 37.3387 17.6595 36.816C18.0701 36.2933 18.5461 36.032 19.0875 36.032C19.2928 36.032 19.4235 36.1253 19.4795 36.312C19.5541 36.48 19.5915 36.648 19.5915 36.816V37.656C19.6848 37.7307 19.7781 37.7867 19.8715 37.824C19.9835 37.8427 20.0768 37.88 20.1515 37.936C20.2448 37.9733 20.3101 38.0387 20.3475 38.132C20.4035 38.2253 20.4315 38.3747 20.4315 38.58C20.4315 38.7107 20.4221 38.832 20.4035 38.944C20.3848 39.0373 20.3755 39.1307 20.3755 39.224C20.3755 39.7093 20.4128 40.1853 20.4875 40.652C20.5621 41.1187 20.7115 41.5387 20.9355 41.912C21.1595 42.2667 21.4675 42.5653 21.8595 42.808C22.2515 43.032 22.7741 43.144 23.4275 43.144C24.2488 43.144 24.9395 42.976 25.4995 42.64C26.0781 42.2853 26.5541 41.9027 26.9275 41.492C27.3195 41.0627 27.6275 40.68 27.8515 40.344C28.0755 39.9893 28.2621 39.812 28.4115 39.812C28.6541 39.812 28.7755 39.9333 28.7755 40.176ZM18.9475 38.944C18.9475 38.8693 18.9288 38.804 18.8915 38.748C18.8541 38.6733 18.8355 38.608 18.8355 38.552C18.8355 38.4773 18.8541 38.412 18.8915 38.356C18.9288 38.3 18.9475 38.2253 18.9475 38.132C18.9475 38.076 18.9288 38.0387 18.8915 38.02C18.8541 37.9827 18.8355 37.9453 18.8355 37.908C18.6675 37.9453 18.4901 38.104 18.3035 38.384C18.1355 38.664 17.9675 38.9907 17.7995 39.364C17.6501 39.7373 17.5288 40.12 17.4355 40.512C17.3421 40.8853 17.2955 41.1933 17.2955 41.436C17.2955 41.5667 17.3328 41.7813 17.4075 42.08C17.4821 42.3787 17.5661 42.5747 17.6595 42.668C17.9768 42.0147 18.2661 41.38 18.5275 40.764C18.8075 40.148 18.9475 39.5413 18.9475 38.944ZM39.06 43.004C39.06 43.1533 39.0413 43.2653 39.004 43.34C38.9667 43.396 38.8733 43.4427 38.724 43.48C38.556 43.536 38.3413 43.6013 38.08 43.676C37.8373 43.732 37.5667 43.7973 37.268 43.872C36.9693 43.928 36.6613 43.984 36.344 44.04C36.0453 44.0773 35.7653 44.096 35.504 44.096C35.1867 44.096 34.832 44.0773 34.44 44.04C34.0667 44.0027 33.7027 43.9467 33.348 43.872C32.9933 43.7787 32.6667 43.6853 32.368 43.592C32.088 43.48 31.8827 43.3493 31.752 43.2C31.8453 43.592 31.9293 43.984 32.004 44.376C32.0787 44.768 32.1347 45.16 32.172 45.552C32.172 45.6453 32.144 45.7293 32.088 45.804C32.0507 45.86 31.9293 45.888 31.724 45.888C31.6307 45.888 31.5373 45.8693 31.444 45.832C31.3693 45.776 31.304 45.6733 31.248 45.524C31.08 45.1507 30.94 44.8053 30.828 44.488C30.716 44.152 30.6133 43.816 30.52 43.48C30.4453 43.144 30.3613 42.7893 30.268 42.416C30.1747 42.0427 30.0627 41.632 29.932 41.184C29.7267 40.456 29.512 39.6813 29.288 38.86C29.064 38.02 28.8587 37.2267 28.672 36.48C28.4853 35.7147 28.336 35.0427 28.224 34.464C28.112 33.8667 28.056 33.4467 28.056 33.204C28.056 33.092 28.056 32.9427 28.056 32.756C28.0747 32.5693 28.1027 32.392 28.14 32.224C28.196 32.0373 28.2613 31.888 28.336 31.776C28.4293 31.6453 28.5507 31.58 28.7 31.58C28.7933 31.58 28.8867 31.7293 28.98 32.028C29.092 32.308 29.1853 32.6253 29.26 32.98C29.3533 33.316 29.428 33.6427 29.484 33.96C29.5587 34.2587 29.596 34.4173 29.596 34.436C29.6707 34.8467 29.7547 35.304 29.848 35.808C29.96 36.2933 30.072 36.788 30.184 37.292C30.296 37.796 30.4173 38.2813 30.548 38.748C30.6787 39.196 30.8187 39.5787 30.968 39.896C30.9867 39.7093 31.052 39.4387 31.164 39.084C31.276 38.7293 31.4253 38.3467 31.612 37.936C31.7987 37.5253 32.004 37.1053 32.228 36.676C32.4707 36.228 32.7133 35.8267 32.956 35.472C33.2173 35.1173 33.4693 34.828 33.712 34.604C33.9733 34.38 34.216 34.268 34.44 34.268C34.7947 34.268 35.0373 34.3147 35.168 34.408C35.3173 34.5013 35.392 34.6133 35.392 34.744C35.392 34.856 35.2333 35.08 34.916 35.416C34.5987 35.7333 34.244 36.1627 33.852 36.704C33.46 37.2267 33.1053 37.852 32.788 38.58C32.4707 39.2893 32.312 40.0827 32.312 40.96C32.312 41.2773 32.396 41.5573 32.564 41.8C32.7507 42.024 32.984 42.2107 33.264 42.36C33.5627 42.5093 33.8893 42.6307 34.244 42.724C34.6173 42.7987 34.9813 42.836 35.336 42.836C35.6533 42.836 35.9987 42.8267 36.372 42.808C36.7453 42.7893 37.0907 42.7707 37.408 42.752C37.744 42.7147 38.024 42.6867 38.248 42.668C38.4907 42.6493 38.64 42.64 38.696 42.64C38.7893 42.64 38.8733 42.668 38.948 42.724C39.0227 42.78 39.06 42.8733 39.06 43.004ZM44.7283 37.908C44.7283 38.02 44.6629 38.1693 44.5323 38.356C44.4203 38.524 44.2709 38.7107 44.0843 38.916C43.8976 39.1213 43.6829 39.336 43.4403 39.56C43.2163 39.7653 42.9923 39.952 42.7683 40.12C42.8056 40.3067 42.8429 40.4467 42.8803 40.54L44.0003 45.188C44.0003 45.3373 43.9443 45.4493 43.8323 45.524C43.7203 45.5987 43.5896 45.636 43.4403 45.636C43.2723 45.636 43.0949 45.4867 42.9083 45.188C42.7403 44.8707 42.5723 44.4787 42.4043 44.012C42.2363 43.5453 42.0776 43.032 41.9283 42.472C41.7789 41.912 41.6483 41.3893 41.5363 40.904C41.4429 40.9227 41.3309 40.932 41.2003 40.932C41.0509 40.932 40.8643 40.848 40.6403 40.68C40.4163 40.512 40.3043 40.3533 40.3043 40.204C40.3043 40.1667 40.3883 40.12 40.5563 40.064C40.7243 39.9893 40.9109 39.896 41.1163 39.784L41.2843 39.672C41.2469 39.4667 41.2189 39.308 41.2003 39.196C41.1816 39.0653 41.1723 38.9907 41.1723 38.972C41.1723 38.8973 41.1349 38.7013 41.0603 38.384C41.0043 38.0667 40.9203 37.572 40.8083 36.9C40.7149 36.228 40.6029 35.36 40.4723 34.296C40.3603 33.2133 40.2389 31.8787 40.1083 30.292C40.1083 30.124 40.1363 29.9093 40.1923 29.648C40.2483 29.3867 40.3789 29.256 40.5843 29.256C40.8456 29.256 41.0416 29.4333 41.1723 29.788C41.3216 30.1427 41.4336 30.5813 41.5083 31.104C41.6016 31.6267 41.6669 32.1773 41.7043 32.756C41.7416 33.316 41.7883 33.8107 41.8443 34.24C41.9563 35.1173 42.0496 35.9013 42.1243 36.592C42.2176 37.264 42.3389 37.9733 42.4883 38.72C42.8429 38.4213 43.1789 38.1507 43.4963 37.908C43.8136 37.6653 44.0283 37.544 44.1403 37.544C44.2709 37.544 44.4016 37.5813 44.5323 37.656C44.6629 37.7307 44.7283 37.8147 44.7283 37.908ZM51.1945 39.952C51.1945 40.3627 51.1385 40.7547 51.0265 41.128C50.9145 41.5013 50.7652 41.828 50.5785 42.108C50.3918 42.388 50.1678 42.612 49.9065 42.78C49.6638 42.9293 49.3932 43.004 49.0945 43.004C48.5718 43.004 48.1612 42.8547 47.8625 42.556C47.5638 42.2573 47.3305 41.912 47.1625 41.52C47.0132 41.128 46.9105 40.736 46.8545 40.344C46.8172 39.9333 46.7985 39.6253 46.7985 39.42C46.7985 39.084 46.8452 38.7107 46.9385 38.3C47.0505 37.8707 47.1905 37.4787 47.3585 37.124C47.5452 36.7693 47.7505 36.4707 47.9745 36.228C48.1985 35.9853 48.4318 35.864 48.6745 35.864C48.7305 35.864 48.8145 35.8827 48.9265 35.92C49.0572 35.9573 49.1878 36.0133 49.3185 36.088C49.4492 36.1627 49.5612 36.256 49.6545 36.368C49.7665 36.48 49.8412 36.6107 49.8785 36.76C50.0838 36.7787 50.2892 36.8533 50.4945 36.984C50.6998 37.1147 50.8118 37.2173 50.8305 37.292C50.9798 37.7773 51.0732 38.2627 51.1105 38.748C51.1665 39.2333 51.1945 39.6347 51.1945 39.952ZM49.9345 39.448C49.9345 39.168 49.9065 38.8787 49.8505 38.58C49.7945 38.2627 49.6825 37.9453 49.5145 37.628C49.4772 37.6467 49.4305 37.656 49.3745 37.656C49.2998 37.656 49.2345 37.6467 49.1785 37.628C49.1412 37.6093 49.1038 37.6 49.0665 37.6C48.8425 37.6 48.6652 37.6653 48.5345 37.796C48.4038 37.908 48.3012 38.0667 48.2265 38.272C48.1705 38.4587 48.1332 38.664 48.1145 38.888C48.0958 39.112 48.0865 39.3267 48.0865 39.532C48.0865 39.7373 48.0958 39.9707 48.1145 40.232C48.1332 40.4747 48.1705 40.708 48.2265 40.932C48.3012 41.156 48.3945 41.352 48.5065 41.52C48.6185 41.6693 48.7678 41.744 48.9545 41.744C49.1412 41.744 49.2998 41.6507 49.4305 41.464C49.5612 41.2587 49.6638 41.0253 49.7385 40.764C49.8132 40.5027 49.8598 40.2507 49.8785 40.008C49.9158 39.7467 49.9345 39.56 49.9345 39.448ZM62.4862 33.68C62.5608 33.6987 62.5982 33.7547 62.5982 33.848C62.5982 33.9787 62.5328 34.1187 62.4022 34.268C62.2715 34.3987 62.2062 34.548 62.2062 34.716C62.2062 34.7533 62.1968 34.8933 62.1782 35.136C62.1782 35.3787 62.1782 35.6493 62.1782 35.948C62.1782 36.2467 62.1688 36.5267 62.1502 36.788C62.1502 37.0493 62.1502 37.1987 62.1502 37.236V40.008C62.1502 40.0267 62.1408 40.1573 62.1222 40.4C62.1035 40.6427 62.0662 40.932 62.0102 41.268C61.9728 41.604 61.9262 41.9587 61.8702 42.332C61.8328 42.6867 61.7862 42.9947 61.7302 43.256C61.7115 43.3307 61.6555 43.3867 61.5622 43.424C61.4875 43.4613 61.3942 43.4987 61.2822 43.536C61.1888 43.5547 61.0955 43.5733 61.0022 43.592C60.9088 43.592 60.8528 43.592 60.8342 43.592C60.6288 43.592 60.4048 43.4707 60.1622 43.228C59.9382 42.9853 59.7235 42.7147 59.5182 42.416C59.3128 42.1173 59.1355 41.8373 58.9862 41.576C58.8368 41.3147 58.7528 41.1653 58.7342 41.128C58.6595 41.3893 58.5755 41.66 58.4822 41.94C58.3888 42.2013 58.2862 42.444 58.1742 42.668C58.0622 42.892 57.9315 43.0787 57.7822 43.228C57.6515 43.3773 57.5022 43.452 57.3342 43.452C57.1102 43.452 56.8768 43.34 56.6342 43.116C56.3915 42.892 56.1395 42.6027 55.8782 42.248C55.6355 41.8933 55.4022 41.5013 55.1782 41.072C54.9542 40.624 54.7582 40.1947 54.5902 39.784C54.4222 39.3733 54.2822 38.9907 54.1702 38.636C54.0768 38.2813 54.0302 38.0013 54.0302 37.796C54.0302 37.7213 54.0675 37.628 54.1422 37.516C54.2168 37.404 54.3195 37.348 54.4502 37.348C54.7115 37.348 54.8982 37.432 55.0102 37.6C55.0288 37.6187 55.0848 37.7867 55.1782 38.104C55.2902 38.4213 55.4395 38.7947 55.6262 39.224C55.8128 39.6533 56.0275 40.1013 56.2702 40.568C56.5315 41.016 56.8208 41.3987 57.1382 41.716C57.2688 41.4733 57.3715 41.2027 57.4462 40.904C57.5395 40.6053 57.6142 40.316 57.6702 40.036C57.7262 39.756 57.7635 39.504 57.7822 39.28C57.8008 39.0373 57.8102 38.8413 57.8102 38.692C57.7728 38.5427 57.7448 38.3933 57.7262 38.244C57.7075 38.1133 57.6888 37.9827 57.6702 37.852C57.6702 37.7213 57.6702 37.6093 57.6702 37.516C57.6702 37.0493 57.8568 36.816 58.2302 36.816C58.5102 36.816 58.7248 36.9093 58.8742 37.096C59.0235 37.264 59.1355 37.4693 59.2102 37.712C59.2848 37.936 59.3315 38.16 59.3502 38.384C59.3875 38.608 59.4248 38.7667 59.4622 38.86C59.6115 39.2893 59.7422 39.6907 59.8542 40.064C59.9848 40.4373 60.1995 40.82 60.4982 41.212C60.5728 41.156 60.6288 41.0627 60.6662 40.932C60.7222 40.7827 60.7595 40.6333 60.7782 40.484C60.7968 40.3347 60.8062 40.204 60.8062 40.092C60.8062 39.9613 60.8062 39.868 60.8062 39.812V34.24C60.8062 34.128 60.8528 34.0253 60.9462 33.932C61.0395 33.8387 61.1515 33.7547 61.2822 33.68C61.4128 33.6053 61.5342 33.5493 61.6462 33.512C61.7768 33.456 61.8702 33.428 61.9262 33.428C62.0195 33.428 62.1035 33.456 62.1782 33.512C62.2715 33.568 62.3742 33.624 62.4862 33.68ZM66.5103 33.12C66.5103 33.1573 66.4449 33.232 66.3143 33.344C66.1836 33.456 66.0249 33.5773 65.8383 33.708C65.6703 33.82 65.4929 33.9227 65.3063 34.016C65.1196 34.1093 64.9703 34.156 64.8583 34.156C64.7836 34.156 64.6809 34.156 64.5503 34.156C64.4383 34.1373 64.3169 34.1 64.1863 34.044C64.0743 33.988 63.9716 33.9133 63.8783 33.82C63.7849 33.708 63.7383 33.568 63.7383 33.4C63.7383 33.1387 63.8316 32.896 64.0183 32.672C64.2049 32.4293 64.4476 32.308 64.7463 32.308C64.8023 32.308 64.9236 32.336 65.1103 32.392C65.3156 32.4293 65.5209 32.4853 65.7263 32.56C65.9316 32.6347 66.1089 32.7187 66.2583 32.812C66.4263 32.9053 66.5103 33.008 66.5103 33.12ZM67.4343 43.592C67.4343 43.7227 67.3316 43.8347 67.1263 43.928C66.9396 44.0213 66.7996 44.068 66.7063 44.068C66.5196 44.068 66.3516 43.9467 66.2023 43.704C66.0529 43.4613 65.9223 43.1813 65.8103 42.864C65.6983 42.5467 65.6049 42.248 65.5303 41.968C65.4556 41.6693 65.3996 41.464 65.3623 41.352C65.3063 41.1653 65.2316 40.9413 65.1383 40.68C65.0449 40.4187 64.9516 40.1667 64.8583 39.924C64.7836 39.6813 64.7183 39.4667 64.6623 39.28C64.6063 39.0933 64.5783 38.9907 64.5783 38.972C64.5783 38.7107 64.6249 38.468 64.7183 38.244C64.8303 38.02 64.9609 37.908 65.1103 37.908C65.2783 37.908 65.4556 38.0387 65.6423 38.3C65.8289 38.5613 66.0063 38.8973 66.1743 39.308C66.3609 39.7 66.5289 40.1387 66.6783 40.624C66.8276 41.0907 66.9583 41.5387 67.0703 41.968C67.1823 42.3787 67.2663 42.7427 67.3223 43.06C67.3969 43.3587 67.4343 43.536 67.4343 43.592ZM77.2699 40.904C77.2699 41.0907 77.2419 41.2867 77.1859 41.492C77.1299 41.6787 77.0739 41.8373 77.0179 41.968C76.9806 42.024 76.8033 42.22 76.4859 42.556C76.1873 42.8733 75.8046 43.2093 75.3379 43.564C74.8899 43.9187 74.3766 44.2453 73.7979 44.544C73.2379 44.824 72.6966 44.964 72.1739 44.964C71.8566 44.964 71.5299 44.908 71.1939 44.796C70.8766 44.684 70.5779 44.5067 70.2979 44.264C70.0179 44.0027 69.7846 43.6853 69.5979 43.312C69.4299 42.9387 69.3459 42.4813 69.3459 41.94C69.3459 41.044 69.4953 40.232 69.7939 39.504C70.0926 38.776 70.3913 38.1973 70.6899 37.768C70.8206 37.5627 70.9886 37.3573 71.1939 37.152C71.4179 36.928 71.6326 36.732 71.8379 36.564C72.0433 36.3773 72.2299 36.228 72.3979 36.116C72.5846 36.004 72.7153 35.948 72.7899 35.948C72.9579 35.948 73.1073 35.9947 73.2379 36.088C73.3873 36.1813 73.4619 36.2747 73.4619 36.368C73.4619 36.5173 73.4153 36.648 73.3219 36.76C73.2473 36.8533 73.1353 36.9653 72.9859 37.096C72.8366 37.208 72.6593 37.3667 72.4539 37.572C72.2486 37.7587 72.0339 38.0107 71.8099 38.328C71.3619 38.944 71.0259 39.5787 70.8019 40.232C70.5966 40.8667 70.4939 41.4267 70.4939 41.912C70.4939 42.3973 70.6713 42.7893 71.0259 43.088C71.3993 43.368 71.7819 43.508 72.1739 43.508C72.8833 43.508 73.5086 43.3493 74.0499 43.032C74.6099 42.7147 75.0859 42.36 75.4779 41.968C75.8699 41.576 76.1873 41.2213 76.4299 40.904C76.6726 40.5867 76.8499 40.428 76.9619 40.428C77.1673 40.428 77.2699 40.5867 77.2699 40.904ZM89.7625 40.26C89.7625 40.4093 89.7439 40.5587 89.7065 40.708C89.6879 40.8573 89.6319 40.9507 89.5385 40.988C89.1652 41.156 88.6799 41.3053 88.0825 41.436C87.4852 41.548 86.9345 41.7067 86.4305 41.912C86.1132 42.0427 85.7212 42.22 85.2545 42.444C84.7879 42.668 84.3025 42.892 83.7985 43.116C83.2945 43.34 82.8092 43.536 82.3425 43.704C81.8759 43.8533 81.4932 43.928 81.1945 43.928C80.9519 43.928 80.7185 43.8347 80.4945 43.648C80.2705 43.4613 80.1585 43.2653 80.1585 43.06C80.1585 42.6867 80.3265 42.2387 80.6625 41.716C81.0172 41.1747 81.4185 40.624 81.8665 40.064C82.3332 39.504 82.7812 38.972 83.2105 38.468C83.6585 37.9453 83.9759 37.5253 84.1625 37.208C84.1439 37.208 84.1159 37.1987 84.0785 37.18C84.0412 37.1427 83.9852 37.124 83.9105 37.124C83.3319 37.3107 82.7905 37.4787 82.2865 37.628C81.8572 37.7587 81.4092 37.88 80.9425 37.992C80.4945 38.0853 80.1305 38.132 79.8505 38.132C79.6639 38.132 79.5145 38.048 79.4025 37.88C79.3092 37.712 79.2625 37.5253 79.2625 37.32C79.2625 37.264 79.2719 37.208 79.2905 37.152C79.3279 37.096 79.3932 37.068 79.4865 37.068C79.7292 37.012 80.0932 36.9187 80.5785 36.788C81.0825 36.6573 81.6145 36.5267 82.1745 36.396C82.7345 36.2467 83.2665 36.1253 83.7705 36.032C84.2932 35.92 84.6945 35.864 84.9745 35.864C85.1799 35.864 85.3945 35.948 85.6185 36.116C85.8612 36.2653 86.0479 36.4613 86.1785 36.704L82.0065 42.052L81.8385 42.388C81.8385 42.4627 81.8665 42.5 81.9225 42.5C82.0719 42.5 82.2772 42.4347 82.5385 42.304C82.8185 42.1733 83.1919 41.9867 83.6585 41.744C84.1439 41.5013 84.7599 41.212 85.5065 40.876C86.2719 40.54 87.2145 40.176 88.3345 39.784C88.5212 39.728 88.6985 39.7 88.8665 39.7C89.1465 39.7 89.3612 39.7653 89.5105 39.896C89.6785 40.0267 89.7625 40.148 89.7625 40.26ZM104.162 40.176C104.162 40.512 104.004 40.932 103.686 41.436C103.388 41.9213 102.977 42.3973 102.454 42.864C101.932 43.3307 101.325 43.732 100.634 44.068C99.9435 44.3853 99.2249 44.544 98.4782 44.544C98.1422 44.544 97.7875 44.488 97.4142 44.376C97.0409 44.264 96.6769 44.1053 96.3222 43.9C95.9675 43.676 95.6502 43.4147 95.3702 43.116C95.0902 42.7987 94.8849 42.444 94.7542 42.052C94.6422 42.164 94.5022 42.3507 94.3342 42.612C94.1849 42.8733 94.0169 43.144 93.8302 43.424C93.6435 43.6853 93.4382 43.9187 93.2142 44.124C92.9902 44.3107 92.7569 44.404 92.5142 44.404C92.2715 44.404 92.0662 44.2827 91.8982 44.04C91.7489 43.7787 91.6275 43.4987 91.5342 43.2C91.4409 42.8827 91.3755 42.584 91.3382 42.304C91.3009 42.024 91.2822 41.8653 91.2822 41.828C91.2822 41.604 91.3475 41.184 91.4782 40.568C91.6089 39.9333 91.8049 39.28 92.0662 38.608C92.3275 37.936 92.6542 37.3387 93.0462 36.816C93.4569 36.2933 93.9329 36.032 94.4742 36.032C94.6795 36.032 94.8102 36.1253 94.8662 36.312C94.9409 36.48 94.9782 36.648 94.9782 36.816V37.656C95.0715 37.7307 95.1649 37.7867 95.2582 37.824C95.3702 37.8427 95.4635 37.88 95.5382 37.936C95.6315 37.9733 95.6969 38.0387 95.7342 38.132C95.7902 38.2253 95.8182 38.3747 95.8182 38.58C95.8182 38.7107 95.8089 38.832 95.7902 38.944C95.7715 39.0373 95.7622 39.1307 95.7622 39.224C95.7622 39.7093 95.7995 40.1853 95.8742 40.652C95.9489 41.1187 96.0982 41.5387 96.3222 41.912C96.5462 42.2667 96.8542 42.5653 97.2462 42.808C97.6382 43.032 98.1609 43.144 98.8142 43.144C99.6355 43.144 100.326 42.976 100.886 42.64C101.465 42.2853 101.941 41.9027 102.314 41.492C102.706 41.0627 103.014 40.68 103.238 40.344C103.462 39.9893 103.649 39.812 103.798 39.812C104.041 39.812 104.162 39.9333 104.162 40.176ZM94.3342 38.944C94.3342 38.8693 94.3155 38.804 94.2782 38.748C94.2409 38.6733 94.2222 38.608 94.2222 38.552C94.2222 38.4773 94.2409 38.412 94.2782 38.356C94.3155 38.3 94.3342 38.2253 94.3342 38.132C94.3342 38.076 94.3155 38.0387 94.2782 38.02C94.2409 37.9827 94.2222 37.9453 94.2222 37.908C94.0542 37.9453 93.8769 38.104 93.6902 38.384C93.5222 38.664 93.3542 38.9907 93.1862 39.364C93.0369 39.7373 92.9155 40.12 92.8222 40.512C92.7289 40.8853 92.6822 41.1933 92.6822 41.436C92.6822 41.5667 92.7195 41.7813 92.7942 42.08C92.8689 42.3787 92.9529 42.5747 93.0462 42.668C93.3635 42.0147 93.6529 41.38 93.9142 40.764C94.1942 40.148 94.3342 39.5413 94.3342 38.944Z" fill="#0016DE"/>
<path d="M99.9849 12.4832C99.5745 12.3629 98.7848 12.4015 98.3476 12.4222C98.3397 12.4226 98.3317 12.4229 98.3238 12.4232C98.2211 12.4282 98.1219 12.4285 98.0069 12.4289C97.7363 12.4296 97.3636 12.4308 96.5933 12.4942C96.4843 12.4914 96.3744 12.4888 96.2636 12.4865C96.1765 12.4846 96.0905 12.4803 96.0037 12.4737C94.1664 12.3467 92.2777 11.0325 90.6788 9.41015C90.6599 9.38813 90.6412 9.36627 90.6218 9.34361C90.5147 9.21828 90.4025 9.08398 90.2881 8.94664C90.2815 8.92999 90.2902 8.95431 90.2762 8.90705C90.2643 8.86304 90.2551 8.75446 90.2532 8.63353C90.2506 8.64951 90.2474 8.66451 90.2437 8.67831C90.1304 8.95393 90.1518 8.75529 90.2401 8.67266C90.3239 8.56733 90.4354 8.46141 90.5402 8.36869C90.66 8.28183 90.7917 8.19524 90.9295 8.10993C90.8903 8.11147 91.0639 8.04306 91.223 8.01398C91.3916 7.97923 91.5851 7.95393 91.7833 7.9347C92.1817 7.89652 92.606 7.88069 93.0292 7.8741C93.8807 7.86222 94.7485 7.88775 95.6146 7.93066C95.892 7.94462 96.1627 7.96015 96.4412 7.97811C96.762 7.99876 97.078 8.02536 97.3947 8.05863C97.934 8.11531 98.4714 8.18978 99.0047 8.28242C99.3101 8.35701 99.6009 8.43943 99.867 8.51928C100.242 8.6317 100.569 8.73896 100.844 8.81499C101.506 8.99643 102.259 9.16624 102.811 9.31817C102.903 9.34321 102.985 9.36597 103.065 9.38947C103.484 9.55277 103.902 9.73385 104.284 9.9308C104.315 9.93445 104.343 9.93676 104.374 9.94003C104.461 9.94967 104.546 9.96725 104.625 9.99043C104.939 10.096 105.292 10.3032 105.75 10.6341C106.007 10.8212 106.298 11.0492 106.627 11.3314C106.84 11.5142 106.976 11.5785 107.09 11.6328C107.124 11.6486 107.155 11.6635 107.184 11.6804C107.288 11.74 107.346 11.8503 107.411 11.981C107.495 12.152 107.589 12.353 107.809 12.5403C108.507 13.1455 108.561 13.6028 108.54 13.8235C108.536 13.8723 108.526 13.9107 108.516 13.9315C108.5 13.8793 108.492 13.8171 108.494 13.7565C108.524 13.4441 108.664 13.3935 108.643 13.4051C108.639 13.415 108.578 13.461 108.512 13.5001C108.462 13.5287 108.412 13.556 108.364 13.5814C108.212 13.6703 107.843 13.6387 107.558 13.5232C107.45 13.4824 107.297 13.4502 107.109 13.3968C106.915 13.3419 106.683 13.2638 106.439 13.1438C105.824 12.8362 105.482 12.642 105.208 12.4967C105.13 12.4544 105.056 12.4151 104.983 12.3755C104.751 12.2503 104.456 12.1016 104.153 11.9531C103.79 11.7753 103.415 11.599 103.13 11.4572C103.05 11.4297 102.969 11.4022 102.888 11.3749L102.935 11.3938C102.394 11.1937 101.875 10.9216 101.246 10.6015C101.2 10.5788 101.155 10.5564 101.109 10.534C100.712 10.3394 100.27 10.2586 99.9245 10.3096C99.5768 10.3598 99.3387 10.5227 99.2458 10.7512C99.1532 10.9805 99.2153 11.2609 99.3973 11.5375C99.5811 11.8149 99.8536 12.0626 100.173 12.2592C100.21 12.282 100.247 12.3049 100.285 12.3283C100.811 12.6613 101.419 13.064 102.085 13.3755C102.093 13.3784 102.116 13.389 102.124 13.3915C102.222 13.4333 102.317 13.4747 102.414 13.5171C103.297 13.9016 104.164 14.3334 105.113 14.7356C105.782 15.011 106.486 15.2992 107.364 15.4205C107.455 15.4323 107.546 15.4413 107.64 15.4478C108.112 15.528 108.657 15.5118 109.118 15.3877C109.415 15.3024 109.701 15.208 110.043 14.9063C110.284 14.714 110.644 14.1179 110.503 13.5367C110.421 13.1863 110.314 13.0089 110.222 12.843C110.125 12.6748 110.035 12.5427 109.96 12.4049C109.919 12.3298 109.865 12.2308 109.796 12.1137C109.521 11.6348 108.985 10.903 108.37 10.3798C108.099 10.1457 107.759 9.90533 107.426 9.69519C106.951 9.39322 106.489 9.15488 106.283 8.9957C106.038 8.80586 105.743 8.63411 105.445 8.48823C105.285 8.40935 105.137 8.34838 104.993 8.29133C104.577 8.12831 104.221 8.01598 104.034 7.90178C103.812 7.76628 103.598 7.71127 103.282 7.63823C103.064 7.58836 102.796 7.52956 102.437 7.43697C102.023 7.33076 101.721 7.29008 101.467 7.25784C101.106 7.21269 100.839 7.18399 100.456 7.04696C100.032 6.89514 99.574 6.7732 99.2088 6.7357C99.041 6.71824 98.8527 6.68754 98.6552 6.65747C98.3947 6.61773 98.1203 6.57968 97.8642 6.5732C97.6577 6.56837 97.4759 6.5977 97.3236 6.62537C97.2753 6.63393 97.2289 6.64217 97.1839 6.6491C97.0175 6.63285 96.8554 6.61794 96.6898 6.60343C96.6636 6.59362 96.636 6.58291 96.6071 6.57185C96.588 6.56452 96.5682 6.55698 96.5477 6.54932C96.414 6.49909 96.2626 6.44383 96.0693 6.40654C95.7226 6.33902 95.4141 6.34522 95.0864 6.35348C94.8318 6.36 94.5682 6.36784 94.2649 6.34423C94.0595 6.32822 93.8233 6.29783 93.5901 6.26979C93.2426 6.22788 92.896 6.19193 92.6526 6.20825C92.5629 6.21431 92.4821 6.24425 92.4056 6.27445C92.4052 6.27463 92.4049 6.27481 92.4046 6.275C92.3994 6.27705 92.3941 6.27905 92.389 6.2811C91.784 6.27134 91.2237 6.22431 90.4571 6.39958C90.3868 6.41276 90.3121 6.43003 90.2283 6.45709C90.1764 6.47347 90.1147 6.49696 90.0568 6.5232C89.8465 6.6023 89.6439 6.68535 89.4906 6.73188C89.2981 6.8125 88.8686 6.95318 88.3457 7.61177C88.2085 7.80322 88.0597 8.07885 88.0176 8.43696C87.985 8.64621 87.9634 8.88295 87.9709 9.11995C87.9779 9.35765 88.0658 9.60413 88.2001 9.83467C88.3126 10.0287 88.4564 10.2101 88.6082 10.3871C88.6175 10.3981 88.6268 10.4094 88.6359 10.4212C88.6813 10.4799 88.7259 10.5512 88.7724 10.6254C88.8155 10.6932 88.8573 10.7602 88.9097 10.831C88.9574 10.8956 89.0874 11.0163 89.2604 11.1712C89.3656 11.2651 89.4875 11.3723 89.6156 11.4862C89.9136 11.82 90.2305 12.1491 90.5632 12.4618C90.6169 12.5447 90.6581 12.6262 90.6794 12.7034C90.6947 12.7587 90.701 12.8146 90.708 12.872C90.7176 12.95 90.7291 13.0317 90.7651 13.1178C90.7935 13.1853 90.8453 13.2439 90.895 13.2643C90.9181 13.2738 90.9406 13.2752 90.9607 13.2762C90.9839 13.2774 91.0045 13.2785 91.0208 13.2914C91.0325 13.3007 91.0392 13.3176 91.0477 13.3382C91.0613 13.3712 91.0793 13.414 91.1282 13.4514C91.309 13.59 91.5269 13.7345 91.7469 13.8692C91.9913 14.0193 92.2385 14.1568 92.4339 14.2725C92.6526 14.4027 92.9952 14.5391 93.3491 14.651C93.596 14.7297 93.8477 14.797 94.0639 14.8564C94.2753 14.9149 94.4912 14.9951 94.7067 15.064C94.9647 15.1468 95.2225 15.2124 95.4495 15.2099C95.4956 15.2095 95.5555 15.1788 95.6297 15.139C95.6823 15.1109 95.7422 15.0781 95.8088 15.048C95.948 15.0585 96.0865 15.0644 96.2271 15.0657C96.3435 15.0666 96.459 15.0671 96.5734 15.0672C96.5814 15.0724 96.5896 15.0777 96.5979 15.0831C96.598 15.0833 96.5981 15.0834 96.5982 15.0835C96.7858 15.2055 97.0401 15.3723 97.4071 15.2796C97.4998 15.2561 97.5563 15.211 97.6106 15.1706C97.6631 15.1308 97.7099 15.0952 97.7774 15.0884C97.8543 15.0808 97.942 15.1067 98.041 15.1349C98.1809 15.1746 98.3313 15.2188 98.4881 15.1812C98.4988 15.1786 98.5103 15.1758 98.5223 15.173C98.6364 15.1463 98.7989 15.1067 98.968 15.0251C99.4586 15.0083 99.9494 14.9875 100.44 14.9638C101.257 14.9243 102.079 14.8771 102.893 14.8284C103.294 14.8045 103.676 14.6929 103.957 14.5122C104.237 14.3312 104.402 14.0973 104.397 13.8549C104.404 13.6126 104.241 13.378 103.963 13.1943C103.685 13.0109 103.306 12.8951 102.906 12.8657C102.259 12.8184 101.617 12.7701 100.967 12.7245C100.934 12.7192 100.9 12.714 100.866 12.7091C100.612 12.6728 100.379 12.6023 100.148 12.5316C100.094 12.5154 100.04 12.4991 99.9849 12.4832ZM107.343 16.6181C107.192 16.7671 107.157 17.0948 107.13 17.2638C107.13 17.267 107.129 17.2701 107.129 17.2732C107.123 17.3135 107.113 17.3495 107.1 17.3911C107.072 17.4847 107.029 17.6354 107.003 17.8455C106.975 17.8916 106.951 17.924 106.946 17.9296C106.947 17.9292 106.947 17.9288 106.947 17.9285C106.977 17.8854 107.062 17.8182 107.091 17.8076C107.123 17.7934 107.101 17.8103 107.047 17.8283C106.937 17.8673 106.731 17.9123 106.519 17.9511C106.085 18.0297 105.599 18.1015 105.113 18.1779C104.928 18.2073 104.74 18.2364 104.55 18.2653C104.535 18.2655 104.521 18.2656 104.506 18.2658C104.213 18.269 103.85 18.2702 103.623 18.3215C103.334 18.3869 103.139 18.4435 102.977 18.492C102.048 18.6153 101.114 18.7167 100.181 18.7542C99.8886 18.7658 99.5966 18.771 99.3053 18.7682C99.0374 18.7655 98.7688 18.7574 98.5025 18.7434C98.348 18.7141 98.2009 18.6791 98.0684 18.646C98.0016 18.6297 97.9382 18.6138 97.8797 18.5993C97.7687 18.5721 97.6725 18.5488 97.5875 18.5354C97.2697 18.4861 96.9101 18.4859 96.6444 18.4723C96.6027 18.4705 96.5595 18.4678 96.5221 18.4652C96.3215 18.4118 96.1227 18.349 95.9342 18.278C95.9186 18.2837 95.9029 18.2896 95.8869 18.2958C95.6861 18.3709 95.4752 18.3057 95.1769 18.1727C95.0456 18.1134 94.8989 18.0407 94.7283 17.9517C94.6186 17.894 94.538 17.9016 94.4702 17.9068C94.4503 17.9083 94.432 17.9098 94.4143 17.909C94.3527 17.9054 94.3285 17.8465 94.2999 17.7754C94.2641 17.6838 94.2254 17.5749 94.0847 17.5324C93.653 17.3949 93.5438 17.1481 93.4274 16.9522C93.4233 16.9437 93.4193 16.9353 93.4153 16.9271C93.3897 16.8746 93.3655 16.8269 93.3347 16.7883C93.2338 16.6621 93.0287 16.5776 92.8621 16.542C92.7296 16.5129 92.5437 16.3393 92.4139 16.189C92.3648 16.1321 92.2828 16.0814 92.186 16.0225C92.0861 15.9617 91.9704 15.8921 91.8596 15.7968C91.5798 15.5564 91.4303 15.4336 91.3104 15.3345C91.2763 15.3063 91.2444 15.2802 91.2128 15.2539C91.1128 15.1708 90.9847 15.0758 90.8564 14.9799C90.7025 14.8651 90.5488 14.749 90.4404 14.6502C90.3994 14.63 90.3571 14.6091 90.3165 14.5892L90.3286 14.5967C90.1179 14.4883 89.8558 14.3485 89.503 14.2461C89.2894 14.1832 89.0742 14.1589 88.9246 14.1512C88.6755 14.1386 88.4782 14.2353 88.3187 14.4047C88.1605 14.5751 88.0649 14.8068 88.0445 15.0529C88.0257 15.2992 88.0846 15.5428 88.2079 15.7365C88.3285 15.93 88.5098 16.0562 88.6622 16.0963C88.7602 16.1218 88.8023 16.1439 88.8352 16.1681C88.9124 16.2159 89.0339 16.3038 89.1914 16.4241C89.1935 16.4251 89.1995 16.4294 89.2017 16.4304C89.2526 16.4672 89.3047 16.5044 89.3559 16.5406C89.7654 16.8293 90.1752 17.095 90.5907 17.3384C90.8813 17.5086 91.1711 17.6733 91.4556 17.8359C91.4848 17.8526 91.5142 17.8694 91.5433 17.8861C91.7444 18.0823 91.9365 18.2737 92.0723 18.3916C92.1455 18.455 92.2152 18.4922 92.277 18.5177C92.2973 18.522 92.3223 18.5285 92.3464 18.5356C92.3962 18.551 92.4473 18.5721 92.4881 18.6109C92.5109 18.6324 92.5401 18.6629 92.5801 18.7039C92.7349 18.8645 93.069 19.1991 93.4684 19.3912C93.6438 19.477 93.8638 19.5486 94.0715 19.6018C94.3711 19.6802 94.6437 19.7213 94.7628 19.7896C94.9729 19.9108 95.2435 19.9678 95.4761 20.0041C95.7002 20.0398 95.892 20.0595 95.9922 20.1226C96.1111 20.1977 96.2275 20.1997 96.3934 20.1974C96.51 20.1958 96.6503 20.1921 96.8403 20.2054C97.055 20.22 97.2132 20.1995 97.3421 20.1808C97.5119 20.157 97.6317 20.1358 97.8053 20.1808C97.8229 20.1856 97.8411 20.1912 97.86 20.1976C98.077 20.2708 98.3023 20.3183 98.4821 20.303C98.5636 20.296 98.6572 20.3004 98.7534 20.3046C98.8829 20.3102 99.016 20.3155 99.1389 20.2943C99.2396 20.2768 99.3247 20.2296 99.3979 20.1878C99.421 20.1747 99.4431 20.1623 99.4646 20.1513C99.5456 20.1525 99.6246 20.1538 99.705 20.1555C99.718 20.1632 99.7316 20.1718 99.7459 20.1807C99.8178 20.2251 99.9044 20.2796 100.014 20.3065C100.186 20.3492 100.337 20.3217 100.496 20.2922C100.62 20.2692 100.749 20.2449 100.897 20.2516C100.998 20.2561 101.112 20.2742 101.227 20.2919C101.396 20.3183 101.563 20.3437 101.679 20.3234C101.722 20.3158 101.759 20.2849 101.795 20.2542C101.795 20.254 101.795 20.2539 101.795 20.2537C101.798 20.2516 101.8 20.2495 101.803 20.2475C102.085 20.2646 102.368 20.2829 102.651 20.3014C102.676 20.3084 102.701 20.3153 102.725 20.3221C102.845 20.3553 102.964 20.3872 103.041 20.4354C103.125 20.4876 103.334 20.5125 103.553 20.5379C103.697 20.5544 103.846 20.5712 103.968 20.5964C104.039 20.6112 104.106 20.5772 104.173 20.5421C104.234 20.5094 104.301 20.4756 104.373 20.4798C104.41 20.4818 104.448 20.4928 104.492 20.5044C104.529 20.5146 104.569 20.5255 104.61 20.5312C104.647 20.5366 104.733 20.5152 104.839 20.4878C104.904 20.4709 104.982 20.4515 105.059 20.4345C105.126 20.4365 105.193 20.4384 105.257 20.4401C105.405 20.4437 105.548 20.4468 105.695 20.4484C105.742 20.4724 105.78 20.5051 105.815 20.548C105.84 20.5788 105.861 20.6162 105.884 20.6545C105.914 20.7065 105.944 20.7603 105.985 20.8019C106.018 20.8343 106.054 20.8455 106.076 20.8292C106.086 20.8217 106.093 20.8084 106.1 20.7963C106.107 20.7825 106.114 20.7702 106.123 20.7698C106.13 20.7696 106.138 20.7783 106.148 20.7888C106.164 20.8056 106.184 20.8273 106.212 20.8258C106.314 20.8205 106.435 20.8024 106.552 20.7836C106.684 20.7625 106.813 20.7403 106.924 20.7334C107.047 20.7259 107.22 20.6679 107.409 20.5972C107.542 20.5477 107.683 20.4914 107.82 20.4415C107.953 20.3926 108.114 20.3588 108.296 20.2924C108.512 20.2162 108.76 20.0758 108.908 19.8908C108.938 19.8538 108.954 19.7858 108.965 19.7032C108.973 19.6447 108.979 19.5789 108.986 19.5117C108.988 19.5096 108.99 19.5075 108.991 19.5055C109.113 19.3461 109.2 19.1977 109.274 19.0544C109.281 19.0518 109.288 19.0492 109.296 19.0465C109.296 19.0465 109.296 19.0465 109.296 19.0464C109.463 18.9865 109.693 18.8868 109.688 18.6345C109.686 18.5711 109.657 18.5202 109.629 18.4767C109.602 18.4334 109.577 18.3953 109.584 18.355C109.591 18.3086 109.631 18.2684 109.675 18.2219C109.737 18.1573 109.804 18.0841 109.792 17.9883C109.791 17.9818 109.79 17.9748 109.789 17.9675C109.78 17.8982 109.766 17.797 109.709 17.6873C109.757 17.4214 109.79 17.1599 109.813 16.9001C109.851 16.4669 109.862 16.0409 109.856 15.6108C109.853 15.4015 109.757 15.19 109.585 15.0315C109.413 14.8719 109.18 14.784 108.938 14.7779C108.696 14.7701 108.46 14.8335 108.27 14.9459C108.08 15.0587 107.952 15.2156 107.906 15.3906C107.83 15.6752 107.745 15.9613 107.654 16.2388C107.647 16.2528 107.639 16.267 107.632 16.2811C107.578 16.3856 107.491 16.4743 107.403 16.5595C107.383 16.5791 107.362 16.5986 107.343 16.6181ZM87.5174 11.8114C87.3933 12.0386 87.4262 12.487 87.4452 12.7346C87.4455 12.7391 87.4458 12.7437 87.4461 12.7482C87.4506 12.8069 87.4506 12.8625 87.4506 12.9273C87.4506 13.0823 87.4501 13.2916 87.5153 13.7314C87.51 13.8591 87.5063 13.9868 87.5044 14.1146C87.4991 14.4723 87.5027 14.8332 87.516 15.1953C87.5061 15.8103 87.8688 16.4497 88.1521 16.7336C88.4432 17.0456 88.6931 17.219 88.9283 17.3841C89.3977 17.7035 89.8234 17.9476 90.2482 18.2044C90.2617 18.2149 90.2754 18.2256 90.2893 18.2365C90.5527 18.4422 90.8711 18.6973 91.1029 18.8207C91.3939 18.9743 91.6032 19.075 91.771 19.1525C91.9933 19.2986 92.2085 19.4432 92.4285 19.5968C93.1243 20.0872 93.8455 20.5426 94.5975 20.9549C94.9114 21.127 95.2326 21.2922 95.5557 21.4475C95.7434 21.5378 95.9321 21.6243 96.1188 21.7073C96.233 21.758 96.3501 21.8075 96.4661 21.8545C96.6397 21.9479 96.8062 22.0375 96.9615 22.1172C97.1795 22.229 97.3772 22.322 97.5446 22.3791C97.9496 22.518 98.4278 22.5782 98.7794 22.6113C98.8368 22.6168 98.891 22.6218 98.9411 22.6264C99.2129 22.6914 99.4854 22.7515 99.7579 22.8066C99.7775 22.7996 99.7975 22.7922 99.8177 22.7845C100.069 22.6883 100.354 22.7266 100.805 22.7717C101.002 22.7912 101.23 22.8114 101.498 22.82C101.673 22.8255 101.763 22.7792 101.838 22.7417C101.86 22.7306 101.88 22.7202 101.901 22.712C101.972 22.684 102.043 22.7218 102.126 22.7659C102.238 22.8233 102.367 22.8916 102.549 22.8399C103.118 22.6734 103.364 22.7925 103.554 22.8847C103.608 22.9116 103.662 22.9356 103.713 22.9486C103.878 22.9907 104.123 22.9402 104.3 22.872C104.444 22.8183 104.731 22.851 104.961 22.892C105.052 22.9072 105.168 22.8975 105.309 22.8808C105.354 22.8755 105.399 22.8696 105.444 22.8638C105.52 22.8604 105.707 22.7758 105.776 22.7426C105.877 22.6827 105.985 22.6188 106.103 22.5601C106.516 22.352 106.716 22.2247 106.88 22.1242C106.927 22.0954 106.97 22.0679 107.013 22.0408C107.148 21.9549 107.309 21.839 107.467 21.7184C107.658 21.5743 107.847 21.4233 107.997 21.3145C108.237 21.0447 108.464 20.7647 108.681 20.4733C108.921 20.2503 108.967 19.7205 108.895 19.4011C108.746 18.9777 108.433 18.7906 108.282 18.7191C108.119 18.6434 108.017 18.6258 107.932 18.6101C107.768 18.5842 107.669 18.5877 107.577 18.5903C107.211 18.6112 107.005 18.7611 106.854 18.9651C106.709 19.1714 106.661 19.4223 106.701 19.6658C106.743 19.9094 106.872 20.1285 107.048 20.2873C107.217 20.4466 107.444 20.5314 107.554 20.5529C107.575 20.5571 107.592 20.5661 107.551 20.5636C107.528 20.5605 107.491 20.5591 107.397 20.5173C107.315 20.4791 107.093 20.3554 106.983 20.0468L107.163 19.1444C106.928 19.3677 106.682 19.5854 106.433 19.7966C106.037 20.1327 105.632 20.4559 105.238 20.7527C105.077 20.8744 104.915 20.9895 104.758 21.0908L105.16 20.9441C105.043 20.9639 104.902 20.9816 104.756 20.9975C104.721 21.0014 104.684 21.0053 104.646 21.0092C104.341 20.9694 104.031 20.9243 103.811 20.9092C103.634 20.8966 103.5 20.93 103.388 20.9581C103.308 20.9774 103.241 20.9942 103.171 20.991C103.134 20.9894 103.08 20.9852 103.02 20.9799C102.767 20.9589 102.34 20.9165 101.946 20.9541C101.772 20.9712 101.567 21.01 101.37 21.0446C101.089 21.0943 100.825 21.1346 100.697 21.1006C100.474 21.0414 100.211 21.04 99.9778 21.0343C99.7561 21.0293 99.5617 21.0205 99.4608 20.9619C99.3404 20.8918 99.228 20.8924 99.0607 20.8907C98.9443 20.8893 98.8023 20.8869 98.6137 20.8556C98.3974 20.8196 98.2381 20.8153 98.1039 20.8108C97.9135 20.8036 97.7695 20.7957 97.5886 20.6805C97.388 20.5525 97.1797 20.437 97.0023 20.3899C96.9206 20.3683 96.8321 20.3304 96.7432 20.29C96.7383 20.2878 96.7333 20.2855 96.7284 20.2833C96.6086 20.2289 96.4847 20.1716 96.3627 20.139C96.2575 20.1108 96.1579 20.116 96.0679 20.1189C96.0402 20.12 96.0133 20.1207 95.9876 20.1203C95.9114 20.0814 95.8344 20.0407 95.7595 19.9993C95.7508 19.986 95.7418 19.9715 95.7323 19.9565C95.6861 19.8815 95.6292 19.7887 95.5424 19.7084C95.4044 19.5808 95.2536 19.5217 95.0938 19.4556C94.9699 19.4043 94.8404 19.3484 94.7124 19.2527C94.6258 19.1878 94.5337 19.1007 94.4458 19.0146C94.3138 18.886 94.1862 18.7561 94.0757 18.695C94.0338 18.6717 93.9843 18.6718 93.934 18.6709C93.9338 18.6709 93.9335 18.671 93.9333 18.671C93.9299 18.6709 93.9265 18.6708 93.9231 18.6708C93.7832 18.5453 93.6458 18.4165 93.5105 18.2847C93.4167 18.1945 93.3268 18.108 93.2349 18.0204C93.2174 17.9963 93.1996 17.9721 93.1821 17.9484C93.0971 17.8327 93.0149 17.7218 92.9762 17.6267C92.9362 17.525 92.7668 17.3511 92.5858 17.1699C92.4688 17.0524 92.3432 16.9288 92.2515 16.8221C92.1953 16.7578 92.1145 16.7363 92.0328 16.7155C91.9548 16.6949 91.8741 16.6735 91.8129 16.6191C91.7831 16.5926 91.7521 16.5539 91.7216 16.5147C91.6945 16.4799 91.6663 16.4435 91.634 16.4103C91.6026 16.3785 91.5139 16.335 91.4024 16.2811C91.3309 16.2459 91.2564 16.2107 91.1736 16.1665C90.9925 16.0124 90.8124 15.8606 90.6411 15.7129C90.6186 15.6625 90.6077 15.6104 90.6103 15.5557C90.6127 15.5168 90.6196 15.4733 90.6282 15.4301C90.6397 15.371 90.6523 15.3103 90.6518 15.2537C90.6506 15.2089 90.6333 15.1778 90.6079 15.1763C90.596 15.1755 90.5823 15.1809 90.5699 15.1858C90.5557 15.1913 90.5432 15.1963 90.5369 15.1909C90.5321 15.1867 90.5329 15.1754 90.5339 15.1617C90.5354 15.1399 90.5376 15.1117 90.5204 15.0966C90.4557 15.0399 90.3846 14.9878 90.3357 14.9501C90.2804 14.908 90.2585 14.8886 90.2738 14.8982C90.2865 14.8985 90.3153 15.0253 90.2895 15.1329C90.2849 15.1525 90.2788 15.169 90.2724 15.1821C90.2556 15.1003 90.2412 15.0178 90.2342 14.9462C90.2246 14.8473 90.2442 14.7439 90.2636 14.6436C90.2868 14.5234 90.3097 14.4072 90.2806 14.3085C90.2747 14.2885 90.2375 14.2632 90.191 14.2313C90.158 14.2086 90.1204 14.1825 90.0857 14.1531C90.0876 14.027 90.0883 13.9005 90.088 13.7735C90.0931 13.7692 90.0984 13.7647 90.1038 13.7602C90.1039 13.7601 90.104 13.7601 90.1042 13.76C90.2256 13.6584 90.3919 13.5201 90.2995 13.3177C90.276 13.2662 90.2311 13.233 90.1906 13.2031C90.1509 13.1736 90.1154 13.1474 90.1088 13.1099C90.1013 13.0674 90.1275 13.0182 90.156 12.9647C90.196 12.8894 90.2408 12.8052 90.204 12.7187C90.2014 12.7127 90.1987 12.7063 90.1959 12.6997C90.1697 12.6364 90.131 12.544 90.0505 12.4492C90.0368 12.1767 90.0199 11.9034 90.0011 11.6296C89.9697 11.1736 89.933 10.716 89.8949 10.2548C89.876 10.03 89.7691 9.8098 89.5909 9.64519C89.4126 9.48006 89.1789 9.38696 88.9366 9.38637C88.6942 9.38313 88.4595 9.46494 88.2735 9.61321C88.0878 9.7615 87.9675 9.96726 87.9333 10.1871C87.878 10.5436 87.8213 10.9051 87.7685 11.2664C87.7628 11.2851 87.7573 11.304 87.752 11.3228C87.7129 11.464 87.6401 11.5927 87.5673 11.7216C87.5505 11.7513 87.5338 11.7813 87.5174 11.8114ZM112.005 20.6477C112.031 21.0127 112.253 21.7378 112.343 22.1817C112.345 22.1897 112.346 22.1977 112.348 22.2058C112.371 22.3089 112.387 22.4086 112.404 22.5261C112.444 22.8082 112.5 23.1858 112.622 24.0166C112.624 24.0434 112.625 24.0701 112.626 24.0968C112.62 24.1003 112.633 24.0442 112.628 24.0614C112.621 24.0874 112.503 24.2363 112.225 24.5129C112.205 24.5702 111.656 24.8633 111.174 25.0268C110.669 25.2099 110.119 25.3714 109.558 25.5239C108.433 25.8273 107.266 26.0954 106.094 26.358C106.06 26.3635 106.026 26.369 105.991 26.3747C105.681 26.4245 105.343 26.4778 105.01 26.5344C104.633 26.5986 104.27 26.6542 103.996 26.7094C103.358 26.8372 102.917 26.9124 102.554 26.9728C101.508 27.0668 100.447 27.0829 99.3872 27.0251C98.3391 26.9686 97.303 26.8164 96.2984 26.5437C95.6681 26.3732 95.0497 26.1552 94.4458 25.8945C93.8894 25.6546 93.3438 25.3795 92.8017 25.0817C92.6423 24.9815 92.4876 24.8806 92.3386 24.7813C92.2014 24.6901 92.0717 24.6016 91.9449 24.5143C91.5746 24.2593 91.2505 24.0273 90.9749 23.8474C90.3112 23.4155 89.5358 22.9631 88.9683 22.6112C88.8751 22.5536 88.7888 22.4999 88.7076 22.4484C88.2824 22.1325 87.8638 21.8069 87.4551 21.4738C87.4216 21.4604 87.3866 21.4463 87.3517 21.4326C86.9163 21.2597 86.4752 20.9164 85.8163 20.3477C85.5749 20.1384 85.3016 19.8952 84.9971 19.617C84.9389 19.5637 84.88 19.5098 84.8204 19.4553C84.577 19.2324 84.4113 19.1418 84.2845 19.0762C84.2472 19.0569 84.2104 19.0368 84.1754 19.0153C84.0544 18.9406 83.9815 18.8199 83.89 18.6701C83.7729 18.4771 83.6368 18.2482 83.3609 18.038C82.4806 17.3616 82.2793 16.8991 82.1328 16.564C82.0885 16.4625 82.0554 16.3782 82.0067 16.29C81.8555 16.0148 81.5757 15.6851 81.3608 15.4375C81.1863 15.243 80.9924 14.7658 80.9555 14.4306C80.939 14.3025 80.8983 14.1481 80.8785 13.9673C80.8771 13.9554 80.8759 13.9435 80.8748 13.9316C80.8906 14.068 80.8253 14.1711 80.838 14.1549C80.8463 14.1472 80.9101 14.0884 81.0027 14.0315C81.1481 13.9404 81.3168 13.8502 81.4701 13.7683L81.3766 13.8209C81.6652 13.7218 81.9489 13.6676 82.1669 13.6272C82.2557 13.6112 82.3421 13.5966 82.4268 13.5837C82.6974 13.542 83.0425 13.4911 83.398 13.4488C83.8225 13.3979 84.2627 13.3584 84.6003 13.3444C84.6079 13.3431 84.6155 13.3419 84.6232 13.3406L84.5733 13.3459C85.4102 13.2441 86.2581 13.1883 87.1171 13.1732C87.5619 13.1649 87.9946 13.077 88.3259 12.9156C88.6559 12.754 88.8567 12.5319 88.8767 12.2855C88.8959 12.0394 88.7316 11.7862 88.4127 11.5821C88.093 11.3781 87.6439 11.243 87.1682 11.2111C86.2515 11.1495 85.3215 11.1309 84.3901 11.1794C84.3816 11.1806 84.356 11.1824 84.3476 11.1839C84.307 11.1878 84.2669 11.1916 84.227 11.1955C83.0562 11.3298 81.9452 11.4116 80.6111 11.949C80.5707 11.967 80.5284 11.9868 80.4873 12.007C80.4661 12.0188 80.402 12.052 80.3823 12.0661C80.1637 12.2076 79.928 12.3558 79.6565 12.5891C79.5211 12.7089 79.3719 12.8484 79.2178 13.0778C79.0681 13.2977 78.8992 13.6857 78.9458 14.118C78.9815 14.473 79.0706 14.8252 79.1824 15.1348C79.217 15.2311 79.2548 15.3267 79.2925 15.4158C79.5448 16.1865 79.9161 16.8351 80.1939 17.2617C80.4271 17.6155 80.6402 17.8315 80.8243 18.0156C80.948 18.138 81.0654 18.2523 81.1615 18.3696C81.2138 18.4332 81.2898 18.5276 81.3745 18.6311C81.7308 19.0692 82.3572 19.7812 83.0144 20.3389C83.2358 20.5274 83.4974 20.729 83.7659 20.9288C83.8435 20.9863 83.9254 21.0467 84.0026 21.1023C84.499 21.4618 84.9696 21.7723 85.1745 21.9687C85.5349 22.3151 86.0001 22.6451 86.4157 22.9267C86.8122 23.1959 87.1631 23.4223 87.3331 23.5943C87.5357 23.7994 87.7456 23.9225 88.06 24.1015C88.2769 24.2245 88.5454 24.3754 88.8994 24.5935C89.3085 24.845 89.6143 24.9944 89.8751 25.1203C90.2426 25.297 90.5189 25.4261 90.8833 25.703C91.1055 25.8714 91.3382 26.0347 91.5669 26.1779C91.7542 26.2954 91.9387 26.3993 92.1099 26.4803C92.2822 26.5617 92.4754 26.6652 92.6781 26.7701C92.9467 26.9092 93.234 27.0509 93.5101 27.1511C93.7374 27.2336 93.9405 27.2685 94.119 27.2967C94.1747 27.3054 94.2287 27.3139 94.2799 27.3226C94.4568 27.3948 94.6361 27.465 94.8152 27.5321C94.8417 27.55 94.8696 27.5692 94.8989 27.5891C95.0446 27.6884 95.2276 27.8095 95.4701 27.9146C95.8545 28.0807 96.2167 28.1523 96.5972 28.2147C96.8934 28.2629 97.2017 28.3056 97.5501 28.3774C97.7894 28.4266 98.0559 28.4894 98.3262 28.5459C98.6522 28.6145 98.9761 28.6726 99.238 28.6937C99.2952 28.6983 99.3494 28.7012 99.3999 28.7021C99.5032 28.7039 99.5947 28.6808 99.6841 28.6572C99.6845 28.6571 99.6849 28.6569 99.6853 28.6568C99.6914 28.6552 99.6975 28.6536 99.7036 28.652C100.37 28.7231 101.042 28.7714 101.716 28.7934C101.775 28.8007 101.833 28.8077 101.892 28.8144C102.179 28.8472 102.459 28.873 102.643 28.9152C102.843 28.9614 103.344 28.9669 103.873 28.9475C104.219 28.9354 104.578 28.9133 104.874 28.9006C105.046 28.8933 105.203 28.8369 105.363 28.7771C105.374 28.7729 105.385 28.7687 105.397 28.7645C105.529 28.7135 105.664 28.664 105.817 28.6442C105.901 28.6334 105.993 28.6304 106.089 28.6272C106.174 28.6245 106.267 28.6211 106.36 28.6124C106.447 28.6043 106.637 28.5531 106.878 28.4873C107.029 28.4463 107.197 28.4001 107.378 28.3537C107.861 28.2829 108.345 28.2078 108.831 28.1251C108.936 28.1311 109.031 28.1473 109.11 28.1768C109.167 28.1981 109.217 28.2271 109.269 28.2567C109.338 28.2971 109.413 28.3381 109.507 28.3631C109.582 28.3824 109.661 28.3791 109.712 28.3529C109.735 28.3408 109.751 28.3241 109.766 28.309C109.783 28.2917 109.798 28.2763 109.819 28.2718C109.835 28.2686 109.853 28.274 109.875 28.2806C109.911 28.2909 109.955 28.3046 110.019 28.2906C110.254 28.2394 110.516 28.1686 110.777 28.0935C111.067 28.0103 111.352 27.9228 111.585 27.86C111.848 27.7889 112.207 27.6397 112.586 27.453C112.848 27.3235 113.117 27.1758 113.367 27.0249C113.606 26.8783 113.886 26.7281 114.192 26.4476C114.195 26.4452 114.198 26.4427 114.201 26.4402C114.369 26.3027 114.626 26.0847 114.804 25.7977C114.84 25.74 114.861 25.6476 114.882 25.5274C114.897 25.4422 114.912 25.3424 114.93 25.2295C115.121 24.865 115.227 24.3849 115.197 23.961C115.195 23.9256 115.193 23.8903 115.19 23.8549C115.195 23.8451 115.2 23.8349 115.204 23.8246C115.204 23.8245 115.204 23.8243 115.205 23.8242C115.311 23.5942 115.455 23.2712 115.316 22.8396C115.28 22.7298 115.227 22.6646 115.18 22.6053C115.133 22.5473 115.091 22.4963 115.073 22.4157C115.054 22.3242 115.065 22.2123 115.075 22.0887C115.09 21.9156 115.102 21.7187 115.03 21.5343C115.025 21.5216 115.02 21.5081 115.014 21.494C114.962 21.3613 114.882 21.1618 114.755 20.9767C114.596 20.3772 114.388 19.7692 114.057 19.1693C113.806 18.7197 113.478 18.2693 113.029 17.8983C112.583 17.5393 112.12 17.2325 111.641 16.9581C111.215 16.7147 110.745 16.5854 110.349 16.6005C109.959 16.6133 109.638 16.7789 109.628 17.0303C109.597 17.2695 109.604 17.5053 109.788 17.7931C109.963 18.0763 110.249 18.3638 110.577 18.6074C110.946 18.8815 111.296 19.1798 111.603 19.4923C111.689 19.5864 111.77 19.6988 111.846 19.829C111.857 19.8528 111.867 19.8769 111.877 19.9011C111.955 20.0824 111.982 20.2887 111.996 20.5001C111.999 20.5489 112.002 20.598 112.005 20.6477Z" fill="#0016DE"/>
<path d="M12.348 18.94C12.348 19.78 12.1987 20.4427 11.9 20.928C11.6013 21.3947 11.1627 21.8333 10.584 22.244C10.4347 22.3373 10.2293 22.4493 9.968 22.58C9.70667 22.7107 9.41733 22.832 9.1 22.944C8.78267 23.056 8.44667 23.1493 8.092 23.224C7.73733 23.2987 7.41067 23.336 7.112 23.336C6.272 23.336 5.63733 23.2427 5.208 23.056C4.77867 22.888 4.564 22.6827 4.564 22.44C4.564 22.1787 4.63867 21.964 4.788 21.796C4.93733 21.628 5.068 21.5347 5.18 21.516L5.488 21.74C5.58133 21.8333 5.712 21.936 5.88 22.048C6.048 22.1413 6.31867 22.188 6.692 22.188C7.04667 22.188 7.476 22.132 7.98 22.02C8.484 21.8893 8.96 21.7027 9.408 21.46C9.87467 21.1987 10.2667 20.8813 10.584 20.508C10.92 20.1347 11.088 19.7053 11.088 19.22C11.088 18.7907 10.7613 18.3987 10.108 18.044C9.47333 17.6707 8.46533 17.4187 7.084 17.288C6.37467 17.232 5.67467 17.148 4.984 17.036C4.29333 16.9053 3.668 16.7373 3.108 16.532C2.56667 16.308 2.128 16.0373 1.792 15.72C1.456 15.384 1.288 14.9733 1.288 14.488C1.288 14.0213 1.41867 13.5733 1.68 13.144C1.94133 12.7147 2.25867 12.3227 2.632 11.968C3.024 11.5947 3.42533 11.268 3.836 10.988C4.24667 10.708 4.592 10.4747 4.872 10.288C5.096 10.1573 5.404 9.98933 5.796 9.784C6.20667 9.56 6.636 9.35467 7.084 9.168C7.55067 8.96267 8.008 8.79467 8.456 8.664C8.92267 8.51467 9.31467 8.44 9.632 8.44C10.0053 8.44 10.2573 8.54267 10.388 8.748C10.5187 8.95333 10.584 9.24267 10.584 9.616C10.584 9.93333 10.5467 10.2693 10.472 10.624C10.3973 10.9787 10.3133 11.324 10.22 11.66C10.1267 11.996 10.0333 12.2947 9.94 12.556C9.86533 12.7987 9.80933 12.9573 9.772 13.032C9.69733 13.2 9.61333 13.312 9.52 13.368C9.42667 13.424 9.36133 13.452 9.324 13.452C9.24933 13.452 9.212 13.4053 9.212 13.312C9.212 13.256 9.22133 13.1533 9.24 13.004C9.27733 12.836 9.31467 12.64 9.352 12.416C9.408 12.192 9.44533 11.9493 9.464 11.688C9.50133 11.4267 9.52 11.1653 9.52 10.904C9.52 10.4933 9.50133 10.1947 9.464 10.008C9.42667 9.82133 9.27733 9.728 9.016 9.728C8.75467 9.728 8.4 9.80267 7.952 9.952C7.504 10.0827 7.04667 10.2507 6.58 10.456C6.076 10.68 5.58133 10.9693 5.096 11.324C4.62933 11.6787 4.20933 12.0427 3.836 12.416C3.46267 12.7893 3.15467 13.1533 2.912 13.508C2.688 13.844 2.576 14.1147 2.576 14.32C2.576 14.544 2.72533 14.7587 3.024 14.964C3.34133 15.1507 3.73333 15.3187 4.2 15.468C4.68533 15.6173 5.21733 15.748 5.796 15.86C6.37467 15.972 6.944 16.056 7.504 16.112C7.97067 16.168 8.484 16.2427 9.044 16.336C9.604 16.4293 10.1267 16.5787 10.612 16.784C11.0973 16.9893 11.508 17.2693 11.844 17.624C12.18 17.96 12.348 18.3987 12.348 18.94ZM9.212 4.968C9.212 5.11733 9.1 5.332 8.876 5.612C8.652 5.892 8.38133 6.18133 8.064 6.48C7.76533 6.77867 7.448 7.05867 7.112 7.32C6.79467 7.56267 6.54267 7.73067 6.356 7.824C6.20667 7.89867 6.076 7.94533 5.964 7.964C5.852 7.98267 5.75867 7.992 5.684 7.992C5.53467 7.992 5.348 7.908 5.124 7.74C4.9 7.572 4.788 7.41333 4.788 7.264C4.788 7.22667 4.872 7.18 5.04 7.124C5.208 7.04933 5.39467 6.956 5.6 6.844C5.78667 6.732 6.02933 6.55467 6.328 6.312C6.64533 6.05067 6.95333 5.79867 7.252 5.556C7.56933 5.29467 7.84933 5.07067 8.092 4.884C8.35333 4.69733 8.53067 4.604 8.624 4.604C8.75467 4.604 8.88533 4.64133 9.016 4.716C9.14667 4.79067 9.212 4.87467 9.212 4.968ZM17.6135 22.188C17.6135 22.3373 17.5575 22.4493 17.4455 22.524C17.3335 22.5987 17.2029 22.636 17.0535 22.636C16.8855 22.636 16.7082 22.4773 16.5215 22.16C16.3535 21.8427 16.1855 21.4413 16.0175 20.956C15.8495 20.4707 15.6909 19.948 15.5415 19.388C15.3922 18.8093 15.2615 18.2773 15.1495 17.792C15.0375 17.288 14.9442 16.868 14.8695 16.532C14.8135 16.196 14.7855 16.0093 14.7855 15.972C14.7855 15.8973 14.7482 15.7013 14.6735 15.384C14.6175 15.0667 14.5335 14.572 14.4215 13.9C14.3282 13.228 14.2162 12.36 14.0855 11.296C13.9735 10.2133 13.8522 8.87867 13.7215 7.292C13.7215 7.124 13.7495 6.90933 13.8055 6.648C13.8615 6.38667 13.9922 6.256 14.1975 6.256C14.4589 6.256 14.6549 6.43333 14.7855 6.788C14.9349 7.14267 15.0469 7.58133 15.1215 8.104C15.2149 8.62667 15.2802 9.17733 15.3175 9.756C15.3549 10.316 15.4015 10.8107 15.4575 11.24C15.5322 11.8373 15.5975 12.3787 15.6535 12.864C15.7282 13.3493 15.7935 13.8347 15.8495 14.32C15.9242 14.7867 16.0082 15.2813 16.1015 15.804C16.2135 16.3267 16.3442 16.9053 16.4935 17.54L17.6135 22.188ZM33.0958 17.176C33.0958 17.512 32.9371 17.932 32.6198 18.436C32.3211 18.9213 31.9104 19.3973 31.3878 19.864C30.8651 20.3307 30.2584 20.732 29.5678 21.068C28.8771 21.3853 28.1584 21.544 27.4118 21.544C27.0758 21.544 26.7211 21.488 26.3478 21.376C25.9744 21.264 25.6104 21.1053 25.2558 20.9C24.9011 20.676 24.5838 20.4147 24.3038 20.116C24.0238 19.7987 23.8184 19.444 23.6878 19.052C23.5758 19.164 23.4358 19.3507 23.2678 19.612C23.1184 19.8733 22.9504 20.144 22.7638 20.424C22.5771 20.6853 22.3718 20.9187 22.1478 21.124C21.9238 21.3107 21.6904 21.404 21.4478 21.404C21.2051 21.404 20.9998 21.2827 20.8318 21.04C20.6824 20.7787 20.5611 20.4987 20.4678 20.2C20.3744 19.8827 20.3091 19.584 20.2718 19.304C20.2344 19.024 20.2158 18.8653 20.2158 18.828C20.2158 18.604 20.2811 18.184 20.4118 17.568C20.5424 16.9333 20.7384 16.28 20.9998 15.608C21.2611 14.936 21.5878 14.3387 21.9798 13.816C22.3904 13.2933 22.8664 13.032 23.4078 13.032C23.6131 13.032 23.7438 13.1253 23.7998 13.312C23.8744 13.48 23.9118 13.648 23.9118 13.816V14.656C24.0051 14.7307 24.0984 14.7867 24.1918 14.824C24.3038 14.8427 24.3971 14.88 24.4718 14.936C24.5651 14.9733 24.6304 15.0387 24.6678 15.132C24.7238 15.2253 24.7518 15.3747 24.7518 15.58C24.7518 15.7107 24.7424 15.832 24.7238 15.944C24.7051 16.0373 24.6958 16.1307 24.6958 16.224C24.6958 16.7093 24.7331 17.1853 24.8078 17.652C24.8824 18.1187 25.0318 18.5387 25.2558 18.912C25.4798 19.2667 25.7878 19.5653 26.1798 19.808C26.5718 20.032 27.0944 20.144 27.7478 20.144C28.5691 20.144 29.2598 19.976 29.8198 19.64C30.3984 19.2853 30.8744 18.9027 31.2478 18.492C31.6398 18.0627 31.9478 17.68 32.1718 17.344C32.3958 16.9893 32.5824 16.812 32.7318 16.812C32.9744 16.812 33.0958 16.9333 33.0958 17.176ZM23.2678 15.944C23.2678 15.8693 23.2491 15.804 23.2118 15.748C23.1744 15.6733 23.1558 15.608 23.1558 15.552C23.1558 15.4773 23.1744 15.412 23.2118 15.356C23.2491 15.3 23.2678 15.2253 23.2678 15.132C23.2678 15.076 23.2491 15.0387 23.2118 15.02C23.1744 14.9827 23.1558 14.9453 23.1558 14.908C22.9878 14.9453 22.8104 15.104 22.6238 15.384C22.4558 15.664 22.2878 15.9907 22.1198 16.364C21.9704 16.7373 21.8491 17.12 21.7558 17.512C21.6624 17.8853 21.6158 18.1933 21.6158 18.436C21.6158 18.5667 21.6531 18.7813 21.7278 19.08C21.8024 19.3787 21.8864 19.5747 21.9798 19.668C22.2971 19.0147 22.5864 18.38 22.8478 17.764C23.1278 17.148 23.2678 16.5413 23.2678 15.944ZM41.3643 18.492C41.3643 18.5853 41.3176 18.6787 41.2243 18.772C41.1496 18.8467 41.103 18.9307 41.0843 19.024C41.0843 19.2293 41.1216 19.4253 41.1963 19.612C41.2896 19.7987 41.3363 20.0227 41.3363 20.284C41.3363 20.5267 41.2616 20.648 41.1123 20.648C40.9256 20.648 40.7856 20.676 40.6923 20.732C40.6176 20.7693 40.4776 20.8067 40.2723 20.844C40.1603 20.844 40.039 20.7413 39.9083 20.536C39.8336 20.4427 39.7683 20.3307 39.7123 20.2C39.7123 20.1813 39.6563 20.2187 39.5443 20.312C39.451 20.4053 39.283 20.5173 39.0403 20.648C38.8163 20.76 38.499 20.872 38.0883 20.984C37.6963 21.0773 37.1923 21.124 36.5763 21.124C36.0536 21.124 35.5963 21.012 35.2043 20.788C34.8123 20.5453 34.4856 20.2373 34.2243 19.864C33.9816 19.4907 33.795 19.0707 33.6643 18.604C33.5523 18.1187 33.4963 17.6333 33.4963 17.148C33.4963 16.7 33.543 16.28 33.6363 15.888C33.7483 15.4773 33.8976 15.1227 34.0843 14.824C34.271 14.5067 34.5043 14.2547 34.7843 14.068C35.0643 13.8813 35.391 13.788 35.7643 13.788C36.119 13.788 36.4736 13.9 36.8283 14.124C37.183 14.348 37.5003 14.5907 37.7803 14.852C38.0603 15.1133 38.2843 15.356 38.4523 15.58C38.639 15.7853 38.7323 15.888 38.7323 15.888C38.471 14.432 38.2376 13.116 38.0323 11.94C37.939 11.436 37.8456 10.9413 37.7523 10.456C37.6776 9.952 37.603 9.504 37.5283 9.112C37.4536 8.72 37.3883 8.39333 37.3323 8.132C37.295 7.852 37.2763 7.684 37.2763 7.628C37.2576 7.516 37.239 7.32 37.2203 7.04C37.2016 6.74133 37.183 6.43333 37.1643 6.116C37.1456 5.79867 37.127 5.50933 37.1083 5.248C37.0896 4.98667 37.071 4.81867 37.0523 4.744C36.9963 4.55733 36.9216 4.324 36.8283 4.044C36.7536 3.764 36.7163 3.60533 36.7163 3.568C36.7163 3.47467 36.763 3.36267 36.8563 3.232C36.9496 3.08267 37.071 3.008 37.2203 3.008C37.3323 3.008 37.435 3.01733 37.5283 3.036C37.6216 3.05467 37.7056 3.11067 37.7803 3.204C37.855 3.29733 37.9203 3.44667 37.9763 3.652C38.051 3.83867 38.1163 4.10933 38.1723 4.464C38.191 4.65067 38.247 5.00533 38.3403 5.528C38.4336 6.05067 38.527 6.62 38.6203 7.236C38.7136 7.852 38.807 8.44 38.9003 9C38.9936 9.56 39.059 9.97067 39.0963 10.232C39.1896 10.9413 39.311 11.716 39.4603 12.556C39.6283 13.3773 39.7963 14.1707 39.9643 14.936C40.1323 15.7013 40.3003 16.3827 40.4683 16.98C40.6363 17.5587 40.7856 17.9507 40.9163 18.156C40.9536 18.2307 41.0283 18.2867 41.1403 18.324C41.2523 18.3427 41.327 18.3987 41.3643 18.492ZM39.2923 19.052C39.2736 18.996 39.1523 18.7627 38.9283 18.352C38.723 17.9227 38.4523 17.4653 38.1163 16.98C37.799 16.476 37.435 16.028 37.0243 15.636C36.6323 15.244 36.2496 15.048 35.8763 15.048C35.559 15.048 35.2976 15.2907 35.0923 15.776C34.9056 16.2613 34.8123 16.8213 34.8123 17.456C34.8123 18.1653 35.0176 18.7347 35.4283 19.164C35.8576 19.5933 36.3336 19.808 36.8563 19.808C37.3043 19.808 37.771 19.7333 38.2563 19.584C38.7416 19.4347 39.087 19.2573 39.2923 19.052ZM56.8302 17.176C56.8302 17.512 56.6715 17.932 56.3542 18.436C56.0555 18.9213 55.6448 19.3973 55.1222 19.864C54.5995 20.3307 53.9928 20.732 53.3022 21.068C52.6115 21.3853 51.8928 21.544 51.1462 21.544C50.8102 21.544 50.4555 21.488 50.0822 21.376C49.7088 21.264 49.3448 21.1053 48.9902 20.9C48.6355 20.676 48.3182 20.4147 48.0382 20.116C47.7582 19.7987 47.5528 19.444 47.4222 19.052C47.3102 19.164 47.1702 19.3507 47.0022 19.612C46.8528 19.8733 46.6848 20.144 46.4982 20.424C46.3115 20.6853 46.1062 20.9187 45.8822 21.124C45.6582 21.3107 45.4248 21.404 45.1822 21.404C44.9395 21.404 44.7342 21.2827 44.5662 21.04C44.4168 20.7787 44.2955 20.4987 44.2022 20.2C44.1088 19.8827 44.0435 19.584 44.0062 19.304C43.9688 19.024 43.9502 18.8653 43.9502 18.828C43.9502 18.604 44.0155 18.184 44.1462 17.568C44.2768 16.9333 44.4728 16.28 44.7342 15.608C44.9955 14.936 45.3222 14.3387 45.7142 13.816C46.1248 13.2933 46.6008 13.032 47.1422 13.032C47.3475 13.032 47.4782 13.1253 47.5342 13.312C47.6088 13.48 47.6462 13.648 47.6462 13.816V14.656C47.7395 14.7307 47.8328 14.7867 47.9262 14.824C48.0382 14.8427 48.1315 14.88 48.2062 14.936C48.2995 14.9733 48.3648 15.0387 48.4022 15.132C48.4582 15.2253 48.4862 15.3747 48.4862 15.58C48.4862 15.7107 48.4768 15.832 48.4582 15.944C48.4395 16.0373 48.4302 16.1307 48.4302 16.224C48.4302 16.7093 48.4675 17.1853 48.5422 17.652C48.6168 18.1187 48.7662 18.5387 48.9902 18.912C49.2142 19.2667 49.5222 19.5653 49.9142 19.808C50.3062 20.032 50.8288 20.144 51.4822 20.144C52.3035 20.144 52.9942 19.976 53.5542 19.64C54.1328 19.2853 54.6088 18.9027 54.9822 18.492C55.3742 18.0627 55.6822 17.68 55.9062 17.344C56.1302 16.9893 56.3168 16.812 56.4662 16.812C56.7088 16.812 56.8302 16.9333 56.8302 17.176ZM47.0022 15.944C47.0022 15.8693 46.9835 15.804 46.9462 15.748C46.9088 15.6733 46.8902 15.608 46.8902 15.552C46.8902 15.4773 46.9088 15.412 46.9462 15.356C46.9835 15.3 47.0022 15.2253 47.0022 15.132C47.0022 15.076 46.9835 15.0387 46.9462 15.02C46.9088 14.9827 46.8902 14.9453 46.8902 14.908C46.7222 14.9453 46.5448 15.104 46.3582 15.384C46.1902 15.664 46.0222 15.9907 45.8542 16.364C45.7048 16.7373 45.5835 17.12 45.4902 17.512C45.3968 17.8853 45.3502 18.1933 45.3502 18.436C45.3502 18.5667 45.3875 18.7813 45.4622 19.08C45.5368 19.3787 45.6208 19.5747 45.7142 19.668C46.0315 19.0147 46.3208 18.38 46.5822 17.764C46.8622 17.148 47.0022 16.5413 47.0022 15.944ZM69.6067 20.368C69.6067 20.5173 69.56 20.648 69.4667 20.76C69.3734 20.872 69.2614 20.9653 69.1307 21.04C69 21.096 68.86 21.1427 68.7107 21.18C68.58 21.2173 68.468 21.236 68.3747 21.236C67.9827 21.236 67.6467 21.0307 67.3667 20.62C67.0867 20.1907 66.8534 19.724 66.6667 19.22C66.48 18.6973 66.34 18.212 66.2467 17.764C66.172 17.316 66.1347 17.0733 66.1347 17.036C66.0227 17.2413 65.9014 17.5867 65.7707 18.072C65.6587 18.5573 65.5187 19.052 65.3507 19.556C65.1827 20.0413 64.968 20.48 64.7067 20.872C64.464 21.2453 64.1467 21.432 63.7547 21.432C63.568 21.432 63.3907 21.32 63.2227 21.096C63.0547 20.872 62.896 20.5827 62.7467 20.228C62.5974 19.8733 62.448 19.472 62.2987 19.024C62.168 18.576 62.028 18.1373 61.8787 17.708C61.748 17.2787 61.6174 16.8773 61.4867 16.504C61.356 16.112 61.2254 15.804 61.0947 15.58C60.9827 15.86 60.88 16.2427 60.7867 16.728C60.712 17.2133 60.6467 17.7267 60.5907 18.268C60.5347 18.7907 60.488 19.3133 60.4507 19.836C60.4134 20.3587 60.3947 20.816 60.3947 21.208C60.3947 21.4693 60.32 21.656 60.1707 21.768C60.04 21.88 59.9 21.936 59.7507 21.936C59.5454 21.936 59.34 21.8053 59.1347 21.544C58.9294 21.264 58.724 20.9093 58.5187 20.48C58.3134 20.0507 58.1174 19.5653 57.9307 19.024C57.7627 18.4827 57.604 17.9413 57.4547 17.4C57.324 16.8587 57.2214 16.3453 57.1467 15.86C57.072 15.356 57.0347 14.936 57.0347 14.6C57.0347 14.3573 57.044 14.1333 57.0627 13.928C57.0814 13.76 57.0907 13.6013 57.0907 13.452C57.1094 13.3027 57.1187 13.2187 57.1187 13.2C57.1187 13.144 57.1 13.1067 57.0627 13.088C57.044 13.0693 57.0347 13.0227 57.0347 12.948C57.0347 12.892 57.1 12.808 57.2307 12.696C57.38 12.5653 57.5294 12.5 57.6787 12.5C57.94 12.5 58.108 12.556 58.1827 12.668C58.276 12.78 58.3227 12.9107 58.3227 13.06C58.3227 13.116 58.3134 13.2 58.2947 13.312C58.2947 13.424 58.2947 13.676 58.2947 14.068C58.2947 14.3293 58.3414 14.7213 58.4347 15.244C58.528 15.7667 58.64 16.2987 58.7707 16.84C58.9014 17.3813 59.032 17.8853 59.1627 18.352C59.312 18.8 59.4334 19.08 59.5267 19.192C59.564 19.1173 59.5827 19.0333 59.5827 18.94C59.6014 18.828 59.62 18.744 59.6387 18.688L59.9467 16.392C60.0214 15.8133 60.1707 15.2067 60.3947 14.572C60.6374 13.9187 60.8894 13.4147 61.1507 13.06C61.244 12.9107 61.3467 12.836 61.4587 12.836C61.5707 12.836 61.6734 12.92 61.7667 13.088C62.084 13.6107 62.3174 14.1333 62.4667 14.656C62.6347 15.16 62.7747 15.664 62.8867 16.168C63.0174 16.6533 63.1574 17.148 63.3067 17.652C63.4747 18.1373 63.7267 18.632 64.0627 19.136C64.212 18.8933 64.3987 18.5013 64.6227 17.96C64.8467 17.4 65.0707 16.84 65.2947 16.28C65.5374 15.72 65.7614 15.2347 65.9667 14.824C66.172 14.3947 66.3307 14.18 66.4427 14.18C66.4987 14.18 66.592 14.1893 66.7227 14.208C66.8534 14.2267 66.9467 14.236 67.0027 14.236C67.1707 14.236 67.3107 14.432 67.4227 14.824C67.5347 15.1973 67.628 15.6453 67.7027 16.168C67.796 16.672 67.88 17.1853 67.9547 17.708C68.048 18.212 68.1507 18.5947 68.2627 18.856C68.3374 19.0427 68.4494 19.22 68.5987 19.388C68.748 19.556 68.8974 19.7147 69.0467 19.864C69.2334 20.032 69.42 20.2 69.6067 20.368ZM73.5103 10.12C73.5103 10.1573 73.4449 10.232 73.3143 10.344C73.1836 10.456 73.0249 10.5773 72.8383 10.708C72.6703 10.82 72.4929 10.9227 72.3063 11.016C72.1196 11.1093 71.9703 11.156 71.8583 11.156C71.7836 11.156 71.6809 11.156 71.5503 11.156C71.4383 11.1373 71.3169 11.1 71.1863 11.044C71.0743 10.988 70.9716 10.9133 70.8783 10.82C70.7849 10.708 70.7383 10.568 70.7383 10.4C70.7383 10.1387 70.8316 9.896 71.0183 9.672C71.2049 9.42933 71.4476 9.308 71.7463 9.308C71.8023 9.308 71.9236 9.336 72.1103 9.392C72.3156 9.42933 72.5209 9.48533 72.7263 9.56C72.9316 9.63467 73.1089 9.71867 73.2583 9.812C73.4263 9.90533 73.5103 10.008 73.5103 10.12ZM74.4343 20.592C74.4343 20.7227 74.3316 20.8347 74.1263 20.928C73.9396 21.0213 73.7996 21.068 73.7063 21.068C73.5196 21.068 73.3516 20.9467 73.2023 20.704C73.0529 20.4613 72.9223 20.1813 72.8103 19.864C72.6983 19.5467 72.6049 19.248 72.5303 18.968C72.4556 18.6693 72.3996 18.464 72.3623 18.352C72.3063 18.1653 72.2316 17.9413 72.1383 17.68C72.0449 17.4187 71.9516 17.1667 71.8583 16.924C71.7836 16.6813 71.7183 16.4667 71.6623 16.28C71.6063 16.0933 71.5783 15.9907 71.5783 15.972C71.5783 15.7107 71.6249 15.468 71.7183 15.244C71.8303 15.02 71.9609 14.908 72.1103 14.908C72.2783 14.908 72.4556 15.0387 72.6423 15.3C72.8289 15.5613 73.0063 15.8973 73.1743 16.308C73.3609 16.7 73.5289 17.1387 73.6783 17.624C73.8276 18.0907 73.9583 18.5387 74.0703 18.968C74.1823 19.3787 74.2663 19.7427 74.3223 20.06C74.3969 20.3587 74.4343 20.536 74.4343 20.592Z" fill="#0016DE"/>
</svg>
