<svg width="313" height="27" viewBox="0 0 313 27" fill="none" xmlns="http://www.w3.org/2000/svg">
<path d="M12.6398 18.464C12.6398 19.424 12.4692 20.1813 12.1278 20.736C11.7865 21.2693 11.2852 21.7707 10.6238 22.24C10.4532 22.3467 10.2185 22.4747 9.91983 22.624C9.62117 22.7733 9.2905 22.912 8.92783 23.04C8.56517 23.168 8.18117 23.2747 7.77583 23.36C7.3705 23.4453 6.99717 23.488 6.65583 23.488C5.69583 23.488 4.9705 23.3813 4.47983 23.168C3.98917 22.976 3.74383 22.7413 3.74383 22.464C3.74383 22.1653 3.82917 21.92 3.99983 21.728C4.1705 21.536 4.31983 21.4293 4.44783 21.408L4.79983 21.664C4.9065 21.7707 5.05583 21.888 5.24783 22.016C5.43983 22.1227 5.74917 22.176 6.17583 22.176C6.58117 22.176 7.07183 22.112 7.64783 21.984C8.22383 21.8347 8.76783 21.6213 9.27983 21.344C9.81317 21.0453 10.2612 20.6827 10.6238 20.256C11.0078 19.8293 11.1998 19.3387 11.1998 18.784C11.1998 18.2933 10.8265 17.8453 10.0798 17.44C9.3545 17.0133 8.2025 16.7253 6.62383 16.576C5.81317 16.512 5.01317 16.416 4.22383 16.288C3.4345 16.1387 2.71983 15.9467 2.07983 15.712C1.46117 15.456 0.959832 15.1467 0.575832 14.784C0.191832 14.4 -0.000167847 13.9307 -0.000167847 13.376C-0.000167847 12.8427 0.149165 12.3307 0.447832 11.84C0.746499 11.3493 1.10917 10.9013 1.53583 10.496C1.98383 10.0693 2.4425 9.696 2.91183 9.376C3.38117 9.056 3.77583 8.78934 4.09583 8.576C4.35183 8.42667 4.70383 8.23467 5.15183 8C5.62117 7.744 6.11183 7.50934 6.62383 7.296C7.15717 7.06134 7.67983 6.86934 8.19183 6.72C8.72517 6.54934 9.17317 6.464 9.53583 6.464C9.9625 6.464 10.2505 6.58134 10.3998 6.816C10.5492 7.05067 10.6238 7.38134 10.6238 7.808C10.6238 8.17067 10.5812 8.55467 10.4958 8.96C10.4105 9.36534 10.3145 9.76 10.2078 10.144C10.1012 10.528 9.9945 10.8693 9.88783 11.168C9.8025 11.4453 9.7385 11.6267 9.69583 11.712C9.6105 11.904 9.5145 12.032 9.40783 12.096C9.30117 12.16 9.2265 12.192 9.18383 12.192C9.0985 12.192 9.05583 12.1387 9.05583 12.032C9.05583 11.968 9.0665 11.8507 9.08783 11.68C9.1305 11.488 9.17317 11.264 9.21583 11.008C9.27983 10.752 9.3225 10.4747 9.34383 10.176C9.3865 9.87734 9.40783 9.57867 9.40783 9.28C9.40783 8.81067 9.3865 8.46934 9.34383 8.256C9.30117 8.04267 9.1305 7.936 8.83183 7.936C8.53317 7.936 8.12783 8.02134 7.61583 8.192C7.10383 8.34134 6.58117 8.53334 6.04783 8.768C5.47183 9.024 4.9065 9.35467 4.35183 9.76C3.8185 10.1653 3.3385 10.5813 2.91183 11.008C2.48517 11.4347 2.13317 11.8507 1.85583 12.256C1.59983 12.64 1.47183 12.9493 1.47183 13.184C1.47183 13.44 1.6425 13.6853 1.98383 13.92C2.3465 14.1333 2.7945 14.3253 3.32783 14.496C3.8825 14.6667 4.4905 14.816 5.15183 14.944C5.81317 15.072 6.46383 15.168 7.10383 15.232C7.63717 15.296 8.22383 15.3813 8.86383 15.488C9.50383 15.5947 10.1012 15.7653 10.6558 16C11.2105 16.2347 11.6798 16.5547 12.0638 16.96C12.4478 17.344 12.6398 17.8453 12.6398 18.464ZM9.05583 2.496C9.05583 2.66667 8.92783 2.912 8.67183 3.232C8.41583 3.552 8.1065 3.88267 7.74383 4.224C7.4025 4.56534 7.03983 4.88534 6.65583 5.184C6.29317 5.46134 6.00517 5.65334 5.79183 5.76C5.62117 5.84534 5.47183 5.89867 5.34383 5.92C5.21583 5.94134 5.10917 5.952 5.02383 5.952C4.85317 5.952 4.63983 5.856 4.38383 5.664C4.12783 5.472 3.99983 5.29067 3.99983 5.12C3.99983 5.07734 4.09583 5.024 4.28783 4.96C4.47983 4.87467 4.69317 4.768 4.92783 4.64C5.14117 4.512 5.4185 4.30934 5.75983 4.032C6.1225 3.73334 6.4745 3.44534 6.81583 3.168C7.1785 2.86934 7.4985 2.61334 7.77583 2.4C8.0745 2.18667 8.27717 2.08 8.38383 2.08C8.53317 2.08 8.6825 2.12267 8.83183 2.208C8.98117 2.29334 9.05583 2.38934 9.05583 2.496ZM18.6576 22.176C18.6576 22.3467 18.5936 22.4747 18.4656 22.56C18.3376 22.6453 18.1882 22.688 18.0176 22.688C17.8256 22.688 17.6229 22.5067 17.4096 22.144C17.2176 21.7813 17.0256 21.3227 16.8336 20.768C16.6416 20.2133 16.4602 19.616 16.2896 18.976C16.1189 18.3147 15.9696 17.7067 15.8416 17.152C15.7136 16.576 15.6069 16.096 15.5216 15.712C15.4576 15.328 15.4256 15.1147 15.4256 15.072C15.4256 14.9867 15.3829 14.7627 15.2976 14.4C15.2336 14.0373 15.1376 13.472 15.0096 12.704C14.9029 11.936 14.7749 10.944 14.6256 9.728C14.4976 8.49067 14.3589 6.96534 14.2096 5.152C14.2096 4.96 14.2416 4.71467 14.3056 4.416C14.3696 4.11734 14.5189 3.968 14.7536 3.968C15.0522 3.968 15.2762 4.17067 15.4256 4.576C15.5962 4.98134 15.7242 5.48267 15.8096 6.08C15.9162 6.67734 15.9909 7.30667 16.0336 7.968C16.0762 8.608 16.1296 9.17334 16.1936 9.664C16.2789 10.3467 16.3536 10.9653 16.4176 11.52C16.5029 12.0747 16.5776 12.6293 16.6416 13.184C16.7269 13.7173 16.8229 14.2827 16.9296 14.88C17.0576 15.4773 17.2069 16.1387 17.3776 16.864L18.6576 22.176ZM36.3516 16.448C36.3516 16.832 36.1702 17.312 35.8076 17.888C35.4662 18.4427 34.9969 18.9867 34.3996 19.52C33.8022 20.0533 33.1089 20.512 32.3196 20.896C31.5302 21.2587 30.7089 21.44 29.8556 21.44C29.4716 21.44 29.0662 21.376 28.6396 21.248C28.2129 21.12 27.7969 20.9387 27.3916 20.704C26.9862 20.448 26.6236 20.1493 26.3036 19.808C25.9836 19.4453 25.7489 19.04 25.5996 18.592C25.4716 18.72 25.3116 18.9333 25.1196 19.232C24.9489 19.5307 24.7569 19.84 24.5436 20.16C24.3302 20.4587 24.0956 20.7253 23.8396 20.96C23.5836 21.1733 23.3169 21.28 23.0396 21.28C22.7622 21.28 22.5276 21.1413 22.3356 20.864C22.1649 20.5653 22.0262 20.2453 21.9196 19.904C21.8129 19.5413 21.7382 19.2 21.6956 18.88C21.6529 18.56 21.6316 18.3787 21.6316 18.336C21.6316 18.08 21.7062 17.6 21.8556 16.896C22.0049 16.1707 22.2289 15.424 22.5276 14.656C22.8262 13.888 23.1996 13.2053 23.6476 12.608C24.1169 12.0107 24.6609 11.712 25.2796 11.712C25.5142 11.712 25.6636 11.8187 25.7276 12.032C25.8129 12.224 25.8556 12.416 25.8556 12.608V13.568C25.9622 13.6533 26.0689 13.7173 26.1756 13.76C26.3036 13.7813 26.4102 13.824 26.4956 13.888C26.6022 13.9307 26.6769 14.0053 26.7196 14.112C26.7836 14.2187 26.8156 14.3893 26.8156 14.624C26.8156 14.7733 26.8049 14.912 26.7836 15.04C26.7622 15.1467 26.7516 15.2533 26.7516 15.36C26.7516 15.9147 26.7942 16.4587 26.8796 16.992C26.9649 17.5253 27.1356 18.0053 27.3916 18.432C27.6476 18.8373 27.9996 19.1787 28.4476 19.456C28.8956 19.712 29.4929 19.84 30.2396 19.84C31.1782 19.84 31.9676 19.648 32.6076 19.264C33.2689 18.8587 33.8129 18.4213 34.2396 17.952C34.6876 17.4613 35.0396 17.024 35.2956 16.64C35.5516 16.2347 35.7649 16.032 35.9356 16.032C36.2129 16.032 36.3516 16.1707 36.3516 16.448ZM25.1196 15.04C25.1196 14.9547 25.0982 14.88 25.0556 14.816C25.0129 14.7307 24.9916 14.656 24.9916 14.592C24.9916 14.5067 25.0129 14.432 25.0556 14.368C25.0982 14.304 25.1196 14.2187 25.1196 14.112C25.1196 14.048 25.0982 14.0053 25.0556 13.984C25.0129 13.9413 24.9916 13.8987 24.9916 13.856C24.7996 13.8987 24.5969 14.08 24.3836 14.4C24.1916 14.72 23.9996 15.0933 23.8076 15.52C23.6369 15.9467 23.4982 16.384 23.3916 16.832C23.2849 17.2587 23.2316 17.6107 23.2316 17.888C23.2316 18.0373 23.2742 18.2827 23.3596 18.624C23.4449 18.9653 23.5409 19.1893 23.6476 19.296C24.0102 18.5493 24.3409 17.824 24.6396 17.12C24.9596 16.416 25.1196 15.7227 25.1196 15.04ZM45.8013 17.952C45.8013 18.0587 45.748 18.1653 45.6413 18.272C45.556 18.3573 45.5027 18.4533 45.4813 18.56C45.4813 18.7947 45.524 19.0187 45.6093 19.232C45.716 19.4453 45.7693 19.7013 45.7693 20C45.7693 20.2773 45.684 20.416 45.5133 20.416C45.3 20.416 45.14 20.448 45.0333 20.512C44.948 20.5547 44.788 20.5973 44.5533 20.64C44.4253 20.64 44.2867 20.5227 44.1373 20.288C44.052 20.1813 43.9773 20.0533 43.9133 19.904C43.9133 19.8827 43.8493 19.9253 43.7213 20.032C43.6147 20.1387 43.4227 20.2667 43.1453 20.416C42.8893 20.544 42.5267 20.672 42.0573 20.8C41.6093 20.9067 41.0333 20.96 40.3293 20.96C39.732 20.96 39.2093 20.832 38.7613 20.576C38.3133 20.2987 37.94 19.9467 37.6413 19.52C37.364 19.0933 37.1507 18.6133 37.0013 18.08C36.8733 17.5253 36.8093 16.9707 36.8093 16.416C36.8093 15.904 36.8627 15.424 36.9693 14.976C37.0973 14.5067 37.268 14.1013 37.4813 13.76C37.6947 13.3973 37.9613 13.1093 38.2813 12.896C38.6013 12.6827 38.9747 12.576 39.4013 12.576C39.8067 12.576 40.212 12.704 40.6173 12.96C41.0227 13.216 41.3853 13.4933 41.7053 13.792C42.0253 14.0907 42.2813 14.368 42.4733 14.624C42.6867 14.8587 42.7933 14.976 42.7933 14.976C42.4947 13.312 42.228 11.808 41.9933 10.464C41.8867 9.888 41.78 9.32267 41.6733 8.768C41.588 8.192 41.5027 7.68 41.4173 7.232C41.332 6.784 41.2573 6.41067 41.1933 6.112C41.1507 5.792 41.1293 5.6 41.1293 5.536C41.108 5.408 41.0867 5.184 41.0653 4.864C41.044 4.52267 41.0227 4.17067 41.0013 3.808C40.98 3.44534 40.9587 3.11467 40.9373 2.816C40.916 2.51734 40.8947 2.32534 40.8733 2.24C40.8093 2.02667 40.724 1.76 40.6173 1.44C40.532 1.12 40.4893 0.93867 40.4893 0.896004C40.4893 0.789336 40.5427 0.661336 40.6493 0.512003C40.756 0.341336 40.8947 0.256002 41.0653 0.256002C41.1933 0.256002 41.3107 0.266669 41.4173 0.288002C41.524 0.309336 41.62 0.373337 41.7053 0.480003C41.7907 0.58667 41.8653 0.757336 41.9293 0.992002C42.0147 1.20534 42.0893 1.51467 42.1533 1.92C42.1747 2.13334 42.2387 2.53867 42.3453 3.136C42.452 3.73334 42.5587 4.384 42.6653 5.088C42.772 5.792 42.8787 6.464 42.9853 7.104C43.092 7.744 43.1667 8.21334 43.2093 8.512C43.316 9.32267 43.4547 10.208 43.6253 11.168C43.8173 12.1067 44.0093 13.0133 44.2013 13.888C44.3933 14.7627 44.5853 15.5413 44.7773 16.224C44.9693 16.8853 45.14 17.3333 45.2893 17.568C45.332 17.6533 45.4173 17.7173 45.5453 17.76C45.6733 17.7813 45.7587 17.8453 45.8013 17.952ZM43.4333 18.592C43.412 18.528 43.2733 18.2613 43.0173 17.792C42.7827 17.3013 42.4733 16.7787 42.0893 16.224C41.7267 15.648 41.3107 15.136 40.8413 14.688C40.3933 14.24 39.956 14.016 39.5293 14.016C39.1667 14.016 38.868 14.2933 38.6333 14.848C38.42 15.4027 38.3133 16.0427 38.3133 16.768C38.3133 17.5787 38.548 18.2293 39.0173 18.72C39.508 19.2107 40.052 19.456 40.6493 19.456C41.1613 19.456 41.6947 19.3707 42.2493 19.2C42.804 19.0293 43.1987 18.8267 43.4333 18.592ZM63.4766 16.448C63.4766 16.832 63.2952 17.312 62.9326 17.888C62.5912 18.4427 62.1219 18.9867 61.5246 19.52C60.9272 20.0533 60.2339 20.512 59.4446 20.896C58.6552 21.2587 57.8339 21.44 56.9806 21.44C56.5966 21.44 56.1912 21.376 55.7646 21.248C55.3379 21.12 54.9219 20.9387 54.5166 20.704C54.1112 20.448 53.7486 20.1493 53.4286 19.808C53.1086 19.4453 52.8739 19.04 52.7246 18.592C52.5966 18.72 52.4366 18.9333 52.2446 19.232C52.0739 19.5307 51.8819 19.84 51.6686 20.16C51.4552 20.4587 51.2206 20.7253 50.9646 20.96C50.7086 21.1733 50.4419 21.28 50.1646 21.28C49.8872 21.28 49.6526 21.1413 49.4606 20.864C49.2899 20.5653 49.1512 20.2453 49.0446 19.904C48.9379 19.5413 48.8632 19.2 48.8206 18.88C48.7779 18.56 48.7566 18.3787 48.7566 18.336C48.7566 18.08 48.8312 17.6 48.9806 16.896C49.1299 16.1707 49.3539 15.424 49.6526 14.656C49.9512 13.888 50.3246 13.2053 50.7726 12.608C51.2419 12.0107 51.7859 11.712 52.4046 11.712C52.6392 11.712 52.7886 11.8187 52.8526 12.032C52.9379 12.224 52.9806 12.416 52.9806 12.608V13.568C53.0872 13.6533 53.1939 13.7173 53.3006 13.76C53.4286 13.7813 53.5352 13.824 53.6206 13.888C53.7272 13.9307 53.8019 14.0053 53.8446 14.112C53.9086 14.2187 53.9406 14.3893 53.9406 14.624C53.9406 14.7733 53.9299 14.912 53.9086 15.04C53.8872 15.1467 53.8766 15.2533 53.8766 15.36C53.8766 15.9147 53.9192 16.4587 54.0046 16.992C54.0899 17.5253 54.2606 18.0053 54.5166 18.432C54.7726 18.8373 55.1246 19.1787 55.5726 19.456C56.0206 19.712 56.6179 19.84 57.3646 19.84C58.3032 19.84 59.0926 19.648 59.7326 19.264C60.3939 18.8587 60.9379 18.4213 61.3646 17.952C61.8126 17.4613 62.1646 17.024 62.4206 16.64C62.6766 16.2347 62.8899 16.032 63.0606 16.032C63.3379 16.032 63.4766 16.1707 63.4766 16.448ZM52.2446 15.04C52.2446 14.9547 52.2232 14.88 52.1806 14.816C52.1379 14.7307 52.1166 14.656 52.1166 14.592C52.1166 14.5067 52.1379 14.432 52.1806 14.368C52.2232 14.304 52.2446 14.2187 52.2446 14.112C52.2446 14.048 52.2232 14.0053 52.1806 13.984C52.1379 13.9413 52.1166 13.8987 52.1166 13.856C51.9246 13.8987 51.7219 14.08 51.5086 14.4C51.3166 14.72 51.1246 15.0933 50.9326 15.52C50.7619 15.9467 50.6232 16.384 50.5166 16.832C50.4099 17.2587 50.3566 17.6107 50.3566 17.888C50.3566 18.0373 50.3992 18.2827 50.4846 18.624C50.5699 18.9653 50.6659 19.1893 50.7726 19.296C51.1352 18.5493 51.4659 17.824 51.7646 17.12C52.0846 16.416 52.2446 15.7227 52.2446 15.04ZM78.0783 20.096C78.0783 20.2667 78.025 20.416 77.9183 20.544C77.8117 20.672 77.6837 20.7787 77.5343 20.864C77.385 20.928 77.225 20.9813 77.0543 21.024C76.905 21.0667 76.777 21.088 76.6703 21.088C76.2223 21.088 75.8383 20.8533 75.5183 20.384C75.1983 19.8933 74.9317 19.36 74.7183 18.784C74.505 18.1867 74.345 17.632 74.2383 17.12C74.153 16.608 74.1103 16.3307 74.1103 16.288C73.9823 16.5227 73.8437 16.9173 73.6943 17.472C73.5663 18.0267 73.4063 18.592 73.2143 19.168C73.0223 19.7227 72.777 20.224 72.4783 20.672C72.201 21.0987 71.8383 21.312 71.3903 21.312C71.177 21.312 70.9743 21.184 70.7823 20.928C70.5903 20.672 70.409 20.3413 70.2383 19.936C70.0677 19.5307 69.897 19.072 69.7263 18.56C69.577 18.048 69.417 17.5467 69.2463 17.056C69.097 16.5653 68.9477 16.1067 68.7983 15.68C68.649 15.232 68.4997 14.88 68.3503 14.624C68.2223 14.944 68.105 15.3813 67.9983 15.936C67.913 16.4907 67.8383 17.0773 67.7743 17.696C67.7103 18.2933 67.657 18.8907 67.6143 19.488C67.5717 20.0853 67.5503 20.608 67.5503 21.056C67.5503 21.3547 67.465 21.568 67.2943 21.696C67.145 21.824 66.985 21.888 66.8143 21.888C66.5797 21.888 66.345 21.7387 66.1103 21.44C65.8757 21.12 65.641 20.7147 65.4063 20.224C65.1717 19.7333 64.9477 19.1787 64.7343 18.56C64.5423 17.9413 64.361 17.3227 64.1903 16.704C64.041 16.0853 63.9237 15.4987 63.8383 14.944C63.753 14.368 63.7103 13.888 63.7103 13.504C63.7103 13.2267 63.721 12.9707 63.7423 12.736C63.7637 12.544 63.7743 12.3627 63.7743 12.192C63.7957 12.0213 63.8063 11.9253 63.8063 11.904C63.8063 11.84 63.785 11.7973 63.7423 11.776C63.721 11.7547 63.7103 11.7013 63.7103 11.616C63.7103 11.552 63.785 11.456 63.9343 11.328C64.105 11.1787 64.2757 11.104 64.4463 11.104C64.745 11.104 64.937 11.168 65.0223 11.296C65.129 11.424 65.1823 11.5733 65.1823 11.744C65.1823 11.808 65.1717 11.904 65.1503 12.032C65.1503 12.16 65.1503 12.448 65.1503 12.896C65.1503 13.1947 65.2037 13.6427 65.3103 14.24C65.417 14.8373 65.545 15.4453 65.6943 16.064C65.8437 16.6827 65.993 17.2587 66.1423 17.792C66.313 18.304 66.4517 18.624 66.5583 18.752C66.601 18.6667 66.6223 18.5707 66.6223 18.464C66.6437 18.336 66.665 18.24 66.6863 18.176L67.0383 15.552C67.1237 14.8907 67.2943 14.1973 67.5503 13.472C67.8277 12.7253 68.1157 12.1493 68.4143 11.744C68.521 11.5733 68.6383 11.488 68.7663 11.488C68.8943 11.488 69.0117 11.584 69.1183 11.776C69.481 12.3733 69.7477 12.9707 69.9183 13.568C70.1103 14.144 70.2703 14.72 70.3983 15.296C70.5477 15.8507 70.7077 16.416 70.8783 16.992C71.0703 17.5467 71.3583 18.112 71.7423 18.688C71.913 18.4107 72.1263 17.9627 72.3823 17.344C72.6383 16.704 72.8943 16.064 73.1503 15.424C73.4277 14.784 73.6837 14.2293 73.9183 13.76C74.153 13.2693 74.3343 13.024 74.4623 13.024C74.5263 13.024 74.633 13.0347 74.7823 13.056C74.9317 13.0773 75.0383 13.088 75.1023 13.088C75.2943 13.088 75.4543 13.312 75.5823 13.76C75.7103 14.1867 75.817 14.6987 75.9023 15.296C76.009 15.872 76.105 16.4587 76.1903 17.056C76.297 17.632 76.4143 18.0693 76.5423 18.368C76.6277 18.5813 76.7557 18.784 76.9263 18.976C77.097 19.168 77.2677 19.3493 77.4383 19.52C77.6517 19.712 77.865 19.904 78.0783 20.096ZM82.5396 8.384C82.5396 8.42667 82.4649 8.512 82.3156 8.64C82.1662 8.768 81.9849 8.90667 81.7716 9.056C81.5796 9.184 81.3769 9.30134 81.1636 9.408C80.9502 9.51467 80.7796 9.568 80.6516 9.568C80.5662 9.568 80.4489 9.568 80.2996 9.568C80.1716 9.54667 80.0329 9.504 79.8836 9.44C79.7556 9.376 79.6382 9.29067 79.5316 9.184C79.4249 9.056 79.3716 8.896 79.3716 8.704C79.3716 8.40534 79.4782 8.128 79.6916 7.872C79.9049 7.59467 80.1822 7.456 80.5236 7.456C80.5876 7.456 80.7262 7.488 80.9396 7.552C81.1742 7.59467 81.4089 7.65867 81.6436 7.744C81.8782 7.82934 82.0809 7.92534 82.2516 8.032C82.4436 8.13867 82.5396 8.256 82.5396 8.384ZM83.5956 20.352C83.5956 20.5013 83.4782 20.6293 83.2436 20.736C83.0302 20.8427 82.8702 20.896 82.7636 20.896C82.5502 20.896 82.3582 20.7573 82.1876 20.48C82.0169 20.2027 81.8676 19.8827 81.7396 19.52C81.6116 19.1573 81.5049 18.816 81.4196 18.496C81.3342 18.1547 81.2702 17.92 81.2276 17.792C81.1636 17.5787 81.0782 17.3227 80.9716 17.024C80.8649 16.7253 80.7582 16.4373 80.6516 16.16C80.5662 15.8827 80.4916 15.6373 80.4276 15.424C80.3636 15.2107 80.3316 15.0933 80.3316 15.072C80.3316 14.7733 80.3849 14.496 80.4916 14.24C80.6196 13.984 80.7689 13.856 80.9396 13.856C81.1316 13.856 81.3342 14.0053 81.5476 14.304C81.7609 14.6027 81.9636 14.9867 82.1556 15.456C82.3689 15.904 82.5609 16.4053 82.7316 16.96C82.9022 17.4933 83.0516 18.0053 83.1796 18.496C83.3076 18.9653 83.4036 19.3813 83.4676 19.744C83.5529 20.0853 83.5956 20.288 83.5956 20.352ZM116.534 24.576C116.534 24.7253 116.481 24.8853 116.374 25.056C116.268 25.2267 116.118 25.312 115.926 25.312C115.82 25.312 115.702 25.28 115.574 25.216C114.806 24.8533 113.91 24.5547 112.886 24.32C111.862 24.1067 110.806 23.9147 109.718 23.744C108.652 23.5733 107.606 23.3813 106.582 23.168C105.558 22.976 104.662 22.72 103.894 22.4C104.022 22.6773 104.15 22.9013 104.278 23.072C104.406 23.2427 104.513 23.392 104.598 23.52C104.705 23.648 104.79 23.7653 104.854 23.872C104.918 24 104.95 24.16 104.95 24.352C104.95 24.5227 104.886 24.6507 104.758 24.736C104.63 24.8213 104.502 24.864 104.374 24.864C104.118 24.864 103.841 24.704 103.542 24.384C103.265 24.064 102.977 23.6587 102.678 23.168C102.38 22.6773 102.081 22.1333 101.782 21.536C101.505 20.9173 101.249 20.32 101.014 19.744C100.78 19.168 100.577 18.6453 100.406 18.176C100.236 17.6853 100.118 17.312 100.054 17.056L98.6463 11.424C98.6463 11.36 98.657 11.2747 98.6783 11.168C98.721 11.0613 98.8063 10.9547 98.9343 10.848C98.849 10.6773 98.8063 10.496 98.8063 10.304C98.8063 9.70667 99.1477 9.16267 99.8303 8.672C100.513 8.16 101.334 7.73334 102.294 7.392C103.276 7.02934 104.3 6.752 105.366 6.56C106.433 6.368 107.34 6.272 108.086 6.272C108.3 6.272 108.62 6.29334 109.046 6.336C109.473 6.35734 109.889 6.432 110.294 6.56C110.721 6.688 111.084 6.89067 111.382 7.168C111.702 7.424 111.862 7.78667 111.862 8.256C111.862 8.704 111.628 9.216 111.158 9.792C110.71 10.368 110.145 10.976 109.462 11.616C108.78 12.256 108.044 12.9173 107.254 13.6C106.465 14.2613 105.729 14.9333 105.046 15.616C104.364 16.2773 103.788 16.928 103.318 17.568C102.87 18.1867 102.646 18.7627 102.646 19.296C102.646 19.7013 102.817 20.064 103.158 20.384C103.521 20.6827 103.969 20.9493 104.502 21.184C105.036 21.4187 105.612 21.6213 106.23 21.792C106.87 21.9627 107.468 22.1013 108.022 22.208C108.598 22.3147 109.089 22.4 109.494 22.464C109.921 22.5067 110.177 22.528 110.262 22.528C110.54 22.528 111.02 22.56 111.702 22.624C112.385 22.688 113.078 22.8053 113.782 22.976C114.508 23.1253 115.148 23.328 115.702 23.584C116.257 23.84 116.534 24.1707 116.534 24.576ZM110.358 8.288C110.358 8.13867 110.284 8.01067 110.134 7.904C109.985 7.776 109.782 7.68 109.526 7.616C109.292 7.53067 109.025 7.47734 108.726 7.456C108.449 7.41334 108.172 7.392 107.894 7.392C107.468 7.392 106.956 7.456 106.358 7.584C105.761 7.712 105.153 7.872 104.534 8.064C103.937 8.256 103.382 8.448 102.87 8.64C102.358 8.832 101.985 8.992 101.75 9.12C101.302 9.376 100.865 9.664 100.438 9.984C100.012 10.2827 99.7983 10.5813 99.7983 10.88C99.7983 10.9227 99.8303 10.9653 99.8943 11.008C99.9583 11.0507 99.9903 11.1253 99.9903 11.232C99.9903 11.36 100.054 11.6907 100.182 12.224C100.31 12.736 100.46 13.3227 100.63 13.984C100.801 14.624 100.982 15.264 101.174 15.904C101.388 16.544 101.58 17.056 101.75 17.44C102.625 16.2027 103.564 15.1253 104.566 14.208C105.59 13.2693 106.529 12.448 107.382 11.744C108.236 11.0187 108.94 10.3893 109.494 9.856C110.07 9.30134 110.358 8.77867 110.358 8.288ZM120.973 16.192C120.973 16.6613 120.909 17.1093 120.781 17.536C120.653 17.9627 120.483 18.336 120.269 18.656C120.056 18.976 119.8 19.232 119.501 19.424C119.224 19.5947 118.915 19.68 118.573 19.68C117.976 19.68 117.507 19.5093 117.165 19.168C116.824 18.8267 116.557 18.432 116.365 17.984C116.195 17.536 116.077 17.088 116.013 16.64C115.971 16.1707 115.949 15.8187 115.949 15.584C115.949 15.2 116.003 14.7733 116.109 14.304C116.237 13.8133 116.397 13.3653 116.589 12.96C116.803 12.5547 117.037 12.2133 117.293 11.936C117.549 11.6587 117.816 11.52 118.093 11.52C118.157 11.52 118.253 11.5413 118.381 11.584C118.531 11.6267 118.68 11.6907 118.829 11.776C118.979 11.8613 119.107 11.968 119.213 12.096C119.341 12.224 119.427 12.3733 119.469 12.544C119.704 12.5653 119.939 12.6507 120.173 12.8C120.408 12.9493 120.536 13.0667 120.557 13.152C120.728 13.7067 120.835 14.2613 120.877 14.816C120.941 15.3707 120.973 15.8293 120.973 16.192ZM119.533 15.616C119.533 15.296 119.501 14.9653 119.437 14.624C119.373 14.2613 119.245 13.8987 119.053 13.536C119.011 13.5573 118.957 13.568 118.893 13.568C118.808 13.568 118.733 13.5573 118.669 13.536C118.627 13.5147 118.584 13.504 118.541 13.504C118.285 13.504 118.083 13.5787 117.933 13.728C117.784 13.856 117.667 14.0373 117.581 14.272C117.517 14.4853 117.475 14.72 117.453 14.976C117.432 15.232 117.421 15.4773 117.421 15.712C117.421 15.9467 117.432 16.2133 117.453 16.512C117.475 16.7893 117.517 17.056 117.581 17.312C117.667 17.568 117.773 17.792 117.901 17.984C118.029 18.1547 118.2 18.24 118.413 18.24C118.627 18.24 118.808 18.1333 118.957 17.92C119.107 17.6853 119.224 17.4187 119.309 17.12C119.395 16.8213 119.448 16.5333 119.469 16.256C119.512 15.9573 119.533 15.744 119.533 15.616ZM131.83 16.736C131.83 17.696 131.713 18.5387 131.478 19.264C131.265 19.9893 130.998 20.5973 130.678 21.088C130.358 21.5573 130.027 21.9093 129.686 22.144C129.366 22.3787 129.099 22.496 128.886 22.496C128.587 22.496 128.299 22.368 128.022 22.112C127.745 21.8347 127.606 21.5787 127.606 21.344C127.606 21.0027 127.745 20.832 128.022 20.832C128.129 20.832 128.235 20.8747 128.342 20.96C128.449 21.024 128.545 21.0773 128.63 21.12C128.993 20.8213 129.334 20.3307 129.654 19.648C129.995 18.9653 130.166 17.9947 130.166 16.736C130.166 16.224 130.113 15.7653 130.006 15.36C129.899 14.9547 129.771 14.6133 129.622 14.336C129.494 14.0587 129.355 13.8453 129.206 13.696C129.057 13.5467 128.95 13.472 128.886 13.472C128.673 13.472 128.459 13.6853 128.246 14.112C128.054 14.5387 127.883 15.0293 127.734 15.584C127.585 16.1173 127.457 16.6507 127.35 17.184C127.265 17.696 127.222 18.048 127.222 18.24C127.243 18.368 127.265 18.4853 127.286 18.592C127.307 18.6987 127.329 18.8053 127.35 18.912C127.371 19.0187 127.382 19.1253 127.382 19.232C127.382 19.6373 127.243 20 126.966 20.32C126.689 20.64 126.422 20.8 126.166 20.8C126.038 20.8 125.931 20.7147 125.846 20.544C125.782 20.352 125.729 20.1173 125.686 19.84C125.643 19.5627 125.601 19.2747 125.558 18.976C125.537 18.6773 125.505 18.4107 125.462 18.176C125.291 17.792 125.067 17.184 124.79 16.352C124.513 15.52 124.214 14.6347 123.894 13.696C123.595 12.736 123.307 11.808 123.03 10.912C122.774 10.016 122.582 9.30134 122.454 8.768C122.155 7.616 121.931 6.61334 121.782 5.76C121.611 4.88534 121.483 4.128 121.398 3.488C121.291 2.82667 121.227 2.26134 121.206 1.792C121.185 1.32267 121.174 0.928003 121.174 0.608004C121.174 0.416004 121.259 0.26667 121.43 0.160004C121.579 0.0533358 121.718 1.90735e-06 121.846 1.90735e-06C122.038 1.90735e-06 122.177 0.0426687 122.262 0.128002C122.347 0.192003 122.411 0.341336 122.454 0.576002C122.475 0.81067 122.507 1.152 122.55 1.6C122.571 2.048 122.625 2.64534 122.71 3.392C122.753 3.75467 122.827 4.256 122.934 4.896C123.062 5.536 123.222 6.25067 123.414 7.04C123.606 7.82934 123.809 8.66134 124.022 9.536C124.257 10.3893 124.491 11.2107 124.726 12C124.982 12.7893 125.227 13.5147 125.462 14.176C125.718 14.8373 125.953 15.36 126.166 15.744C126.358 14.976 126.593 14.2827 126.87 13.664C127.105 13.152 127.393 12.6827 127.734 12.256C128.075 11.808 128.491 11.584 128.982 11.584C129.174 11.584 129.43 11.6693 129.75 11.84C130.07 12.0107 130.379 12.2987 130.678 12.704C130.998 13.1093 131.265 13.6427 131.478 14.304C131.713 14.9653 131.83 15.776 131.83 16.736ZM143.704 19.744C143.725 19.7867 143.736 19.8507 143.736 19.936C143.736 20.064 143.64 20.256 143.448 20.512C143.384 20.5973 143.245 20.736 143.032 20.928C142.818 21.12 142.53 21.312 142.168 21.504C141.805 21.696 141.357 21.8667 140.824 22.016C140.312 22.1653 139.704 22.24 139 22.24C138.509 22.24 138.029 22.1333 137.56 21.92C137.09 21.6853 136.674 21.3547 136.312 20.928C135.949 20.48 135.65 19.936 135.416 19.296C135.181 18.6347 135.064 17.8667 135.064 16.992C135.064 16.16 135.17 15.3813 135.384 14.656C135.597 13.9307 135.864 13.2907 136.184 12.736C136.525 12.1813 136.898 11.744 137.304 11.424C137.709 11.104 138.104 10.944 138.488 10.944C138.829 10.944 139.17 11.0187 139.512 11.168C139.874 11.296 140.194 11.4667 140.472 11.68C140.77 11.8933 141.005 12.1387 141.176 12.416C141.346 12.672 141.432 12.9387 141.432 13.216C141.432 13.536 141.282 13.8667 140.984 14.208C140.706 14.5493 140.365 14.8693 139.96 15.168C139.554 15.4453 139.149 15.68 138.744 15.872C138.338 16.0427 138.018 16.128 137.784 16.128C137.656 16.128 137.538 16.0747 137.432 15.968C137.346 15.84 137.304 15.6907 137.304 15.52C137.304 15.2213 137.432 14.9867 137.688 14.816C137.965 14.6453 138.264 14.496 138.584 14.368C138.904 14.2187 139.192 14.048 139.448 13.856C139.725 13.664 139.864 13.3973 139.864 13.056C139.864 13.0133 139.81 12.9067 139.704 12.736C139.597 12.5653 139.309 12.48 138.84 12.48C138.626 12.48 138.381 12.608 138.104 12.864C137.826 13.0987 137.56 13.4293 137.304 13.856C137.048 14.2613 136.834 14.752 136.664 15.328C136.493 15.8827 136.408 16.4907 136.408 17.152C136.408 17.7067 136.504 18.208 136.696 18.656C136.909 19.104 137.176 19.488 137.496 19.808C137.816 20.1067 138.189 20.3413 138.616 20.512C139.042 20.6827 139.48 20.768 139.928 20.768C140.248 20.768 140.589 20.704 140.952 20.576C141.336 20.4267 141.688 20.2773 142.008 20.128C142.349 19.9573 142.637 19.808 142.872 19.68C143.128 19.5307 143.288 19.456 143.352 19.456C143.416 19.456 143.48 19.488 143.544 19.552C143.629 19.616 143.682 19.68 143.704 19.744ZM153.516 13.344C153.516 13.4933 153.452 13.6213 153.324 13.728C153.196 13.8133 153.047 13.888 152.876 13.952C152.705 14.016 152.535 14.0693 152.364 14.112C152.193 14.1333 152.055 14.144 151.948 14.144C151.628 14.144 151.415 14.1227 151.308 14.08C151.201 14.0373 151.116 14.016 151.052 14.016C150.519 14.016 150.092 14.0587 149.772 14.144C149.452 14.2293 149.196 14.368 149.004 14.56C148.833 14.752 148.716 14.9973 148.652 15.296C148.609 15.5733 148.588 15.9147 148.588 16.32C148.588 17.0027 148.609 17.5467 148.652 17.952C148.716 18.3573 148.769 18.688 148.812 18.944C148.876 19.2 148.929 19.4027 148.972 19.552C149.036 19.68 149.068 19.808 149.068 19.936C149.068 20.1067 148.972 20.288 148.78 20.48C148.609 20.672 148.449 20.768 148.3 20.768C148.044 20.768 147.809 20.544 147.596 20.096C147.404 19.6267 147.233 19.0827 147.084 18.464C146.956 17.824 146.849 17.1947 146.764 16.576C146.679 15.9573 146.636 15.488 146.636 15.168C146.636 14.8053 146.668 14.464 146.732 14.144C146.796 13.8027 146.881 13.5147 146.988 13.28C147.095 13.024 147.212 12.8213 147.34 12.672C147.468 12.5227 147.596 12.448 147.724 12.448C147.831 12.448 147.916 12.4907 147.98 12.576C148.044 12.64 148.097 12.7253 148.14 12.832C148.183 12.9173 148.225 13.0027 148.268 13.088C148.332 13.152 148.407 13.184 148.492 13.184C148.684 13.184 148.993 13.088 149.42 12.896C149.847 12.704 150.369 12.608 150.988 12.608C151.564 12.608 151.991 12.6293 152.268 12.672C152.567 12.6933 152.855 12.7573 153.132 12.864C153.196 12.8853 153.271 12.9387 153.356 13.024C153.463 13.088 153.516 13.1947 153.516 13.344ZM164.569 8.64C164.292 8.96 163.897 9.28 163.385 9.6C162.873 9.89867 162.361 10.176 161.849 10.432C161.337 10.688 160.889 10.912 160.505 11.104C160.121 11.2747 159.929 11.392 159.929 11.456C159.929 11.52 159.972 11.712 160.057 12.032C160.142 12.352 160.238 12.736 160.345 13.184C160.473 13.6107 160.601 14.0587 160.729 14.528C160.857 14.9973 160.964 15.4133 161.049 15.776C161.092 15.9893 161.145 16.2667 161.209 16.608C161.273 16.9493 161.326 17.2907 161.369 17.632C161.433 17.9733 161.486 18.2827 161.529 18.56C161.572 18.816 161.593 18.9547 161.593 18.976C161.593 19.296 161.54 19.6267 161.433 19.968C161.326 20.3093 161.156 20.48 160.921 20.48C160.793 20.48 160.676 20.4267 160.569 20.32C160.462 20.2133 160.366 20.096 160.281 19.968C160.196 19.8187 160.132 19.68 160.089 19.552C160.046 19.424 160.025 19.328 160.025 19.264C160.025 19.2213 160.025 19.1573 160.025 19.072C160.046 18.9867 160.057 18.8907 160.057 18.784C160.057 18.3787 159.993 17.792 159.865 17.024C159.822 16.7893 159.737 16.4267 159.609 15.936C159.481 15.4453 159.353 14.944 159.225 14.432C159.076 13.8347 158.905 13.184 158.713 12.48C158.628 12.1813 158.574 12.032 158.553 12.032C158.404 12.032 158.148 12.128 157.785 12.32C157.444 12.4907 157.049 12.7147 156.601 12.992C156.153 13.248 155.684 13.536 155.193 13.856C154.702 14.1547 154.244 14.4427 153.817 14.72C153.39 14.976 153.028 15.2 152.729 15.392C152.409 15.5627 152.217 15.648 152.153 15.648C151.876 15.648 151.652 15.552 151.481 15.36C151.31 15.168 151.225 14.9547 151.225 14.72C151.225 14.592 151.406 14.4107 151.769 14.176C152.11 13.92 152.548 13.6427 153.081 13.344C153.593 13.0453 154.158 12.736 154.777 12.416C155.374 12.096 155.929 11.808 156.441 11.552C156.974 11.296 157.412 11.0827 157.753 10.912C158.116 10.7413 158.297 10.656 158.297 10.656C158.105 9.67467 157.945 8.8 157.817 8.032C157.71 7.37067 157.604 6.76267 157.497 6.208C157.412 5.65334 157.369 5.35467 157.369 5.312C157.369 5.03467 157.422 4.832 157.529 4.704C157.657 4.55467 157.796 4.48 157.945 4.48C158.18 4.48 158.329 4.64 158.393 4.96C158.628 6.112 158.841 7.136 159.033 8.032C159.246 8.928 159.449 9.65334 159.641 10.208C159.833 10.1653 160.164 10.048 160.633 9.856C161.102 9.64267 161.593 9.41867 162.105 9.184C162.617 8.94934 163.076 8.74667 163.481 8.576C163.908 8.384 164.153 8.288 164.217 8.288C164.345 8.288 164.42 8.33067 164.441 8.416C164.484 8.50134 164.526 8.576 164.569 8.64ZM181.508 16.448C181.508 16.832 181.326 17.312 180.964 17.888C180.622 18.4427 180.153 18.9867 179.556 19.52C178.958 20.0533 178.265 20.512 177.476 20.896C176.686 21.2587 175.865 21.44 175.012 21.44C174.628 21.44 174.222 21.376 173.796 21.248C173.369 21.12 172.953 20.9387 172.548 20.704C172.142 20.448 171.78 20.1493 171.46 19.808C171.14 19.4453 170.905 19.04 170.756 18.592C170.628 18.72 170.468 18.9333 170.276 19.232C170.105 19.5307 169.913 19.84 169.7 20.16C169.486 20.4587 169.252 20.7253 168.996 20.96C168.74 21.1733 168.473 21.28 168.196 21.28C167.918 21.28 167.684 21.1413 167.492 20.864C167.321 20.5653 167.182 20.2453 167.076 19.904C166.969 19.5413 166.894 19.2 166.852 18.88C166.809 18.56 166.788 18.3787 166.788 18.336C166.788 18.08 166.862 17.6 167.012 16.896C167.161 16.1707 167.385 15.424 167.684 14.656C167.982 13.888 168.356 13.2053 168.804 12.608C169.273 12.0107 169.817 11.712 170.436 11.712C170.67 11.712 170.82 11.8187 170.884 12.032C170.969 12.224 171.012 12.416 171.012 12.608V13.568C171.118 13.6533 171.225 13.7173 171.332 13.76C171.46 13.7813 171.566 13.824 171.652 13.888C171.758 13.9307 171.833 14.0053 171.876 14.112C171.94 14.2187 171.972 14.3893 171.972 14.624C171.972 14.7733 171.961 14.912 171.94 15.04C171.918 15.1467 171.908 15.2533 171.908 15.36C171.908 15.9147 171.95 16.4587 172.036 16.992C172.121 17.5253 172.292 18.0053 172.548 18.432C172.804 18.8373 173.156 19.1787 173.604 19.456C174.052 19.712 174.649 19.84 175.396 19.84C176.334 19.84 177.124 19.648 177.764 19.264C178.425 18.8587 178.969 18.4213 179.396 17.952C179.844 17.4613 180.196 17.024 180.452 16.64C180.708 16.2347 180.921 16.032 181.092 16.032C181.369 16.032 181.508 16.1707 181.508 16.448ZM170.276 15.04C170.276 14.9547 170.254 14.88 170.212 14.816C170.169 14.7307 170.148 14.656 170.148 14.592C170.148 14.5067 170.169 14.432 170.212 14.368C170.254 14.304 170.276 14.2187 170.276 14.112C170.276 14.048 170.254 14.0053 170.212 13.984C170.169 13.9413 170.148 13.8987 170.148 13.856C169.956 13.8987 169.753 14.08 169.54 14.4C169.348 14.72 169.156 15.0933 168.964 15.52C168.793 15.9467 168.654 16.384 168.548 16.832C168.441 17.2587 168.388 17.6107 168.388 17.888C168.388 18.0373 168.43 18.2827 168.516 18.624C168.601 18.9653 168.697 19.1893 168.804 19.296C169.166 18.5493 169.497 17.824 169.796 17.12C170.116 16.416 170.276 15.7227 170.276 15.04ZM210.48 24.832C210.522 24.96 210.565 25.0773 210.608 25.184C210.65 25.2907 210.682 25.408 210.704 25.536C210.746 25.664 210.768 25.7813 210.768 25.888C210.768 26.0373 210.714 26.1547 210.608 26.24C210.501 26.3467 210.373 26.432 210.224 26.496C210.096 26.56 209.968 26.6027 209.84 26.624C209.712 26.6453 209.637 26.656 209.616 26.656C209.488 26.656 209.253 26.2613 208.912 25.472C208.57 24.704 208.197 23.616 207.792 22.208C207.408 20.8 207.013 19.1253 206.608 17.184C206.202 15.2427 205.872 13.1093 205.616 10.784C205.573 11.2747 205.488 11.8507 205.36 12.512C205.253 13.152 205.082 13.76 204.848 14.336C204.613 14.912 204.304 15.4027 203.92 15.808C203.557 16.192 203.088 16.384 202.512 16.384C202.106 16.384 201.648 16.1707 201.136 15.744C200.624 15.3173 200.122 14.816 199.632 14.24C199.162 13.6427 198.725 13.0453 198.32 12.448C197.936 11.8293 197.648 11.328 197.456 10.944C197.541 11.8827 197.68 13.0133 197.872 14.336C198.085 15.6587 198.405 17.056 198.832 18.528C198.874 18.6773 198.917 18.7947 198.96 18.88C199.024 18.944 199.077 19.0187 199.12 19.104C199.184 19.1893 199.226 19.2853 199.248 19.392C199.29 19.4773 199.312 19.616 199.312 19.808C199.312 20.0853 199.205 20.288 198.992 20.416C198.778 20.544 198.576 20.608 198.384 20.608C198.277 20.608 198.138 20.448 197.968 20.128C197.797 19.7867 197.616 19.3493 197.424 18.816C197.232 18.2827 197.04 17.696 196.848 17.056C196.656 16.3947 196.474 15.744 196.304 15.104C196.154 14.464 196.026 13.8667 195.92 13.312C195.813 12.736 195.76 12.2773 195.76 11.936C195.76 11.3813 195.781 10.9973 195.824 10.784C195.888 10.5707 195.973 10.4107 196.08 10.304V8.352C196.08 8.05334 196.154 7.82934 196.304 7.68C196.474 7.50934 196.688 7.424 196.944 7.424C197.157 7.424 197.402 7.60534 197.68 7.968C197.957 8.33067 198.256 8.78934 198.576 9.344C198.917 9.89867 199.269 10.496 199.632 11.136C199.994 11.776 200.346 12.3733 200.688 12.928C201.05 13.4827 201.392 13.9413 201.712 14.304C202.053 14.6667 202.373 14.848 202.672 14.848C202.949 14.848 203.216 14.592 203.472 14.08C203.728 13.5467 203.962 12.8533 204.176 12C204.41 11.1467 204.613 10.176 204.784 9.088C204.954 8 205.093 6.89067 205.2 5.76C205.2 5.632 205.189 5.49334 205.168 5.344C205.146 5.17334 205.136 4.992 205.136 4.8C205.136 4.544 205.189 4.26667 205.296 3.968C205.424 3.66934 205.658 3.52 206 3.52C206.192 3.52 206.341 3.57334 206.448 3.68C206.576 3.78667 206.661 3.92534 206.704 4.096C206.746 4.24534 206.768 4.40534 206.768 4.576C206.789 4.72534 206.8 4.85334 206.8 4.96C206.8 5.13067 206.778 5.41867 206.736 5.824C206.714 6.208 206.704 6.80534 206.704 7.616C206.704 8.32 206.757 9.14134 206.864 10.08C206.97 10.9973 207.109 11.9787 207.28 13.024C207.472 14.048 207.685 15.1147 207.92 16.224C208.176 17.312 208.442 18.3787 208.72 19.424C209.018 20.4693 209.306 21.4613 209.584 22.4C209.882 23.3173 210.181 24.128 210.48 24.832ZM226.758 16.448C226.758 16.832 226.576 17.312 226.214 17.888C225.872 18.4427 225.403 18.9867 224.806 19.52C224.208 20.0533 223.515 20.512 222.726 20.896C221.936 21.2587 221.115 21.44 220.262 21.44C219.878 21.44 219.472 21.376 219.046 21.248C218.619 21.12 218.203 20.9387 217.798 20.704C217.392 20.448 217.03 20.1493 216.71 19.808C216.39 19.4453 216.155 19.04 216.006 18.592C215.878 18.72 215.718 18.9333 215.526 19.232C215.355 19.5307 215.163 19.84 214.95 20.16C214.736 20.4587 214.502 20.7253 214.246 20.96C213.99 21.1733 213.723 21.28 213.446 21.28C213.168 21.28 212.934 21.1413 212.742 20.864C212.571 20.5653 212.432 20.2453 212.326 19.904C212.219 19.5413 212.144 19.2 212.102 18.88C212.059 18.56 212.038 18.3787 212.038 18.336C212.038 18.08 212.112 17.6 212.262 16.896C212.411 16.1707 212.635 15.424 212.934 14.656C213.232 13.888 213.606 13.2053 214.054 12.608C214.523 12.0107 215.067 11.712 215.686 11.712C215.92 11.712 216.07 11.8187 216.134 12.032C216.219 12.224 216.262 12.416 216.262 12.608V13.568C216.368 13.6533 216.475 13.7173 216.582 13.76C216.71 13.7813 216.816 13.824 216.902 13.888C217.008 13.9307 217.083 14.0053 217.126 14.112C217.19 14.2187 217.222 14.3893 217.222 14.624C217.222 14.7733 217.211 14.912 217.19 15.04C217.168 15.1467 217.158 15.2533 217.158 15.36C217.158 15.9147 217.2 16.4587 217.286 16.992C217.371 17.5253 217.542 18.0053 217.798 18.432C218.054 18.8373 218.406 19.1787 218.854 19.456C219.302 19.712 219.899 19.84 220.646 19.84C221.584 19.84 222.374 19.648 223.014 19.264C223.675 18.8587 224.219 18.4213 224.646 17.952C225.094 17.4613 225.446 17.024 225.702 16.64C225.958 16.2347 226.171 16.032 226.342 16.032C226.619 16.032 226.758 16.1707 226.758 16.448ZM215.526 15.04C215.526 14.9547 215.504 14.88 215.462 14.816C215.419 14.7307 215.398 14.656 215.398 14.592C215.398 14.5067 215.419 14.432 215.462 14.368C215.504 14.304 215.526 14.2187 215.526 14.112C215.526 14.048 215.504 14.0053 215.462 13.984C215.419 13.9413 215.398 13.8987 215.398 13.856C215.206 13.8987 215.003 14.08 214.79 14.4C214.598 14.72 214.406 15.0933 214.214 15.52C214.043 15.9467 213.904 16.384 213.798 16.832C213.691 17.2587 213.638 17.6107 213.638 17.888C213.638 18.0373 213.68 18.2827 213.766 18.624C213.851 18.9653 213.947 19.1893 214.054 19.296C214.416 18.5493 214.747 17.824 215.046 17.12C215.366 16.416 215.526 15.7227 215.526 15.04ZM238.512 19.68C238.512 19.8507 238.49 19.9787 238.448 20.064C238.405 20.128 238.298 20.1813 238.128 20.224C237.936 20.288 237.69 20.3627 237.392 20.448C237.114 20.512 236.805 20.5867 236.464 20.672C236.122 20.736 235.77 20.8 235.408 20.864C235.066 20.9067 234.746 20.928 234.448 20.928C234.085 20.928 233.68 20.9067 233.232 20.864C232.805 20.8213 232.389 20.7573 231.984 20.672C231.578 20.5653 231.205 20.4587 230.864 20.352C230.544 20.224 230.309 20.0747 230.16 19.904C230.266 20.352 230.362 20.8 230.448 21.248C230.533 21.696 230.597 22.144 230.64 22.592C230.64 22.6987 230.608 22.7947 230.544 22.88C230.501 22.944 230.362 22.976 230.128 22.976C230.021 22.976 229.914 22.9547 229.808 22.912C229.722 22.848 229.648 22.7307 229.584 22.56C229.392 22.1333 229.232 21.7387 229.104 21.376C228.976 20.992 228.858 20.608 228.752 20.224C228.666 19.84 228.57 19.4347 228.464 19.008C228.357 18.5813 228.229 18.112 228.08 17.6C227.845 16.768 227.6 15.8827 227.344 14.944C227.088 13.984 226.853 13.0773 226.64 12.224C226.426 11.3493 226.256 10.5813 226.128 9.92C226 9.23734 225.936 8.75734 225.936 8.48C225.936 8.352 225.936 8.18134 225.936 7.968C225.957 7.75467 225.989 7.552 226.032 7.36C226.096 7.14667 226.17 6.976 226.256 6.848C226.362 6.69867 226.501 6.624 226.672 6.624C226.778 6.624 226.885 6.79467 226.992 7.136C227.12 7.456 227.226 7.81867 227.312 8.224C227.418 8.608 227.504 8.98134 227.568 9.344C227.653 9.68534 227.696 9.86667 227.696 9.888C227.781 10.3573 227.877 10.88 227.984 11.456C228.112 12.0107 228.24 12.576 228.368 13.152C228.496 13.728 228.634 14.2827 228.784 14.816C228.933 15.328 229.093 15.7653 229.264 16.128C229.285 15.9147 229.36 15.6053 229.488 15.2C229.616 14.7947 229.786 14.3573 230 13.888C230.213 13.4187 230.448 12.9387 230.704 12.448C230.981 11.936 231.258 11.4773 231.536 11.072C231.834 10.6667 232.122 10.336 232.4 10.08C232.698 9.824 232.976 9.696 233.232 9.696C233.637 9.696 233.914 9.74934 234.064 9.856C234.234 9.96267 234.32 10.0907 234.32 10.24C234.32 10.368 234.138 10.624 233.776 11.008C233.413 11.3707 233.008 11.8613 232.56 12.48C232.112 13.0773 231.706 13.792 231.344 14.624C230.981 15.4347 230.8 16.3413 230.8 17.344C230.8 17.7067 230.896 18.0267 231.088 18.304C231.301 18.56 231.568 18.7733 231.888 18.944C232.229 19.1147 232.602 19.2533 233.008 19.36C233.434 19.4453 233.85 19.488 234.256 19.488C234.618 19.488 235.013 19.4773 235.44 19.456C235.866 19.4347 236.261 19.4133 236.624 19.392C237.008 19.3493 237.328 19.3173 237.584 19.296C237.861 19.2747 238.032 19.264 238.096 19.264C238.202 19.264 238.298 19.296 238.384 19.36C238.469 19.424 238.512 19.5307 238.512 19.68ZM244.99 13.856C244.99 13.984 244.915 14.1547 244.766 14.368C244.638 14.56 244.467 14.7733 244.254 15.008C244.04 15.2427 243.795 15.488 243.518 15.744C243.262 15.9787 243.006 16.192 242.75 16.384C242.792 16.5973 242.835 16.7573 242.878 16.864L244.158 22.176C244.158 22.3467 244.094 22.4747 243.966 22.56C243.838 22.6453 243.688 22.688 243.518 22.688C243.326 22.688 243.123 22.5173 242.91 22.176C242.718 21.8133 242.526 21.3653 242.334 20.832C242.142 20.2987 241.96 19.712 241.79 19.072C241.619 18.432 241.47 17.8347 241.342 17.28C241.235 17.3013 241.107 17.312 240.958 17.312C240.787 17.312 240.574 17.216 240.318 17.024C240.062 16.832 239.934 16.6507 239.934 16.48C239.934 16.4373 240.03 16.384 240.222 16.32C240.414 16.2347 240.627 16.128 240.862 16L241.054 15.872C241.011 15.6373 240.979 15.456 240.958 15.328C240.936 15.1787 240.926 15.0933 240.926 15.072C240.926 14.9867 240.883 14.7627 240.798 14.4C240.734 14.0373 240.638 13.472 240.51 12.704C240.403 11.936 240.275 10.944 240.126 9.728C239.998 8.49067 239.859 6.96534 239.71 5.152C239.71 4.96 239.742 4.71467 239.806 4.416C239.87 4.11734 240.019 3.968 240.254 3.968C240.552 3.968 240.776 4.17067 240.926 4.576C241.096 4.98134 241.224 5.48267 241.31 6.08C241.416 6.67734 241.491 7.30667 241.534 7.968C241.576 8.608 241.63 9.17334 241.694 9.664C241.822 10.6667 241.928 11.5627 242.014 12.352C242.12 13.12 242.259 13.9307 242.43 14.784C242.835 14.4427 243.219 14.1333 243.582 13.856C243.944 13.5787 244.19 13.44 244.318 13.44C244.467 13.44 244.616 13.4827 244.766 13.568C244.915 13.6533 244.99 13.7493 244.99 13.856ZM252.38 16.192C252.38 16.6613 252.316 17.1093 252.188 17.536C252.06 17.9627 251.889 18.336 251.676 18.656C251.462 18.976 251.206 19.232 250.908 19.424C250.63 19.5947 250.321 19.68 249.98 19.68C249.382 19.68 248.913 19.5093 248.572 19.168C248.23 18.8267 247.964 18.432 247.772 17.984C247.601 17.536 247.484 17.088 247.42 16.64C247.377 16.1707 247.356 15.8187 247.356 15.584C247.356 15.2 247.409 14.7733 247.516 14.304C247.644 13.8133 247.804 13.3653 247.996 12.96C248.209 12.5547 248.444 12.2133 248.7 11.936C248.956 11.6587 249.222 11.52 249.5 11.52C249.564 11.52 249.66 11.5413 249.788 11.584C249.937 11.6267 250.086 11.6907 250.236 11.776C250.385 11.8613 250.513 11.968 250.62 12.096C250.748 12.224 250.833 12.3733 250.876 12.544C251.11 12.5653 251.345 12.6507 251.58 12.8C251.814 12.9493 251.942 13.0667 251.964 13.152C252.134 13.7067 252.241 14.2613 252.284 14.816C252.348 15.3707 252.38 15.8293 252.38 16.192ZM250.94 15.616C250.94 15.296 250.908 14.9653 250.844 14.624C250.78 14.2613 250.652 13.8987 250.46 13.536C250.417 13.5573 250.364 13.568 250.3 13.568C250.214 13.568 250.14 13.5573 250.076 13.536C250.033 13.5147 249.99 13.504 249.948 13.504C249.692 13.504 249.489 13.5787 249.34 13.728C249.19 13.856 249.073 14.0373 248.988 14.272C248.924 14.4853 248.881 14.72 248.86 14.976C248.838 15.232 248.828 15.4773 248.828 15.712C248.828 15.9467 248.838 16.2133 248.86 16.512C248.881 16.7893 248.924 17.056 248.988 17.312C249.073 17.568 249.18 17.792 249.308 17.984C249.436 18.1547 249.606 18.24 249.82 18.24C250.033 18.24 250.214 18.1333 250.364 17.92C250.513 17.6853 250.63 17.4187 250.716 17.12C250.801 16.8213 250.854 16.5333 250.876 16.256C250.918 15.9573 250.94 15.744 250.94 15.616ZM265.284 9.024C265.37 9.04534 265.412 9.10934 265.412 9.216C265.412 9.36534 265.338 9.52534 265.188 9.696C265.039 9.84534 264.964 10.016 264.964 10.208C264.964 10.2507 264.954 10.4107 264.932 10.688C264.932 10.9653 264.932 11.2747 264.932 11.616C264.932 11.9573 264.922 12.2773 264.9 12.576C264.9 12.8747 264.9 13.0453 264.9 13.088V16.256C264.9 16.2773 264.89 16.4267 264.868 16.704C264.847 16.9813 264.804 17.312 264.74 17.696C264.698 18.08 264.644 18.4853 264.58 18.912C264.538 19.3173 264.484 19.6693 264.42 19.968C264.399 20.0533 264.335 20.1173 264.228 20.16C264.143 20.2027 264.036 20.2453 263.908 20.288C263.802 20.3093 263.695 20.3307 263.588 20.352C263.482 20.352 263.418 20.352 263.396 20.352C263.162 20.352 262.906 20.2133 262.628 19.936C262.372 19.6587 262.127 19.3493 261.892 19.008C261.658 18.6667 261.455 18.3467 261.284 18.048C261.114 17.7493 261.018 17.5787 260.996 17.536C260.911 17.8347 260.815 18.144 260.708 18.464C260.602 18.7627 260.484 19.04 260.356 19.296C260.228 19.552 260.079 19.7653 259.908 19.936C259.759 20.1067 259.588 20.192 259.396 20.192C259.14 20.192 258.874 20.064 258.596 19.808C258.319 19.552 258.031 19.2213 257.732 18.816C257.455 18.4107 257.188 17.9627 256.932 17.472C256.676 16.96 256.452 16.4693 256.26 16C256.068 15.5307 255.908 15.0933 255.78 14.688C255.674 14.2827 255.62 13.9627 255.62 13.728C255.62 13.6427 255.663 13.536 255.748 13.408C255.834 13.28 255.951 13.216 256.1 13.216C256.399 13.216 256.612 13.312 256.74 13.504C256.762 13.5253 256.826 13.7173 256.932 14.08C257.06 14.4427 257.231 14.8693 257.444 15.36C257.658 15.8507 257.903 16.3627 258.18 16.896C258.479 17.408 258.81 17.8453 259.172 18.208C259.322 17.9307 259.439 17.6213 259.524 17.28C259.631 16.9387 259.716 16.608 259.78 16.288C259.844 15.968 259.887 15.68 259.908 15.424C259.93 15.1467 259.94 14.9227 259.94 14.752C259.898 14.5813 259.866 14.4107 259.844 14.24C259.823 14.0907 259.802 13.9413 259.78 13.792C259.78 13.6427 259.78 13.5147 259.78 13.408C259.78 12.8747 259.994 12.608 260.42 12.608C260.74 12.608 260.986 12.7147 261.156 12.928C261.327 13.12 261.455 13.3547 261.54 13.632C261.626 13.888 261.679 14.144 261.7 14.4C261.743 14.656 261.786 14.8373 261.828 14.944C261.999 15.4347 262.148 15.8933 262.276 16.32C262.426 16.7467 262.671 17.184 263.012 17.632C263.098 17.568 263.162 17.4613 263.204 17.312C263.268 17.1413 263.311 16.9707 263.332 16.8C263.354 16.6293 263.364 16.48 263.364 16.352C263.364 16.2027 263.364 16.096 263.364 16.032V9.664C263.364 9.536 263.418 9.41867 263.524 9.312C263.631 9.20534 263.759 9.10934 263.908 9.024C264.058 8.93867 264.196 8.87467 264.324 8.832C264.474 8.768 264.58 8.736 264.644 8.736C264.751 8.736 264.847 8.768 264.932 8.832C265.039 8.896 265.156 8.96 265.284 9.024ZM269.883 8.384C269.883 8.42667 269.809 8.512 269.659 8.64C269.51 8.768 269.329 8.90667 269.115 9.056C268.923 9.184 268.721 9.30134 268.507 9.408C268.294 9.51467 268.123 9.568 267.995 9.568C267.91 9.568 267.793 9.568 267.643 9.568C267.515 9.54667 267.377 9.504 267.227 9.44C267.099 9.376 266.982 9.29067 266.875 9.184C266.769 9.056 266.715 8.896 266.715 8.704C266.715 8.40534 266.822 8.128 267.035 7.872C267.249 7.59467 267.526 7.456 267.867 7.456C267.931 7.456 268.07 7.488 268.283 7.552C268.518 7.59467 268.753 7.65867 268.987 7.744C269.222 7.82934 269.425 7.92534 269.595 8.032C269.787 8.13867 269.883 8.256 269.883 8.384ZM270.939 20.352C270.939 20.5013 270.822 20.6293 270.587 20.736C270.374 20.8427 270.214 20.896 270.107 20.896C269.894 20.896 269.702 20.7573 269.531 20.48C269.361 20.2027 269.211 19.8827 269.083 19.52C268.955 19.1573 268.849 18.816 268.763 18.496C268.678 18.1547 268.614 17.92 268.571 17.792C268.507 17.5787 268.422 17.3227 268.315 17.024C268.209 16.7253 268.102 16.4373 267.995 16.16C267.91 15.8827 267.835 15.6373 267.771 15.424C267.707 15.2107 267.675 15.0933 267.675 15.072C267.675 14.7733 267.729 14.496 267.835 14.24C267.963 13.984 268.113 13.856 268.283 13.856C268.475 13.856 268.678 14.0053 268.891 14.304C269.105 14.6027 269.307 14.9867 269.499 15.456C269.713 15.904 269.905 16.4053 270.075 16.96C270.246 17.4933 270.395 18.0053 270.523 18.496C270.651 18.9653 270.747 19.3813 270.811 19.744C270.897 20.0853 270.939 20.288 270.939 20.352ZM282.18 17.28C282.18 17.4933 282.148 17.7173 282.084 17.952C282.02 18.1653 281.956 18.3467 281.892 18.496C281.849 18.56 281.647 18.784 281.284 19.168C280.943 19.5307 280.505 19.9147 279.972 20.32C279.46 20.7253 278.873 21.0987 278.212 21.44C277.572 21.76 276.953 21.92 276.356 21.92C275.993 21.92 275.62 21.856 275.236 21.728C274.873 21.6 274.532 21.3973 274.212 21.12C273.892 20.8213 273.625 20.4587 273.412 20.032C273.22 19.6053 273.124 19.0827 273.124 18.464C273.124 17.44 273.295 16.512 273.636 15.68C273.977 14.848 274.319 14.1867 274.66 13.696C274.809 13.4613 275.001 13.2267 275.236 12.992C275.492 12.736 275.737 12.512 275.972 12.32C276.207 12.1067 276.42 11.936 276.612 11.808C276.825 11.68 276.975 11.616 277.06 11.616C277.252 11.616 277.423 11.6693 277.572 11.776C277.743 11.8827 277.828 11.9893 277.828 12.096C277.828 12.2667 277.775 12.416 277.668 12.544C277.583 12.6507 277.455 12.7787 277.284 12.928C277.113 13.056 276.911 13.2373 276.676 13.472C276.441 13.6853 276.196 13.9733 275.94 14.336C275.428 15.04 275.044 15.7653 274.788 16.512C274.553 17.2373 274.436 17.8773 274.436 18.432C274.436 18.9867 274.639 19.4347 275.044 19.776C275.471 20.096 275.908 20.256 276.356 20.256C277.167 20.256 277.881 20.0747 278.5 19.712C279.14 19.3493 279.684 18.944 280.132 18.496C280.58 18.048 280.943 17.6427 281.22 17.28C281.497 16.9173 281.7 16.736 281.828 16.736C282.063 16.736 282.18 16.9173 282.18 17.28ZM296.457 16.544C296.457 16.7147 296.436 16.8853 296.393 17.056C296.372 17.2267 296.308 17.3333 296.201 17.376C295.775 17.568 295.22 17.7387 294.537 17.888C293.855 18.016 293.225 18.1973 292.649 18.432C292.287 18.5813 291.839 18.784 291.305 19.04C290.772 19.296 290.217 19.552 289.641 19.808C289.065 20.064 288.511 20.288 287.977 20.48C287.444 20.6507 287.007 20.736 286.665 20.736C286.388 20.736 286.121 20.6293 285.865 20.416C285.609 20.2027 285.481 19.9787 285.481 19.744C285.481 19.3173 285.673 18.8053 286.057 18.208C286.463 17.5893 286.921 16.96 287.433 16.32C287.967 15.68 288.479 15.072 288.969 14.496C289.481 13.8987 289.844 13.4187 290.057 13.056C290.036 13.056 290.004 13.0453 289.961 13.024C289.919 12.9813 289.855 12.96 289.769 12.96C289.108 13.1733 288.489 13.3653 287.913 13.536C287.423 13.6853 286.911 13.824 286.377 13.952C285.865 14.0587 285.449 14.112 285.129 14.112C284.916 14.112 284.745 14.016 284.617 13.824C284.511 13.632 284.457 13.4187 284.457 13.184C284.457 13.12 284.468 13.056 284.489 12.992C284.532 12.928 284.607 12.896 284.713 12.896C284.991 12.832 285.407 12.7253 285.961 12.576C286.537 12.4267 287.145 12.2773 287.785 12.128C288.425 11.9573 289.033 11.8187 289.609 11.712C290.207 11.584 290.665 11.52 290.985 11.52C291.22 11.52 291.465 11.616 291.721 11.808C291.999 11.9787 292.212 12.2027 292.361 12.48L287.593 18.592L287.401 18.976C287.401 19.0613 287.433 19.104 287.497 19.104C287.668 19.104 287.903 19.0293 288.201 18.88C288.521 18.7307 288.948 18.5173 289.481 18.24C290.036 17.9627 290.74 17.632 291.593 17.248C292.468 16.864 293.545 16.448 294.825 16C295.039 15.936 295.241 15.904 295.433 15.904C295.753 15.904 295.999 15.9787 296.169 16.128C296.361 16.2773 296.457 16.416 296.457 16.544ZM312.914 16.448C312.914 16.832 312.733 17.312 312.37 17.888C312.029 18.4427 311.559 18.9867 310.962 19.52C310.365 20.0533 309.671 20.512 308.882 20.896C308.093 21.2587 307.271 21.44 306.418 21.44C306.034 21.44 305.629 21.376 305.202 21.248C304.775 21.12 304.359 20.9387 303.954 20.704C303.549 20.448 303.186 20.1493 302.866 19.808C302.546 19.4453 302.311 19.04 302.162 18.592C302.034 18.72 301.874 18.9333 301.682 19.232C301.511 19.5307 301.319 19.84 301.106 20.16C300.893 20.4587 300.658 20.7253 300.402 20.96C300.146 21.1733 299.879 21.28 299.602 21.28C299.325 21.28 299.09 21.1413 298.898 20.864C298.727 20.5653 298.589 20.2453 298.482 19.904C298.375 19.5413 298.301 19.2 298.258 18.88C298.215 18.56 298.194 18.3787 298.194 18.336C298.194 18.08 298.269 17.6 298.418 16.896C298.567 16.1707 298.791 15.424 299.09 14.656C299.389 13.888 299.762 13.2053 300.21 12.608C300.679 12.0107 301.223 11.712 301.842 11.712C302.077 11.712 302.226 11.8187 302.29 12.032C302.375 12.224 302.418 12.416 302.418 12.608V13.568C302.525 13.6533 302.631 13.7173 302.738 13.76C302.866 13.7813 302.973 13.824 303.058 13.888C303.165 13.9307 303.239 14.0053 303.282 14.112C303.346 14.2187 303.378 14.3893 303.378 14.624C303.378 14.7733 303.367 14.912 303.346 15.04C303.325 15.1467 303.314 15.2533 303.314 15.36C303.314 15.9147 303.357 16.4587 303.442 16.992C303.527 17.5253 303.698 18.0053 303.954 18.432C304.21 18.8373 304.562 19.1787 305.01 19.456C305.458 19.712 306.055 19.84 306.802 19.84C307.741 19.84 308.53 19.648 309.17 19.264C309.831 18.8587 310.375 18.4213 310.802 17.952C311.25 17.4613 311.602 17.024 311.858 16.64C312.114 16.2347 312.327 16.032 312.498 16.032C312.775 16.032 312.914 16.1707 312.914 16.448ZM301.682 15.04C301.682 14.9547 301.661 14.88 301.618 14.816C301.575 14.7307 301.554 14.656 301.554 14.592C301.554 14.5067 301.575 14.432 301.618 14.368C301.661 14.304 301.682 14.2187 301.682 14.112C301.682 14.048 301.661 14.0053 301.618 13.984C301.575 13.9413 301.554 13.8987 301.554 13.856C301.362 13.8987 301.159 14.08 300.946 14.4C300.754 14.72 300.562 15.0933 300.37 15.52C300.199 15.9467 300.061 16.384 299.954 16.832C299.847 17.2587 299.794 17.6107 299.794 17.888C299.794 18.0373 299.837 18.2827 299.922 18.624C300.007 18.9653 300.103 19.1893 300.21 19.296C300.573 18.5493 300.903 17.824 301.202 17.12C301.522 16.416 301.682 15.7227 301.682 15.04Z" fill="#0016DE"/>
</svg>
