<svg width="373" height="33" viewBox="0 0 373 33" fill="none" xmlns="http://www.w3.org/2000/svg">
<path d="M14.2058 20.1552C14.2058 21.1152 14.0351 21.8725 13.6938 22.4272C13.3524 22.9605 12.8511 23.4618 12.1898 23.9312C12.0191 24.0378 11.7844 24.1658 11.4858 24.3152C11.1871 24.4645 10.8564 24.6032 10.4938 24.7312C10.1311 24.8592 9.74708 24.9658 9.34175 25.0512C8.93642 25.1365 8.56308 25.1792 8.22175 25.1792C7.26175 25.1792 6.53642 25.0725 6.04575 24.8592C5.55508 24.6672 5.30975 24.4325 5.30975 24.1552C5.30975 23.8565 5.39508 23.6112 5.56575 23.4192C5.73642 23.2272 5.88575 23.1205 6.01375 23.0992L6.36575 23.3552C6.47242 23.4618 6.62175 23.5792 6.81375 23.7072C7.00575 23.8138 7.31508 23.8672 7.74175 23.8672C8.14708 23.8672 8.63775 23.8032 9.21375 23.6752C9.78975 23.5258 10.3338 23.3125 10.8458 23.0352C11.3791 22.7365 11.8271 22.3738 12.1898 21.9472C12.5738 21.5205 12.7658 21.0298 12.7658 20.4752C12.7658 19.9845 12.3924 19.5365 11.6458 19.1312C10.9204 18.7045 9.76842 18.4165 8.18975 18.2672C7.37908 18.2032 6.57908 18.1072 5.78975 17.9792C5.00042 17.8298 4.28575 17.6378 3.64575 17.4032C3.02708 17.1472 2.52575 16.8378 2.14175 16.4752C1.75775 16.0912 1.56575 15.6218 1.56575 15.0672C1.56575 14.5338 1.71508 14.0218 2.01375 13.5312C2.31242 13.0405 2.67508 12.5925 3.10175 12.1872C3.54975 11.7605 4.00842 11.3872 4.47775 11.0672C4.94708 10.7472 5.34175 10.4805 5.66175 10.2672C5.91775 10.1178 6.26975 9.92583 6.71775 9.69116C7.18708 9.43517 7.67775 9.2005 8.18975 8.98717C8.72308 8.7525 9.24575 8.5605 9.75775 8.41117C10.2911 8.2405 10.7391 8.15516 11.1018 8.15516C11.5284 8.15516 11.8164 8.2725 11.9658 8.50717C12.1151 8.74183 12.1898 9.0725 12.1898 9.49917C12.1898 9.86183 12.1471 10.2458 12.0618 10.6512C11.9764 11.0565 11.8804 11.4512 11.7738 11.8352C11.6671 12.2192 11.5604 12.5605 11.4538 12.8592C11.3684 13.1365 11.3044 13.3178 11.2618 13.4032C11.1764 13.5952 11.0804 13.7232 10.9738 13.7872C10.8671 13.8512 10.7924 13.8832 10.7498 13.8832C10.6644 13.8832 10.6218 13.8298 10.6218 13.7232C10.6218 13.6592 10.6324 13.5418 10.6538 13.3712C10.6964 13.1792 10.7391 12.9552 10.7818 12.6992C10.8458 12.4432 10.8884 12.1658 10.9098 11.8672C10.9524 11.5685 10.9738 11.2698 10.9738 10.9712C10.9738 10.5018 10.9524 10.1605 10.9098 9.94717C10.8671 9.73383 10.6964 9.62716 10.3978 9.62716C10.0991 9.62716 9.69375 9.7125 9.18175 9.88317C8.66975 10.0325 8.14708 10.2245 7.61375 10.4592C7.03775 10.7152 6.47242 11.0458 5.91775 11.4512C5.38442 11.8565 4.90442 12.2725 4.47775 12.6992C4.05108 13.1258 3.69908 13.5418 3.42175 13.9472C3.16575 14.3312 3.03775 14.6405 3.03775 14.8752C3.03775 15.1312 3.20842 15.3765 3.54975 15.6112C3.91242 15.8245 4.36042 16.0165 4.89375 16.1872C5.44842 16.3578 6.05642 16.5072 6.71775 16.6352C7.37908 16.7632 8.02975 16.8592 8.66975 16.9232C9.20308 16.9872 9.78975 17.0725 10.4298 17.1792C11.0698 17.2858 11.6671 17.4565 12.2218 17.6912C12.7764 17.9258 13.2458 18.2458 13.6298 18.6512C14.0138 19.0352 14.2058 19.5365 14.2058 20.1552ZM10.6218 4.18716C10.6218 4.35783 10.4938 4.60316 10.2378 4.92316C9.98175 5.24317 9.67242 5.57383 9.30975 5.91516C8.96842 6.2565 8.60575 6.5765 8.22175 6.87517C7.85908 7.1525 7.57108 7.3445 7.35775 7.45116C7.18708 7.5365 7.03775 7.58983 6.90975 7.61117C6.78175 7.6325 6.67508 7.64317 6.58975 7.64317C6.41908 7.64317 6.20575 7.54717 5.94975 7.35517C5.69375 7.16317 5.56575 6.98183 5.56575 6.81116C5.56575 6.7685 5.66175 6.71517 5.85375 6.65117C6.04575 6.56583 6.25908 6.45916 6.49375 6.33117C6.70708 6.20317 6.98442 6.0005 7.32575 5.72317C7.68842 5.4245 8.04042 5.1365 8.38175 4.85917C8.74442 4.5605 9.06442 4.3045 9.34175 4.09117C9.64042 3.87783 9.84308 3.77117 9.94975 3.77117C10.0991 3.77117 10.2484 3.81383 10.3978 3.89916C10.5471 3.9845 10.6218 4.0805 10.6218 4.18716ZM20.2235 23.8672C20.2235 24.0378 20.1595 24.1658 20.0315 24.2512C19.9035 24.3365 19.7542 24.3792 19.5835 24.3792C19.3915 24.3792 19.1888 24.1978 18.9755 23.8352C18.7835 23.4725 18.5915 23.0138 18.3995 22.4592C18.2075 21.9045 18.0262 21.3072 17.8555 20.6672C17.6848 20.0058 17.5355 19.3978 17.4075 18.8432C17.2795 18.2672 17.1728 17.7872 17.0875 17.4032C17.0235 17.0192 16.9915 16.8058 16.9915 16.7632C16.9915 16.6778 16.9488 16.4538 16.8635 16.0912C16.7995 15.7285 16.7035 15.1632 16.5755 14.3952C16.4688 13.6272 16.3408 12.6352 16.1915 11.4192C16.0635 10.1818 15.9248 8.6565 15.7755 6.84316C15.7755 6.65116 15.8075 6.40583 15.8715 6.10716C15.9355 5.8085 16.0848 5.65916 16.3195 5.65916C16.6182 5.65916 16.8422 5.86183 16.9915 6.26716C17.1622 6.6725 17.2902 7.17383 17.3755 7.77117C17.4822 8.3685 17.5568 8.99783 17.5995 9.65917C17.6422 10.2992 17.6955 10.8645 17.7595 11.3552C17.8448 12.0378 17.9195 12.6565 17.9835 13.2112C18.0688 13.7658 18.1435 14.3205 18.2075 14.8752C18.2928 15.4085 18.3888 15.9738 18.4955 16.5712C18.6235 17.1685 18.7728 17.8298 18.9435 18.5552L20.2235 23.8672ZM37.9175 18.1392C37.9175 18.5232 37.7362 19.0032 37.3735 19.5792C37.0322 20.1338 36.5628 20.6778 35.9655 21.2112C35.3682 21.7445 34.6748 22.2032 33.8855 22.5872C33.0962 22.9498 32.2748 23.1312 31.4215 23.1312C31.0375 23.1312 30.6322 23.0672 30.2055 22.9392C29.7788 22.8112 29.3628 22.6298 28.9575 22.3952C28.5522 22.1392 28.1895 21.8405 27.8695 21.4992C27.5495 21.1365 27.3148 20.7312 27.1655 20.2832C27.0375 20.4112 26.8775 20.6245 26.6855 20.9232C26.5148 21.2218 26.3228 21.5312 26.1095 21.8512C25.8962 22.1498 25.6615 22.4165 25.4055 22.6512C25.1495 22.8645 24.8828 22.9712 24.6055 22.9712C24.3282 22.9712 24.0935 22.8325 23.9015 22.5552C23.7308 22.2565 23.5922 21.9365 23.4855 21.5952C23.3788 21.2325 23.3042 20.8912 23.2615 20.5712C23.2188 20.2512 23.1975 20.0698 23.1975 20.0272C23.1975 19.7712 23.2722 19.2912 23.4215 18.5872C23.5708 17.8618 23.7948 17.1152 24.0935 16.3472C24.3922 15.5792 24.7655 14.8965 25.2135 14.2992C25.6828 13.7018 26.2268 13.4032 26.8455 13.4032C27.0802 13.4032 27.2295 13.5098 27.2935 13.7232C27.3788 13.9152 27.4215 14.1072 27.4215 14.2992V15.2592C27.5282 15.3445 27.6348 15.4085 27.7415 15.4512C27.8695 15.4725 27.9762 15.5152 28.0615 15.5792C28.1682 15.6218 28.2428 15.6965 28.2855 15.8032C28.3495 15.9098 28.3815 16.0805 28.3815 16.3152C28.3815 16.4645 28.3708 16.6032 28.3495 16.7312C28.3282 16.8378 28.3175 16.9445 28.3175 17.0512C28.3175 17.6058 28.3602 18.1498 28.4455 18.6832C28.5308 19.2165 28.7015 19.6965 28.9575 20.1232C29.2135 20.5285 29.5655 20.8698 30.0135 21.1472C30.4615 21.4032 31.0588 21.5312 31.8055 21.5312C32.7442 21.5312 33.5335 21.3392 34.1735 20.9552C34.8348 20.5498 35.3788 20.1125 35.8055 19.6432C36.2535 19.1525 36.6055 18.7152 36.8615 18.3312C37.1175 17.9258 37.3308 17.7232 37.5015 17.7232C37.7788 17.7232 37.9175 17.8618 37.9175 18.1392ZM26.6855 16.7312C26.6855 16.6458 26.6642 16.5712 26.6215 16.5072C26.5788 16.4218 26.5575 16.3472 26.5575 16.2832C26.5575 16.1978 26.5788 16.1232 26.6215 16.0592C26.6642 15.9952 26.6855 15.9098 26.6855 15.8032C26.6855 15.7392 26.6642 15.6965 26.6215 15.6752C26.5788 15.6325 26.5575 15.5898 26.5575 15.5472C26.3655 15.5898 26.1628 15.7712 25.9495 16.0912C25.7575 16.4112 25.5655 16.7845 25.3735 17.2112C25.2028 17.6378 25.0642 18.0752 24.9575 18.5232C24.8508 18.9498 24.7975 19.3018 24.7975 19.5792C24.7975 19.7285 24.8402 19.9738 24.9255 20.3152C25.0108 20.6565 25.1068 20.8805 25.2135 20.9872C25.5762 20.2405 25.9068 19.5152 26.2055 18.8112C26.5255 18.1072 26.6855 17.4138 26.6855 16.7312ZM47.3673 19.6432C47.3673 19.7498 47.3139 19.8565 47.2073 19.9632C47.1219 20.0485 47.0686 20.1445 47.0473 20.2512C47.0473 20.4858 47.0899 20.7098 47.1753 20.9232C47.2819 21.1365 47.3353 21.3925 47.3353 21.6912C47.3353 21.9685 47.2499 22.1072 47.0793 22.1072C46.8659 22.1072 46.7059 22.1392 46.5993 22.2032C46.5139 22.2458 46.3539 22.2885 46.1193 22.3312C45.9913 22.3312 45.8526 22.2138 45.7033 21.9792C45.6179 21.8725 45.5433 21.7445 45.4792 21.5952C45.4792 21.5738 45.4153 21.6165 45.2873 21.7232C45.1806 21.8298 44.9886 21.9578 44.7113 22.1072C44.4553 22.2352 44.0926 22.3632 43.6233 22.4912C43.1753 22.5978 42.5993 22.6512 41.8953 22.6512C41.2979 22.6512 40.7753 22.5232 40.3273 22.2672C39.8793 21.9898 39.5059 21.6378 39.2073 21.2112C38.9299 20.7845 38.7166 20.3045 38.5673 19.7712C38.4393 19.2165 38.3753 18.6618 38.3753 18.1072C38.3753 17.5952 38.4286 17.1152 38.5353 16.6672C38.6633 16.1978 38.8339 15.7925 39.0473 15.4512C39.2606 15.0885 39.5273 14.8005 39.8473 14.5872C40.1673 14.3738 40.5406 14.2672 40.9673 14.2672C41.3726 14.2672 41.7779 14.3952 42.1833 14.6512C42.5886 14.9072 42.9513 15.1845 43.2713 15.4832C43.5913 15.7818 43.8473 16.0592 44.0393 16.3152C44.2526 16.5498 44.3593 16.6672 44.3593 16.6672C44.0606 15.0032 43.7939 13.4992 43.5593 12.1552C43.4526 11.5792 43.3459 11.0138 43.2393 10.4592C43.1539 9.88317 43.0686 9.37117 42.9833 8.92317C42.8979 8.47517 42.8233 8.10183 42.7593 7.80317C42.7166 7.48317 42.6953 7.29117 42.6953 7.22717C42.6739 7.09917 42.6526 6.87517 42.6313 6.55516C42.6099 6.21383 42.5886 5.86183 42.5673 5.49916C42.5459 5.1365 42.5246 4.80583 42.5033 4.50717C42.4819 4.2085 42.4606 4.0165 42.4393 3.93117C42.3753 3.71783 42.2899 3.45116 42.1833 3.13116C42.0979 2.81116 42.0553 2.62983 42.0553 2.58717C42.0553 2.4805 42.1086 2.3525 42.2153 2.20317C42.3219 2.0325 42.4606 1.94716 42.6313 1.94716C42.7593 1.94716 42.8766 1.95783 42.9833 1.97916C43.0899 2.0005 43.1859 2.0645 43.2713 2.17117C43.3566 2.27783 43.4313 2.4485 43.4953 2.68316C43.5806 2.8965 43.6553 3.20583 43.7193 3.61116C43.7406 3.8245 43.8046 4.22983 43.9113 4.82717C44.0179 5.4245 44.1246 6.07517 44.2313 6.77917C44.3379 7.48317 44.4446 8.15517 44.5513 8.79517C44.6579 9.43517 44.7326 9.9045 44.7753 10.2032C44.8819 11.0138 45.0206 11.8992 45.1913 12.8592C45.3833 13.7978 45.5752 14.7045 45.7673 15.5792C45.9593 16.4538 46.1513 17.2325 46.3433 17.9152C46.5353 18.5765 46.7059 19.0245 46.8553 19.2592C46.8979 19.3445 46.9833 19.4085 47.1113 19.4512C47.2393 19.4725 47.3246 19.5365 47.3673 19.6432ZM44.9993 20.2832C44.9779 20.2192 44.8393 19.9525 44.5833 19.4832C44.3486 18.9925 44.0393 18.4698 43.6553 17.9152C43.2926 17.3392 42.8766 16.8272 42.4073 16.3792C41.9593 15.9312 41.5219 15.7072 41.0953 15.7072C40.7326 15.7072 40.4339 15.9845 40.1993 16.5392C39.9859 17.0938 39.8793 17.7338 39.8793 18.4592C39.8793 19.2698 40.1139 19.9205 40.5833 20.4112C41.0739 20.9018 41.6179 21.1472 42.2153 21.1472C42.7273 21.1472 43.2606 21.0618 43.8153 20.8912C44.3699 20.7205 44.7646 20.5178 44.9993 20.2832ZM65.0425 18.1392C65.0425 18.5232 64.8612 19.0032 64.4985 19.5792C64.1572 20.1338 63.6878 20.6778 63.0905 21.2112C62.4932 21.7445 61.7998 22.2032 61.0105 22.5872C60.2212 22.9498 59.3998 23.1312 58.5465 23.1312C58.1625 23.1312 57.7572 23.0672 57.3305 22.9392C56.9038 22.8112 56.4878 22.6298 56.0825 22.3952C55.6772 22.1392 55.3145 21.8405 54.9945 21.4992C54.6745 21.1365 54.4398 20.7312 54.2905 20.2832C54.1625 20.4112 54.0025 20.6245 53.8105 20.9232C53.6398 21.2218 53.4478 21.5312 53.2345 21.8512C53.0212 22.1498 52.7865 22.4165 52.5305 22.6512C52.2745 22.8645 52.0078 22.9712 51.7305 22.9712C51.4532 22.9712 51.2185 22.8325 51.0265 22.5552C50.8558 22.2565 50.7172 21.9365 50.6105 21.5952C50.5038 21.2325 50.4292 20.8912 50.3865 20.5712C50.3438 20.2512 50.3225 20.0698 50.3225 20.0272C50.3225 19.7712 50.3972 19.2912 50.5465 18.5872C50.6958 17.8618 50.9198 17.1152 51.2185 16.3472C51.5172 15.5792 51.8905 14.8965 52.3385 14.2992C52.8078 13.7018 53.3518 13.4032 53.9705 13.4032C54.2052 13.4032 54.3545 13.5098 54.4185 13.7232C54.5038 13.9152 54.5465 14.1072 54.5465 14.2992V15.2592C54.6532 15.3445 54.7598 15.4085 54.8665 15.4512C54.9945 15.4725 55.1012 15.5152 55.1865 15.5792C55.2932 15.6218 55.3678 15.6965 55.4105 15.8032C55.4745 15.9098 55.5065 16.0805 55.5065 16.3152C55.5065 16.4645 55.4958 16.6032 55.4745 16.7312C55.4532 16.8378 55.4425 16.9445 55.4425 17.0512C55.4425 17.6058 55.4852 18.1498 55.5705 18.6832C55.6558 19.2165 55.8265 19.6965 56.0825 20.1232C56.3385 20.5285 56.6905 20.8698 57.1385 21.1472C57.5865 21.4032 58.1838 21.5312 58.9305 21.5312C59.8692 21.5312 60.6585 21.3392 61.2985 20.9552C61.9598 20.5498 62.5038 20.1125 62.9305 19.6432C63.3785 19.1525 63.7305 18.7152 63.9865 18.3312C64.2425 17.9258 64.4558 17.7232 64.6265 17.7232C64.9038 17.7232 65.0425 17.8618 65.0425 18.1392ZM53.8105 16.7312C53.8105 16.6458 53.7892 16.5712 53.7465 16.5072C53.7038 16.4218 53.6825 16.3472 53.6825 16.2832C53.6825 16.1978 53.7038 16.1232 53.7465 16.0592C53.7892 15.9952 53.8105 15.9098 53.8105 15.8032C53.8105 15.7392 53.7892 15.6965 53.7465 15.6752C53.7038 15.6325 53.6825 15.5898 53.6825 15.5472C53.4905 15.5898 53.2878 15.7712 53.0745 16.0912C52.8825 16.4112 52.6905 16.7845 52.4985 17.2112C52.3278 17.6378 52.1892 18.0752 52.0825 18.5232C51.9758 18.9498 51.9225 19.3018 51.9225 19.5792C51.9225 19.7285 51.9652 19.9738 52.0505 20.3152C52.1358 20.6565 52.2318 20.8805 52.3385 20.9872C52.7012 20.2405 53.0318 19.5152 53.3305 18.8112C53.6505 18.1072 53.8105 17.4138 53.8105 16.7312ZM79.6443 21.7872C79.6443 21.9578 79.5909 22.1072 79.4843 22.2352C79.3776 22.3632 79.2496 22.4698 79.1003 22.5552C78.9509 22.6192 78.7909 22.6725 78.6203 22.7152C78.4709 22.7578 78.3429 22.7792 78.2363 22.7792C77.7883 22.7792 77.4043 22.5445 77.0843 22.0752C76.7643 21.5845 76.4976 21.0512 76.2843 20.4752C76.0709 19.8778 75.9109 19.3232 75.8043 18.8112C75.7189 18.2992 75.6763 18.0218 75.6763 17.9792C75.5483 18.2138 75.4096 18.6085 75.2603 19.1632C75.1323 19.7178 74.9723 20.2832 74.7803 20.8592C74.5883 21.4138 74.3429 21.9152 74.0443 22.3632C73.7669 22.7898 73.4043 23.0032 72.9563 23.0032C72.7429 23.0032 72.5403 22.8752 72.3483 22.6192C72.1563 22.3632 71.9749 22.0325 71.8043 21.6272C71.6336 21.2218 71.4629 20.7632 71.2923 20.2512C71.1429 19.7392 70.9829 19.2378 70.8123 18.7472C70.6629 18.2565 70.5136 17.7978 70.3643 17.3712C70.2149 16.9232 70.0656 16.5712 69.9163 16.3152C69.7883 16.6352 69.6709 17.0725 69.5643 17.6272C69.4789 18.1818 69.4043 18.7685 69.3403 19.3872C69.2763 19.9845 69.2229 20.5818 69.1803 21.1792C69.1376 21.7765 69.1163 22.2992 69.1163 22.7472C69.1163 23.0458 69.0309 23.2592 68.8602 23.3872C68.7109 23.5152 68.5509 23.5792 68.3802 23.5792C68.1456 23.5792 67.9109 23.4298 67.6763 23.1312C67.4416 22.8112 67.2069 22.4058 66.9723 21.9152C66.7376 21.4245 66.5136 20.8698 66.3003 20.2512C66.1083 19.6325 65.9269 19.0138 65.7563 18.3952C65.6069 17.7765 65.4896 17.1898 65.4043 16.6352C65.3189 16.0592 65.2763 15.5792 65.2763 15.1952C65.2763 14.9178 65.2869 14.6618 65.3083 14.4272C65.3296 14.2352 65.3403 14.0538 65.3403 13.8832C65.3616 13.7125 65.3723 13.6165 65.3723 13.5952C65.3723 13.5312 65.3509 13.4885 65.3083 13.4672C65.2869 13.4458 65.2763 13.3925 65.2763 13.3072C65.2763 13.2432 65.3509 13.1472 65.5003 13.0192C65.6709 12.8698 65.8416 12.7952 66.0123 12.7952C66.3109 12.7952 66.5029 12.8592 66.5883 12.9872C66.6949 13.1152 66.7483 13.2645 66.7483 13.4352C66.7483 13.4992 66.7376 13.5952 66.7163 13.7232C66.7163 13.8512 66.7163 14.1392 66.7163 14.5872C66.7163 14.8858 66.7696 15.3338 66.8763 15.9312C66.9829 16.5285 67.1109 17.1365 67.2603 17.7552C67.4096 18.3738 67.5589 18.9498 67.7083 19.4832C67.8789 19.9952 68.0176 20.3152 68.1243 20.4432C68.1669 20.3578 68.1883 20.2618 68.1883 20.1552C68.2096 20.0272 68.2309 19.9312 68.2523 19.8672L68.6043 17.2432C68.6896 16.5818 68.8603 15.8885 69.1163 15.1632C69.3936 14.4165 69.6816 13.8405 69.9803 13.4352C70.0869 13.2645 70.2043 13.1792 70.3323 13.1792C70.4603 13.1792 70.5776 13.2752 70.6843 13.4672C71.0469 14.0645 71.3136 14.6618 71.4843 15.2592C71.6763 15.8352 71.8363 16.4112 71.9643 16.9872C72.1136 17.5418 72.2736 18.1072 72.4443 18.6832C72.6363 19.2378 72.9243 19.8032 73.3083 20.3792C73.4789 20.1018 73.6923 19.6538 73.9483 19.0352C74.2043 18.3952 74.4603 17.7552 74.7163 17.1152C74.9936 16.4752 75.2496 15.9205 75.4843 15.4512C75.7189 14.9605 75.9003 14.7152 76.0283 14.7152C76.0923 14.7152 76.1989 14.7258 76.3483 14.7472C76.4976 14.7685 76.6043 14.7792 76.6683 14.7792C76.8603 14.7792 77.0203 15.0032 77.1483 15.4512C77.2763 15.8778 77.3829 16.3898 77.4683 16.9872C77.5749 17.5632 77.6709 18.1498 77.7563 18.7472C77.8629 19.3232 77.9803 19.7605 78.1083 20.0592C78.1936 20.2725 78.3216 20.4752 78.4923 20.6672C78.6629 20.8592 78.8336 21.0405 79.0043 21.2112C79.2176 21.4032 79.4309 21.5952 79.6443 21.7872ZM84.1055 10.0752C84.1055 10.1178 84.0308 10.2032 83.8815 10.3312C83.7322 10.4592 83.5508 10.5978 83.3375 10.7472C83.1455 10.8752 82.9428 10.9925 82.7295 11.0992C82.5162 11.2058 82.3455 11.2592 82.2175 11.2592C82.1322 11.2592 82.0148 11.2592 81.8655 11.2592C81.7375 11.2378 81.5988 11.1952 81.4495 11.1312C81.3215 11.0672 81.2042 10.9818 81.0975 10.8752C80.9908 10.7472 80.9375 10.5872 80.9375 10.3952C80.9375 10.0965 81.0442 9.81917 81.2575 9.56317C81.4708 9.28583 81.7482 9.14717 82.0895 9.14717C82.1535 9.14717 82.2922 9.17917 82.5055 9.24317C82.7402 9.28583 82.9748 9.34983 83.2095 9.43517C83.4442 9.5205 83.6468 9.6165 83.8175 9.72317C84.0095 9.82983 84.1055 9.94717 84.1055 10.0752ZM85.1615 22.0432C85.1615 22.1925 85.0442 22.3205 84.8095 22.4272C84.5962 22.5338 84.4362 22.5872 84.3295 22.5872C84.1162 22.5872 83.9242 22.4485 83.7535 22.1712C83.5828 21.8938 83.4335 21.5738 83.3055 21.2112C83.1775 20.8485 83.0708 20.5072 82.9855 20.1872C82.9002 19.8458 82.8362 19.6112 82.7935 19.4832C82.7295 19.2698 82.6442 19.0138 82.5375 18.7152C82.4308 18.4165 82.3242 18.1285 82.2175 17.8512C82.1322 17.5738 82.0575 17.3285 81.9935 17.1152C81.9295 16.9018 81.8975 16.7845 81.8975 16.7632C81.8975 16.4645 81.9508 16.1872 82.0575 15.9312C82.1855 15.6752 82.3348 15.5472 82.5055 15.5472C82.6975 15.5472 82.9002 15.6965 83.1135 15.9952C83.3268 16.2938 83.5295 16.6778 83.7215 17.1472C83.9348 17.5952 84.1268 18.0965 84.2975 18.6512C84.4682 19.1845 84.6175 19.6965 84.7455 20.1872C84.8735 20.6565 84.9695 21.0725 85.0335 21.4352C85.1188 21.7765 85.1615 21.9792 85.1615 22.0432Z" fill="#0016DE"/>
<path d="M176.225 26.2672C176.225 26.4165 176.172 26.5765 176.065 26.7472C175.959 26.9178 175.809 27.0032 175.617 27.0032C175.511 27.0032 175.393 26.9712 175.265 26.9072C174.497 26.5445 173.601 26.2458 172.577 26.0112C171.553 25.7978 170.497 25.6058 169.409 25.4352C168.343 25.2645 167.297 25.0725 166.273 24.8592C165.249 24.6672 164.353 24.4112 163.585 24.0912C163.713 24.3685 163.841 24.5925 163.969 24.7632C164.097 24.9338 164.204 25.0832 164.289 25.2112C164.396 25.3392 164.481 25.4565 164.545 25.5632C164.609 25.6912 164.641 25.8512 164.641 26.0432C164.641 26.2138 164.577 26.3418 164.449 26.4272C164.321 26.5125 164.193 26.5552 164.065 26.5552C163.809 26.5552 163.532 26.3952 163.233 26.0752C162.956 25.7552 162.668 25.3498 162.369 24.8592C162.071 24.3685 161.772 23.8245 161.473 23.2272C161.196 22.6085 160.94 22.0112 160.705 21.4352C160.471 20.8592 160.268 20.3365 160.097 19.8672C159.927 19.3765 159.809 19.0032 159.745 18.7472L158.337 13.1152C158.337 13.0512 158.348 12.9658 158.369 12.8592C158.412 12.7525 158.497 12.6458 158.625 12.5392C158.54 12.3685 158.497 12.1872 158.497 11.9952C158.497 11.3978 158.839 10.8538 159.521 10.3632C160.204 9.85117 161.025 9.4245 161.985 9.08317C162.967 8.7205 163.991 8.44317 165.057 8.25117C166.124 8.05917 167.031 7.96317 167.777 7.96317C167.991 7.96317 168.311 7.9845 168.737 8.02716C169.164 8.0485 169.58 8.12317 169.985 8.25117C170.412 8.37917 170.775 8.58183 171.073 8.85917C171.393 9.11517 171.553 9.47783 171.553 9.94717C171.553 10.3952 171.319 10.9072 170.849 11.4832C170.401 12.0592 169.836 12.6672 169.153 13.3072C168.471 13.9472 167.735 14.6085 166.945 15.2912C166.156 15.9525 165.42 16.6245 164.737 17.3072C164.055 17.9685 163.479 18.6192 163.009 19.2592C162.561 19.8778 162.337 20.4538 162.337 20.9872C162.337 21.3925 162.508 21.7552 162.849 22.0752C163.212 22.3738 163.66 22.6405 164.193 22.8752C164.727 23.1098 165.303 23.3125 165.921 23.4832C166.561 23.6538 167.159 23.7925 167.713 23.8992C168.289 24.0058 168.78 24.0912 169.185 24.1552C169.612 24.1978 169.868 24.2192 169.953 24.2192C170.231 24.2192 170.711 24.2512 171.393 24.3152C172.076 24.3792 172.769 24.4965 173.473 24.6672C174.199 24.8165 174.839 25.0192 175.393 25.2752C175.948 25.5312 176.225 25.8618 176.225 26.2672ZM170.049 9.97917C170.049 9.82983 169.975 9.70183 169.825 9.59517C169.676 9.46716 169.473 9.37116 169.217 9.30717C168.983 9.22183 168.716 9.1685 168.417 9.14717C168.14 9.1045 167.863 9.08317 167.585 9.08317C167.159 9.08317 166.647 9.14717 166.049 9.27517C165.452 9.40317 164.844 9.56317 164.225 9.75517C163.628 9.94717 163.073 10.1392 162.561 10.3312C162.049 10.5232 161.676 10.6832 161.441 10.8112C160.993 11.0672 160.556 11.3552 160.129 11.6752C159.703 11.9738 159.489 12.2725 159.489 12.5712C159.489 12.6138 159.521 12.6565 159.585 12.6992C159.649 12.7418 159.681 12.8165 159.681 12.9232C159.681 13.0512 159.745 13.3818 159.873 13.9152C160.001 14.4272 160.151 15.0138 160.321 15.6752C160.492 16.3152 160.673 16.9552 160.865 17.5952C161.079 18.2352 161.271 18.7472 161.441 19.1312C162.316 17.8938 163.255 16.8165 164.257 15.8992C165.281 14.9605 166.22 14.1392 167.073 13.4352C167.927 12.7098 168.631 12.0805 169.185 11.5472C169.761 10.9925 170.049 10.4698 170.049 9.97917ZM180.664 17.8832C180.664 18.3525 180.6 18.8005 180.472 19.2272C180.344 19.6538 180.174 20.0272 179.96 20.3472C179.747 20.6672 179.491 20.9232 179.192 21.1152C178.915 21.2858 178.606 21.3712 178.264 21.3712C177.667 21.3712 177.198 21.2005 176.856 20.8592C176.515 20.5178 176.248 20.1232 176.056 19.6752C175.886 19.2272 175.768 18.7792 175.704 18.3312C175.662 17.8618 175.64 17.5098 175.64 17.2752C175.64 16.8912 175.694 16.4645 175.8 15.9952C175.928 15.5045 176.088 15.0565 176.28 14.6512C176.494 14.2458 176.728 13.9045 176.984 13.6272C177.24 13.3498 177.507 13.2112 177.784 13.2112C177.848 13.2112 177.944 13.2325 178.072 13.2752C178.222 13.3178 178.371 13.3818 178.52 13.4672C178.67 13.5525 178.798 13.6592 178.904 13.7872C179.032 13.9152 179.118 14.0645 179.16 14.2352C179.395 14.2565 179.63 14.3418 179.864 14.4912C180.099 14.6405 180.227 14.7578 180.248 14.8432C180.419 15.3978 180.526 15.9525 180.568 16.5072C180.632 17.0618 180.664 17.5205 180.664 17.8832ZM179.224 17.3072C179.224 16.9872 179.192 16.6565 179.128 16.3152C179.064 15.9525 178.936 15.5898 178.744 15.2272C178.702 15.2485 178.648 15.2592 178.584 15.2592C178.499 15.2592 178.424 15.2485 178.36 15.2272C178.318 15.2058 178.275 15.1952 178.232 15.1952C177.976 15.1952 177.774 15.2698 177.624 15.4192C177.475 15.5472 177.358 15.7285 177.272 15.9632C177.208 16.1765 177.166 16.4112 177.144 16.6672C177.123 16.9232 177.112 17.1685 177.112 17.4032C177.112 17.6378 177.123 17.9045 177.144 18.2032C177.166 18.4805 177.208 18.7472 177.272 19.0032C177.358 19.2592 177.464 19.4832 177.592 19.6752C177.72 19.8458 177.891 19.9312 178.104 19.9312C178.318 19.9312 178.499 19.8245 178.648 19.6112C178.798 19.3765 178.915 19.1098 179 18.8112C179.086 18.5125 179.139 18.2245 179.16 17.9472C179.203 17.6485 179.224 17.4352 179.224 17.3072ZM191.521 18.4272C191.521 19.3872 191.404 20.2298 191.169 20.9552C190.956 21.6805 190.689 22.2885 190.369 22.7792C190.049 23.2485 189.718 23.6005 189.377 23.8352C189.057 24.0698 188.79 24.1872 188.577 24.1872C188.278 24.1872 187.99 24.0592 187.713 23.8032C187.436 23.5258 187.297 23.2698 187.297 23.0352C187.297 22.6938 187.436 22.5232 187.713 22.5232C187.82 22.5232 187.926 22.5658 188.033 22.6512C188.14 22.7152 188.236 22.7685 188.321 22.8112C188.684 22.5125 189.025 22.0218 189.345 21.3392C189.686 20.6565 189.857 19.6858 189.857 18.4272C189.857 17.9152 189.804 17.4565 189.697 17.0512C189.59 16.6458 189.462 16.3045 189.313 16.0272C189.185 15.7498 189.046 15.5365 188.897 15.3872C188.748 15.2378 188.641 15.1632 188.577 15.1632C188.364 15.1632 188.15 15.3765 187.937 15.8032C187.745 16.2298 187.574 16.7205 187.425 17.2752C187.276 17.8085 187.148 18.3418 187.041 18.8752C186.956 19.3872 186.913 19.7392 186.913 19.9312C186.934 20.0592 186.956 20.1765 186.977 20.2832C186.998 20.3898 187.02 20.4965 187.041 20.6032C187.062 20.7098 187.073 20.8165 187.073 20.9232C187.073 21.3285 186.934 21.6912 186.657 22.0112C186.38 22.3312 186.113 22.4912 185.857 22.4912C185.729 22.4912 185.622 22.4058 185.537 22.2352C185.473 22.0432 185.42 21.8085 185.377 21.5312C185.334 21.2538 185.292 20.9658 185.249 20.6672C185.228 20.3685 185.196 20.1018 185.153 19.8672C184.982 19.4832 184.758 18.8752 184.481 18.0432C184.204 17.2112 183.905 16.3258 183.585 15.3872C183.286 14.4272 182.998 13.4992 182.721 12.6032C182.465 11.7072 182.273 10.9925 182.145 10.4592C181.846 9.30717 181.622 8.3045 181.473 7.45116C181.302 6.5765 181.174 5.81917 181.089 5.17916C180.982 4.51783 180.918 3.9525 180.897 3.48317C180.876 3.01383 180.865 2.61917 180.865 2.29917C180.865 2.10717 180.95 1.95783 181.121 1.85117C181.27 1.7445 181.409 1.69116 181.537 1.69116C181.729 1.69116 181.868 1.73383 181.953 1.81916C182.038 1.88316 182.102 2.0325 182.145 2.26716C182.166 2.50183 182.198 2.84317 182.241 3.29116C182.262 3.73916 182.316 4.3365 182.401 5.08316C182.444 5.44583 182.518 5.94717 182.625 6.58717C182.753 7.22717 182.913 7.94183 183.105 8.73116C183.297 9.5205 183.5 10.3525 183.713 11.2272C183.948 12.0805 184.182 12.9018 184.417 13.6912C184.673 14.4805 184.918 15.2058 185.153 15.8672C185.409 16.5285 185.644 17.0512 185.857 17.4352C186.049 16.6672 186.284 15.9738 186.561 15.3552C186.796 14.8432 187.084 14.3738 187.425 13.9472C187.766 13.4992 188.182 13.2752 188.673 13.2752C188.865 13.2752 189.121 13.3605 189.441 13.5312C189.761 13.7018 190.07 13.9898 190.369 14.3952C190.689 14.8005 190.956 15.3338 191.169 15.9952C191.404 16.6565 191.521 17.4672 191.521 18.4272ZM203.395 21.4352C203.416 21.4778 203.427 21.5418 203.427 21.6272C203.427 21.7552 203.331 21.9472 203.139 22.2032C203.075 22.2885 202.936 22.4272 202.723 22.6192C202.509 22.8112 202.221 23.0032 201.859 23.1952C201.496 23.3872 201.048 23.5578 200.515 23.7072C200.003 23.8565 199.395 23.9312 198.691 23.9312C198.2 23.9312 197.72 23.8245 197.251 23.6112C196.781 23.3765 196.365 23.0458 196.003 22.6192C195.64 22.1712 195.341 21.6272 195.107 20.9872C194.872 20.3258 194.755 19.5578 194.755 18.6832C194.755 17.8512 194.861 17.0725 195.075 16.3472C195.288 15.6218 195.555 14.9818 195.875 14.4272C196.216 13.8725 196.589 13.4352 196.995 13.1152C197.4 12.7952 197.795 12.6352 198.179 12.6352C198.52 12.6352 198.861 12.7098 199.203 12.8592C199.565 12.9872 199.885 13.1578 200.163 13.3712C200.461 13.5845 200.696 13.8298 200.867 14.1072C201.037 14.3632 201.123 14.6298 201.123 14.9072C201.123 15.2272 200.973 15.5578 200.675 15.8992C200.397 16.2405 200.056 16.5605 199.651 16.8592C199.245 17.1365 198.84 17.3712 198.435 17.5632C198.029 17.7338 197.709 17.8192 197.475 17.8192C197.347 17.8192 197.229 17.7658 197.123 17.6592C197.037 17.5312 196.995 17.3818 196.995 17.2112C196.995 16.9125 197.123 16.6778 197.379 16.5072C197.656 16.3365 197.955 16.1872 198.275 16.0592C198.595 15.9098 198.883 15.7392 199.139 15.5472C199.416 15.3552 199.555 15.0885 199.555 14.7472C199.555 14.7045 199.501 14.5978 199.395 14.4272C199.288 14.2565 199 14.1712 198.531 14.1712C198.317 14.1712 198.072 14.2992 197.795 14.5552C197.517 14.7898 197.251 15.1205 196.995 15.5472C196.739 15.9525 196.525 16.4432 196.355 17.0192C196.184 17.5738 196.099 18.1818 196.099 18.8432C196.099 19.3978 196.195 19.8992 196.387 20.3472C196.6 20.7952 196.867 21.1792 197.187 21.4992C197.507 21.7978 197.88 22.0325 198.307 22.2032C198.733 22.3738 199.171 22.4592 199.619 22.4592C199.939 22.4592 200.28 22.3952 200.643 22.2672C201.027 22.1178 201.379 21.9685 201.699 21.8192C202.04 21.6485 202.328 21.4992 202.563 21.3712C202.819 21.2218 202.979 21.1472 203.043 21.1472C203.107 21.1472 203.171 21.1792 203.235 21.2432C203.32 21.3072 203.373 21.3712 203.395 21.4352ZM213.207 15.0352C213.207 15.1845 213.143 15.3125 213.015 15.4192C212.887 15.5045 212.738 15.5792 212.567 15.6432C212.396 15.7072 212.226 15.7605 212.055 15.8032C211.884 15.8245 211.746 15.8352 211.639 15.8352C211.319 15.8352 211.106 15.8138 210.999 15.7712C210.892 15.7285 210.807 15.7072 210.743 15.7072C210.21 15.7072 209.783 15.7498 209.463 15.8352C209.143 15.9205 208.887 16.0592 208.695 16.2512C208.524 16.4432 208.407 16.6885 208.343 16.9872C208.3 17.2645 208.279 17.6058 208.279 18.0112C208.279 18.6938 208.3 19.2378 208.343 19.6432C208.407 20.0485 208.46 20.3792 208.503 20.6352C208.567 20.8912 208.62 21.0938 208.663 21.2432C208.727 21.3712 208.759 21.4992 208.759 21.6272C208.759 21.7978 208.663 21.9792 208.471 22.1712C208.3 22.3632 208.14 22.4592 207.991 22.4592C207.735 22.4592 207.5 22.2352 207.287 21.7872C207.095 21.3178 206.924 20.7738 206.775 20.1552C206.647 19.5152 206.54 18.8858 206.455 18.2672C206.37 17.6485 206.327 17.1792 206.327 16.8592C206.327 16.4965 206.359 16.1552 206.423 15.8352C206.487 15.4938 206.572 15.2058 206.679 14.9712C206.786 14.7152 206.903 14.5125 207.031 14.3632C207.159 14.2138 207.287 14.1392 207.415 14.1392C207.522 14.1392 207.607 14.1818 207.671 14.2672C207.735 14.3312 207.788 14.4165 207.831 14.5232C207.874 14.6085 207.916 14.6938 207.959 14.7792C208.023 14.8432 208.098 14.8752 208.183 14.8752C208.375 14.8752 208.684 14.7792 209.111 14.5872C209.538 14.3952 210.06 14.2992 210.679 14.2992C211.255 14.2992 211.682 14.3205 211.959 14.3632C212.258 14.3845 212.546 14.4485 212.823 14.5552C212.887 14.5765 212.962 14.6298 213.047 14.7152C213.154 14.7792 213.207 14.8858 213.207 15.0352ZM224.26 10.3312C223.983 10.6512 223.588 10.9712 223.076 11.2912C222.564 11.5898 222.052 11.8672 221.54 12.1232C221.028 12.3792 220.58 12.6032 220.196 12.7952C219.812 12.9658 219.62 13.0832 219.62 13.1472C219.62 13.2112 219.663 13.4032 219.748 13.7232C219.833 14.0432 219.929 14.4272 220.036 14.8752C220.164 15.3018 220.292 15.7498 220.42 16.2192C220.548 16.6885 220.655 17.1045 220.74 17.4672C220.783 17.6805 220.836 17.9578 220.9 18.2992C220.964 18.6405 221.017 18.9818 221.06 19.3232C221.124 19.6645 221.177 19.9738 221.22 20.2512C221.263 20.5072 221.284 20.6458 221.284 20.6672C221.284 20.9872 221.231 21.3178 221.124 21.6592C221.017 22.0005 220.847 22.1712 220.612 22.1712C220.484 22.1712 220.367 22.1178 220.26 22.0112C220.153 21.9045 220.057 21.7872 219.972 21.6592C219.887 21.5098 219.823 21.3712 219.78 21.2432C219.737 21.1152 219.716 21.0192 219.716 20.9552C219.716 20.9125 219.716 20.8485 219.716 20.7632C219.737 20.6778 219.748 20.5818 219.748 20.4752C219.748 20.0698 219.684 19.4832 219.556 18.7152C219.513 18.4805 219.428 18.1178 219.3 17.6272C219.172 17.1365 219.044 16.6352 218.916 16.1232C218.767 15.5258 218.596 14.8752 218.404 14.1712C218.319 13.8725 218.265 13.7232 218.244 13.7232C218.095 13.7232 217.839 13.8192 217.476 14.0112C217.135 14.1818 216.74 14.4058 216.292 14.6832C215.844 14.9392 215.375 15.2272 214.884 15.5472C214.393 15.8458 213.935 16.1338 213.508 16.4112C213.081 16.6672 212.719 16.8912 212.42 17.0832C212.1 17.2538 211.908 17.3392 211.844 17.3392C211.567 17.3392 211.343 17.2432 211.172 17.0512C211.001 16.8592 210.916 16.6458 210.916 16.4112C210.916 16.2832 211.097 16.1018 211.46 15.8672C211.801 15.6112 212.239 15.3338 212.772 15.0352C213.284 14.7365 213.849 14.4272 214.468 14.1072C215.065 13.7872 215.62 13.4992 216.132 13.2432C216.665 12.9872 217.103 12.7738 217.444 12.6032C217.807 12.4325 217.988 12.3472 217.988 12.3472C217.796 11.3658 217.636 10.4912 217.508 9.72317C217.401 9.06183 217.295 8.45383 217.188 7.89917C217.103 7.3445 217.06 7.04583 217.06 7.00316C217.06 6.72583 217.113 6.52317 217.22 6.39516C217.348 6.24583 217.487 6.17117 217.636 6.17117C217.871 6.17117 218.02 6.33117 218.084 6.65117C218.319 7.80317 218.532 8.82717 218.724 9.72317C218.937 10.6192 219.14 11.3445 219.332 11.8992C219.524 11.8565 219.855 11.7392 220.324 11.5472C220.793 11.3338 221.284 11.1098 221.796 10.8752C222.308 10.6405 222.767 10.4378 223.172 10.2672C223.599 10.0752 223.844 9.97917 223.908 9.97917C224.036 9.97917 224.111 10.0218 224.132 10.1072C224.175 10.1925 224.217 10.2672 224.26 10.3312ZM241.199 18.1392C241.199 18.5232 241.017 19.0032 240.655 19.5792C240.313 20.1338 239.844 20.6778 239.247 21.2112C238.649 21.7445 237.956 22.2032 237.167 22.5872C236.377 22.9498 235.556 23.1312 234.703 23.1312C234.319 23.1312 233.913 23.0672 233.487 22.9392C233.06 22.8112 232.644 22.6298 232.239 22.3952C231.833 22.1392 231.471 21.8405 231.151 21.4992C230.831 21.1365 230.596 20.7312 230.447 20.2832C230.319 20.4112 230.159 20.6245 229.967 20.9232C229.796 21.2218 229.604 21.5312 229.391 21.8512C229.177 22.1498 228.943 22.4165 228.687 22.6512C228.431 22.8645 228.164 22.9712 227.887 22.9712C227.609 22.9712 227.375 22.8325 227.183 22.5552C227.012 22.2565 226.873 21.9365 226.767 21.5952C226.66 21.2325 226.585 20.8912 226.543 20.5712C226.5 20.2512 226.479 20.0698 226.479 20.0272C226.479 19.7712 226.553 19.2912 226.703 18.5872C226.852 17.8618 227.076 17.1152 227.375 16.3472C227.673 15.5792 228.047 14.8965 228.495 14.2992C228.964 13.7018 229.508 13.4032 230.127 13.4032C230.361 13.4032 230.511 13.5098 230.575 13.7232C230.66 13.9152 230.703 14.1072 230.703 14.2992V15.2592C230.809 15.3445 230.916 15.4085 231.023 15.4512C231.151 15.4725 231.257 15.5152 231.343 15.5792C231.449 15.6218 231.524 15.6965 231.567 15.8032C231.631 15.9098 231.663 16.0805 231.663 16.3152C231.663 16.4645 231.652 16.6032 231.631 16.7312C231.609 16.8378 231.599 16.9445 231.599 17.0512C231.599 17.6058 231.641 18.1498 231.727 18.6832C231.812 19.2165 231.983 19.6965 232.239 20.1232C232.495 20.5285 232.847 20.8698 233.295 21.1472C233.743 21.4032 234.34 21.5312 235.087 21.5312C236.025 21.5312 236.815 21.3392 237.455 20.9552C238.116 20.5498 238.66 20.1125 239.087 19.6432C239.535 19.1525 239.887 18.7152 240.143 18.3312C240.399 17.9258 240.612 17.7232 240.783 17.7232C241.06 17.7232 241.199 17.8618 241.199 18.1392ZM229.967 16.7312C229.967 16.6458 229.945 16.5712 229.903 16.5072C229.86 16.4218 229.839 16.3472 229.839 16.2832C229.839 16.1978 229.86 16.1232 229.903 16.0592C229.945 15.9952 229.967 15.9098 229.967 15.8032C229.967 15.7392 229.945 15.6965 229.903 15.6752C229.86 15.6325 229.839 15.5898 229.839 15.5472C229.647 15.5898 229.444 15.7712 229.231 16.0912C229.039 16.4112 228.847 16.7845 228.655 17.2112C228.484 17.6378 228.345 18.0752 228.239 18.5232C228.132 18.9498 228.079 19.3018 228.079 19.5792C228.079 19.7285 228.121 19.9738 228.207 20.3152C228.292 20.6565 228.388 20.8805 228.495 20.9872C228.857 20.2405 229.188 19.5152 229.487 18.8112C229.807 18.1072 229.967 17.4138 229.967 16.7312ZM270.171 26.5232C270.213 26.6512 270.256 26.7685 270.299 26.8752C270.341 26.9818 270.373 27.0992 270.395 27.2272C270.437 27.3552 270.458 27.4725 270.458 27.5792C270.458 27.7285 270.405 27.8458 270.299 27.9312C270.192 28.0378 270.064 28.1232 269.915 28.1872C269.787 28.2512 269.659 28.2938 269.531 28.3152C269.403 28.3365 269.328 28.3472 269.307 28.3472C269.179 28.3472 268.944 27.9525 268.603 27.1632C268.261 26.3952 267.888 25.3072 267.483 23.8992C267.099 22.4912 266.704 20.8165 266.299 18.8752C265.893 16.9338 265.563 14.8005 265.307 12.4752C265.264 12.9658 265.179 13.5418 265.051 14.2032C264.944 14.8432 264.773 15.4512 264.539 16.0272C264.304 16.6032 263.995 17.0938 263.611 17.4992C263.248 17.8832 262.779 18.0752 262.203 18.0752C261.797 18.0752 261.339 17.8618 260.827 17.4352C260.315 17.0085 259.813 16.5072 259.323 15.9312C258.853 15.3338 258.416 14.7365 258.011 14.1392C257.627 13.5205 257.339 13.0192 257.147 12.6352C257.232 13.5738 257.371 14.7045 257.562 16.0272C257.776 17.3498 258.096 18.7472 258.523 20.2192C258.565 20.3685 258.608 20.4858 258.651 20.5712C258.715 20.6352 258.768 20.7098 258.811 20.7952C258.875 20.8805 258.917 20.9765 258.939 21.0832C258.981 21.1685 259.003 21.3072 259.003 21.4992C259.003 21.7765 258.896 21.9792 258.683 22.1072C258.469 22.2352 258.267 22.2992 258.075 22.2992C257.968 22.2992 257.829 22.1392 257.659 21.8192C257.488 21.4778 257.307 21.0405 257.115 20.5072C256.923 19.9738 256.731 19.3872 256.539 18.7472C256.347 18.0858 256.165 17.4352 255.995 16.7952C255.845 16.1552 255.717 15.5578 255.611 15.0032C255.504 14.4272 255.451 13.9685 255.451 13.6272C255.451 13.0725 255.472 12.6885 255.515 12.4752C255.579 12.2618 255.664 12.1018 255.771 11.9952V10.0432C255.771 9.7445 255.845 9.5205 255.995 9.37117C256.165 9.2005 256.379 9.11517 256.635 9.11517C256.848 9.11517 257.093 9.2965 257.371 9.65917C257.648 10.0218 257.946 10.4805 258.266 11.0352C258.608 11.5898 258.96 12.1872 259.323 12.8272C259.685 13.4672 260.037 14.0645 260.379 14.6192C260.741 15.1738 261.083 15.6325 261.403 15.9952C261.744 16.3578 262.064 16.5392 262.363 16.5392C262.64 16.5392 262.907 16.2832 263.163 15.7712C263.419 15.2378 263.653 14.5445 263.867 13.6912C264.101 12.8378 264.304 11.8672 264.475 10.7792C264.645 9.69117 264.784 8.58183 264.891 7.45116C264.891 7.32316 264.88 7.1845 264.859 7.03517C264.837 6.8645 264.827 6.68317 264.827 6.49117C264.827 6.23516 264.88 5.95783 264.987 5.65916C265.115 5.3605 265.349 5.21116 265.691 5.21116C265.883 5.21116 266.032 5.2645 266.139 5.37116C266.267 5.47783 266.352 5.6165 266.395 5.78716C266.437 5.9365 266.459 6.0965 266.459 6.26716C266.48 6.4165 266.491 6.5445 266.491 6.65117C266.491 6.82183 266.469 7.10983 266.427 7.51517C266.405 7.89917 266.395 8.4965 266.395 9.30717C266.395 10.0112 266.448 10.8325 266.555 11.7712C266.661 12.6885 266.8 13.6698 266.971 14.7152C267.163 15.7392 267.376 16.8058 267.611 17.9152C267.867 19.0032 268.133 20.0698 268.411 21.1152C268.709 22.1605 268.997 23.1525 269.275 24.0912C269.573 25.0085 269.872 25.8192 270.171 26.5232ZM286.449 18.1392C286.449 18.5232 286.267 19.0032 285.905 19.5792C285.563 20.1338 285.094 20.6778 284.497 21.2112C283.899 21.7445 283.206 22.2032 282.417 22.5872C281.627 22.9498 280.806 23.1312 279.953 23.1312C279.569 23.1312 279.163 23.0672 278.737 22.9392C278.31 22.8112 277.894 22.6298 277.489 22.3952C277.083 22.1392 276.721 21.8405 276.401 21.4992C276.081 21.1365 275.846 20.7312 275.697 20.2832C275.569 20.4112 275.409 20.6245 275.217 20.9232C275.046 21.2218 274.854 21.5312 274.641 21.8512C274.427 22.1498 274.193 22.4165 273.937 22.6512C273.681 22.8645 273.414 22.9712 273.137 22.9712C272.859 22.9712 272.625 22.8325 272.433 22.5552C272.262 22.2565 272.123 21.9365 272.017 21.5952C271.91 21.2325 271.835 20.8912 271.793 20.5712C271.75 20.2512 271.729 20.0698 271.729 20.0272C271.729 19.7712 271.803 19.2912 271.953 18.5872C272.102 17.8618 272.326 17.1152 272.625 16.3472C272.923 15.5792 273.297 14.8965 273.745 14.2992C274.214 13.7018 274.758 13.4032 275.377 13.4032C275.611 13.4032 275.761 13.5098 275.825 13.7232C275.91 13.9152 275.953 14.1072 275.953 14.2992V15.2592C276.059 15.3445 276.166 15.4085 276.273 15.4512C276.401 15.4725 276.507 15.5152 276.593 15.5792C276.699 15.6218 276.774 15.6965 276.817 15.8032C276.881 15.9098 276.913 16.0805 276.913 16.3152C276.913 16.4645 276.902 16.6032 276.881 16.7312C276.859 16.8378 276.849 16.9445 276.849 17.0512C276.849 17.6058 276.891 18.1498 276.977 18.6832C277.062 19.2165 277.233 19.6965 277.489 20.1232C277.745 20.5285 278.097 20.8698 278.545 21.1472C278.993 21.4032 279.59 21.5312 280.337 21.5312C281.275 21.5312 282.065 21.3392 282.705 20.9552C283.366 20.5498 283.91 20.1125 284.337 19.6432C284.785 19.1525 285.137 18.7152 285.393 18.3312C285.649 17.9258 285.862 17.7232 286.033 17.7232C286.31 17.7232 286.449 17.8618 286.449 18.1392ZM275.217 16.7312C275.217 16.6458 275.195 16.5712 275.153 16.5072C275.11 16.4218 275.089 16.3472 275.089 16.2832C275.089 16.1978 275.11 16.1232 275.153 16.0592C275.195 15.9952 275.217 15.9098 275.217 15.8032C275.217 15.7392 275.195 15.6965 275.153 15.6752C275.11 15.6325 275.089 15.5898 275.089 15.5472C274.897 15.5898 274.694 15.7712 274.481 16.0912C274.289 16.4112 274.097 16.7845 273.905 17.2112C273.734 17.6378 273.595 18.0752 273.489 18.5232C273.382 18.9498 273.329 19.3018 273.329 19.5792C273.329 19.7285 273.371 19.9738 273.457 20.3152C273.542 20.6565 273.638 20.8805 273.745 20.9872C274.107 20.2405 274.438 19.5152 274.737 18.8112C275.057 18.1072 275.217 17.4138 275.217 16.7312ZM298.203 21.3712C298.203 21.5418 298.181 21.6698 298.139 21.7552C298.096 21.8192 297.989 21.8725 297.819 21.9152C297.627 21.9792 297.381 22.0538 297.083 22.1392C296.805 22.2032 296.496 22.2778 296.155 22.3632C295.813 22.4272 295.461 22.4912 295.099 22.5552C294.757 22.5978 294.437 22.6192 294.139 22.6192C293.776 22.6192 293.371 22.5978 292.923 22.5552C292.496 22.5125 292.08 22.4485 291.675 22.3632C291.269 22.2565 290.896 22.1498 290.555 22.0432C290.235 21.9152 290 21.7658 289.851 21.5952C289.957 22.0432 290.053 22.4912 290.139 22.9392C290.224 23.3872 290.288 23.8352 290.331 24.2832C290.331 24.3898 290.299 24.4858 290.235 24.5712C290.192 24.6352 290.053 24.6672 289.819 24.6672C289.712 24.6672 289.605 24.6458 289.499 24.6032C289.413 24.5392 289.339 24.4218 289.275 24.2512C289.083 23.8245 288.923 23.4298 288.795 23.0672C288.667 22.6832 288.549 22.2992 288.443 21.9152C288.357 21.5312 288.261 21.1258 288.155 20.6992C288.048 20.2725 287.92 19.8032 287.771 19.2912C287.536 18.4592 287.291 17.5738 287.035 16.6352C286.779 15.6752 286.544 14.7685 286.331 13.9152C286.117 13.0405 285.947 12.2725 285.819 11.6112C285.691 10.9285 285.627 10.4485 285.627 10.1712C285.627 10.0432 285.627 9.8725 285.627 9.65917C285.648 9.44583 285.68 9.24317 285.723 9.05117C285.787 8.83783 285.861 8.66717 285.947 8.53917C286.053 8.38983 286.192 8.31516 286.363 8.31516C286.469 8.31516 286.576 8.48583 286.683 8.82717C286.811 9.14717 286.917 9.50983 287.003 9.91516C287.109 10.2992 287.195 10.6725 287.259 11.0352C287.344 11.3765 287.387 11.5578 287.387 11.5792C287.472 12.0485 287.568 12.5712 287.674 13.1472C287.803 13.7018 287.931 14.2672 288.059 14.8432C288.187 15.4192 288.325 15.9738 288.475 16.5072C288.624 17.0192 288.784 17.4565 288.955 17.8192C288.976 17.6058 289.051 17.2965 289.179 16.8912C289.307 16.4858 289.477 16.0485 289.691 15.5792C289.904 15.1098 290.139 14.6298 290.395 14.1392C290.672 13.6272 290.949 13.1685 291.227 12.7632C291.525 12.3578 291.813 12.0272 292.091 11.7712C292.389 11.5152 292.667 11.3872 292.923 11.3872C293.328 11.3872 293.605 11.4405 293.755 11.5472C293.925 11.6538 294.01 11.7818 294.01 11.9312C294.01 12.0592 293.829 12.3152 293.467 12.6992C293.104 13.0618 292.699 13.5525 292.251 14.1712C291.803 14.7685 291.397 15.4832 291.035 16.3152C290.672 17.1258 290.491 18.0325 290.491 19.0352C290.491 19.3978 290.587 19.7178 290.779 19.9952C290.992 20.2512 291.259 20.4645 291.579 20.6352C291.92 20.8058 292.293 20.9445 292.699 21.0512C293.125 21.1365 293.541 21.1792 293.947 21.1792C294.309 21.1792 294.704 21.1685 295.131 21.1472C295.557 21.1258 295.952 21.1045 296.315 21.0832C296.699 21.0405 297.019 21.0085 297.275 20.9872C297.552 20.9658 297.723 20.9552 297.787 20.9552C297.893 20.9552 297.989 20.9872 298.075 21.0512C298.16 21.1152 298.203 21.2218 298.203 21.3712ZM304.681 15.5472C304.681 15.6752 304.606 15.8458 304.457 16.0592C304.329 16.2512 304.158 16.4645 303.945 16.6992C303.731 16.9338 303.486 17.1792 303.209 17.4352C302.953 17.6698 302.697 17.8832 302.441 18.0752C302.483 18.2885 302.526 18.4485 302.569 18.5552L303.849 23.8672C303.849 24.0378 303.785 24.1658 303.657 24.2512C303.529 24.3365 303.379 24.3792 303.209 24.3792C303.017 24.3792 302.814 24.2085 302.601 23.8672C302.409 23.5045 302.217 23.0565 302.025 22.5232C301.833 21.9898 301.651 21.4032 301.481 20.7632C301.31 20.1232 301.161 19.5258 301.033 18.9712C300.926 18.9925 300.798 19.0032 300.649 19.0032C300.478 19.0032 300.265 18.9072 300.009 18.7152C299.753 18.5232 299.625 18.3418 299.625 18.1712C299.625 18.1285 299.721 18.0752 299.913 18.0112C300.105 17.9258 300.318 17.8192 300.553 17.6912L300.745 17.5632C300.702 17.3285 300.67 17.1472 300.649 17.0192C300.627 16.8698 300.617 16.7845 300.617 16.7632C300.617 16.6778 300.574 16.4538 300.489 16.0912C300.425 15.7285 300.329 15.1632 300.201 14.3952C300.094 13.6272 299.966 12.6352 299.817 11.4192C299.689 10.1818 299.55 8.6565 299.401 6.84316C299.401 6.65116 299.433 6.40583 299.497 6.10716C299.561 5.8085 299.71 5.65916 299.945 5.65916C300.243 5.65916 300.467 5.86183 300.617 6.26716C300.787 6.6725 300.915 7.17383 301.001 7.77117C301.107 8.3685 301.182 8.99783 301.225 9.65917C301.267 10.2992 301.321 10.8645 301.385 11.3552C301.513 12.3578 301.619 13.2538 301.705 14.0432C301.811 14.8112 301.95 15.6218 302.121 16.4752C302.526 16.1338 302.91 15.8245 303.273 15.5472C303.635 15.2698 303.881 15.1312 304.009 15.1312C304.158 15.1312 304.307 15.1738 304.457 15.2592C304.606 15.3445 304.681 15.4405 304.681 15.5472ZM312.071 17.8832C312.071 18.3525 312.007 18.8005 311.879 19.2272C311.751 19.6538 311.58 20.0272 311.367 20.3472C311.153 20.6672 310.897 20.9232 310.599 21.1152C310.321 21.2858 310.012 21.3712 309.671 21.3712C309.073 21.3712 308.604 21.2005 308.263 20.8592C307.921 20.5178 307.655 20.1232 307.463 19.6752C307.292 19.2272 307.175 18.7792 307.111 18.3312C307.068 17.8618 307.047 17.5098 307.047 17.2752C307.047 16.8912 307.1 16.4645 307.207 15.9952C307.335 15.5045 307.495 15.0565 307.687 14.6512C307.9 14.2458 308.135 13.9045 308.391 13.6272C308.647 13.3498 308.913 13.2112 309.191 13.2112C309.255 13.2112 309.351 13.2325 309.479 13.2752C309.628 13.3178 309.777 13.3818 309.927 13.4672C310.076 13.5525 310.204 13.6592 310.311 13.7872C310.439 13.9152 310.524 14.0645 310.567 14.2352C310.801 14.2565 311.036 14.3418 311.271 14.4912C311.505 14.6405 311.633 14.7578 311.655 14.8432C311.825 15.3978 311.932 15.9525 311.975 16.5072C312.039 17.0618 312.071 17.5205 312.071 17.8832ZM310.631 17.3072C310.631 16.9872 310.599 16.6565 310.535 16.3152C310.471 15.9525 310.343 15.5898 310.151 15.2272C310.108 15.2485 310.055 15.2592 309.991 15.2592C309.905 15.2592 309.831 15.2485 309.766 15.2272C309.724 15.2058 309.681 15.1952 309.639 15.1952C309.383 15.1952 309.18 15.2698 309.031 15.4192C308.881 15.5472 308.764 15.7285 308.679 15.9632C308.615 16.1765 308.572 16.4112 308.551 16.6672C308.529 16.9232 308.519 17.1685 308.519 17.4032C308.519 17.6378 308.529 17.9045 308.551 18.2032C308.572 18.4805 308.615 18.7472 308.679 19.0032C308.764 19.2592 308.871 19.4832 308.999 19.6752C309.127 19.8458 309.297 19.9312 309.511 19.9312C309.724 19.9312 309.905 19.8245 310.055 19.6112C310.204 19.3765 310.321 19.1098 310.407 18.8112C310.492 18.5125 310.545 18.2245 310.567 17.9472C310.609 17.6485 310.631 17.4352 310.631 17.3072ZM324.975 10.7152C325.061 10.7365 325.103 10.8005 325.103 10.9072C325.103 11.0565 325.029 11.2165 324.879 11.3872C324.73 11.5365 324.655 11.7072 324.655 11.8992C324.655 11.9418 324.645 12.1018 324.623 12.3792C324.623 12.6565 324.623 12.9658 324.623 13.3072C324.623 13.6485 324.613 13.9685 324.591 14.2672C324.591 14.5658 324.591 14.7365 324.591 14.7792V17.9472C324.591 17.9685 324.581 18.1178 324.559 18.3952C324.538 18.6725 324.495 19.0032 324.431 19.3872C324.389 19.7712 324.335 20.1765 324.271 20.6032C324.229 21.0085 324.175 21.3605 324.111 21.6592C324.09 21.7445 324.026 21.8085 323.919 21.8512C323.834 21.8938 323.727 21.9365 323.599 21.9792C323.493 22.0005 323.386 22.0218 323.279 22.0432C323.173 22.0432 323.109 22.0432 323.087 22.0432C322.853 22.0432 322.597 21.9045 322.319 21.6272C322.063 21.3498 321.818 21.0405 321.583 20.6992C321.349 20.3578 321.146 20.0378 320.975 19.7392C320.805 19.4405 320.709 19.2698 320.687 19.2272C320.602 19.5258 320.506 19.8352 320.399 20.1552C320.293 20.4538 320.175 20.7312 320.047 20.9872C319.919 21.2432 319.77 21.4565 319.599 21.6272C319.45 21.7978 319.279 21.8832 319.087 21.8832C318.831 21.8832 318.565 21.7552 318.287 21.4992C318.01 21.2432 317.722 20.9125 317.423 20.5072C317.146 20.1018 316.879 19.6538 316.623 19.1632C316.367 18.6512 316.143 18.1605 315.951 17.6912C315.759 17.2218 315.599 16.7845 315.471 16.3792C315.365 15.9738 315.311 15.6538 315.311 15.4192C315.311 15.3338 315.354 15.2272 315.439 15.0992C315.525 14.9712 315.642 14.9072 315.791 14.9072C316.09 14.9072 316.303 15.0032 316.431 15.1952C316.453 15.2165 316.517 15.4085 316.623 15.7712C316.751 16.1338 316.922 16.5605 317.135 17.0512C317.349 17.5418 317.594 18.0538 317.871 18.5872C318.17 19.0992 318.501 19.5365 318.863 19.8992C319.013 19.6218 319.13 19.3125 319.215 18.9712C319.322 18.6298 319.407 18.2992 319.471 17.9792C319.535 17.6592 319.578 17.3712 319.599 17.1152C319.621 16.8378 319.631 16.6138 319.631 16.4432C319.589 16.2725 319.557 16.1018 319.535 15.9312C319.514 15.7818 319.493 15.6325 319.471 15.4832C319.471 15.3338 319.471 15.2058 319.471 15.0992C319.471 14.5658 319.685 14.2992 320.111 14.2992C320.431 14.2992 320.677 14.4058 320.847 14.6192C321.018 14.8112 321.146 15.0458 321.231 15.3232C321.317 15.5792 321.37 15.8352 321.391 16.0912C321.434 16.3472 321.477 16.5285 321.519 16.6352C321.69 17.1258 321.839 17.5845 321.967 18.0112C322.117 18.4378 322.362 18.8752 322.703 19.3232C322.789 19.2592 322.853 19.1525 322.895 19.0032C322.959 18.8325 323.002 18.6618 323.023 18.4912C323.045 18.3205 323.055 18.1712 323.055 18.0432C323.055 17.8938 323.055 17.7872 323.055 17.7232V11.3552C323.055 11.2272 323.109 11.1098 323.215 11.0032C323.322 10.8965 323.45 10.8005 323.599 10.7152C323.749 10.6298 323.887 10.5658 324.015 10.5232C324.165 10.4592 324.271 10.4272 324.335 10.4272C324.442 10.4272 324.538 10.4592 324.623 10.5232C324.73 10.5872 324.847 10.6512 324.975 10.7152ZM329.574 10.0752C329.574 10.1178 329.5 10.2032 329.35 10.3312C329.201 10.4592 329.02 10.5978 328.806 10.7472C328.614 10.8752 328.412 10.9925 328.198 11.0992C327.985 11.2058 327.814 11.2592 327.686 11.2592C327.601 11.2592 327.484 11.2592 327.334 11.2592C327.206 11.2378 327.068 11.1952 326.918 11.1312C326.79 11.0672 326.673 10.9818 326.566 10.8752C326.46 10.7472 326.406 10.5872 326.406 10.3952C326.406 10.0965 326.513 9.81917 326.726 9.56317C326.94 9.28583 327.217 9.14717 327.558 9.14717C327.622 9.14717 327.761 9.17917 327.974 9.24317C328.209 9.28583 328.444 9.34983 328.678 9.43517C328.913 9.5205 329.116 9.6165 329.286 9.72317C329.478 9.82983 329.574 9.94717 329.574 10.0752ZM330.63 22.0432C330.63 22.1925 330.513 22.3205 330.278 22.4272C330.065 22.5338 329.905 22.5872 329.798 22.5872C329.585 22.5872 329.393 22.4485 329.222 22.1712C329.052 21.8938 328.902 21.5738 328.774 21.2112C328.646 20.8485 328.54 20.5072 328.454 20.1872C328.369 19.8458 328.305 19.6112 328.262 19.4832C328.198 19.2698 328.113 19.0138 328.006 18.7152C327.9 18.4165 327.793 18.1285 327.686 17.8512C327.601 17.5738 327.526 17.3285 327.462 17.1152C327.398 16.9018 327.366 16.7845 327.366 16.7632C327.366 16.4645 327.42 16.1872 327.526 15.9312C327.654 15.6752 327.804 15.5472 327.974 15.5472C328.166 15.5472 328.369 15.6965 328.582 15.9952C328.796 16.2938 328.998 16.6778 329.19 17.1472C329.404 17.5952 329.596 18.0965 329.766 18.6512C329.937 19.1845 330.086 19.6965 330.214 20.1872C330.342 20.6565 330.438 21.0725 330.502 21.4352C330.588 21.7765 330.63 21.9792 330.63 22.0432ZM341.871 18.9712C341.871 19.1845 341.839 19.4085 341.775 19.6432C341.711 19.8565 341.647 20.0378 341.583 20.1872C341.54 20.2512 341.338 20.4752 340.975 20.8592C340.634 21.2218 340.196 21.6058 339.663 22.0112C339.151 22.4165 338.564 22.7898 337.903 23.1312C337.263 23.4512 336.644 23.6112 336.047 23.6112C335.684 23.6112 335.311 23.5472 334.927 23.4192C334.564 23.2912 334.223 23.0885 333.903 22.8112C333.583 22.5125 333.316 22.1498 333.103 21.7232C332.911 21.2965 332.815 20.7738 332.815 20.1552C332.815 19.1312 332.986 18.2032 333.327 17.3712C333.668 16.5392 334.01 15.8778 334.351 15.3872C334.5 15.1525 334.692 14.9178 334.927 14.6832C335.183 14.4272 335.428 14.2032 335.663 14.0112C335.898 13.7978 336.111 13.6272 336.303 13.4992C336.516 13.3712 336.666 13.3072 336.751 13.3072C336.943 13.3072 337.114 13.3605 337.263 13.4672C337.434 13.5738 337.519 13.6805 337.519 13.7872C337.519 13.9578 337.466 14.1072 337.359 14.2352C337.274 14.3418 337.146 14.4698 336.975 14.6192C336.804 14.7472 336.602 14.9285 336.367 15.1632C336.132 15.3765 335.887 15.6645 335.631 16.0272C335.119 16.7312 334.735 17.4565 334.479 18.2032C334.244 18.9285 334.127 19.5685 334.127 20.1232C334.127 20.6778 334.33 21.1258 334.735 21.4672C335.162 21.7872 335.599 21.9472 336.047 21.9472C336.858 21.9472 337.572 21.7658 338.191 21.4032C338.831 21.0405 339.375 20.6352 339.823 20.1872C340.271 19.7392 340.634 19.3338 340.911 18.9712C341.188 18.6085 341.391 18.4272 341.519 18.4272C341.754 18.4272 341.871 18.6085 341.871 18.9712ZM356.148 18.2352C356.148 18.4058 356.127 18.5765 356.084 18.7472C356.063 18.9178 355.999 19.0245 355.892 19.0672C355.466 19.2592 354.911 19.4298 354.228 19.5792C353.546 19.7072 352.916 19.8885 352.34 20.1232C351.978 20.2725 351.53 20.4752 350.996 20.7312C350.463 20.9872 349.908 21.2432 349.332 21.4992C348.756 21.7552 348.202 21.9792 347.668 22.1712C347.135 22.3418 346.698 22.4272 346.356 22.4272C346.079 22.4272 345.812 22.3205 345.556 22.1072C345.3 21.8938 345.172 21.6698 345.172 21.4352C345.172 21.0085 345.364 20.4965 345.748 19.8992C346.154 19.2805 346.612 18.6512 347.124 18.0112C347.658 17.3712 348.17 16.7632 348.66 16.1872C349.172 15.5898 349.535 15.1098 349.748 14.7472C349.727 14.7472 349.695 14.7365 349.652 14.7152C349.61 14.6725 349.546 14.6512 349.46 14.6512C348.799 14.8645 348.18 15.0565 347.604 15.2272C347.114 15.3765 346.602 15.5152 346.068 15.6432C345.556 15.7498 345.14 15.8032 344.82 15.8032C344.607 15.8032 344.436 15.7072 344.308 15.5152C344.202 15.3232 344.148 15.1098 344.148 14.8752C344.148 14.8112 344.159 14.7472 344.18 14.6832C344.223 14.6192 344.298 14.5872 344.404 14.5872C344.682 14.5232 345.098 14.4165 345.652 14.2672C346.228 14.1178 346.836 13.9685 347.476 13.8192C348.116 13.6485 348.724 13.5098 349.3 13.4032C349.898 13.2752 350.356 13.2112 350.676 13.2112C350.911 13.2112 351.156 13.3072 351.412 13.4992C351.69 13.6698 351.903 13.8938 352.052 14.1712L347.284 20.2832L347.092 20.6672C347.092 20.7525 347.124 20.7952 347.188 20.7952C347.359 20.7952 347.594 20.7205 347.892 20.5712C348.212 20.4218 348.639 20.2085 349.172 19.9312C349.727 19.6538 350.431 19.3232 351.284 18.9392C352.159 18.5552 353.236 18.1392 354.516 17.6912C354.73 17.6272 354.932 17.5952 355.124 17.5952C355.444 17.5952 355.69 17.6698 355.86 17.8192C356.052 17.9685 356.148 18.1072 356.148 18.2352ZM372.605 18.1392C372.605 18.5232 372.424 19.0032 372.061 19.5792C371.72 20.1338 371.25 20.6778 370.653 21.2112C370.056 21.7445 369.362 22.2032 368.573 22.5872C367.784 22.9498 366.962 23.1312 366.109 23.1312C365.725 23.1312 365.32 23.0672 364.893 22.9392C364.466 22.8112 364.05 22.6298 363.645 22.3952C363.24 22.1392 362.877 21.8405 362.557 21.4992C362.237 21.1365 362.002 20.7312 361.853 20.2832C361.725 20.4112 361.565 20.6245 361.373 20.9232C361.202 21.2218 361.01 21.5312 360.797 21.8512C360.584 22.1498 360.349 22.4165 360.093 22.6512C359.837 22.8645 359.57 22.9712 359.293 22.9712C359.016 22.9712 358.781 22.8325 358.589 22.5552C358.418 22.2565 358.28 21.9365 358.173 21.5952C358.066 21.2325 357.992 20.8912 357.949 20.5712C357.906 20.2512 357.885 20.0698 357.885 20.0272C357.885 19.7712 357.96 19.2912 358.109 18.5872C358.258 17.8618 358.482 17.1152 358.781 16.3472C359.08 15.5792 359.453 14.8965 359.901 14.2992C360.37 13.7018 360.914 13.4032 361.533 13.4032C361.768 13.4032 361.917 13.5098 361.981 13.7232C362.066 13.9152 362.109 14.1072 362.109 14.2992V15.2592C362.216 15.3445 362.322 15.4085 362.429 15.4512C362.557 15.4725 362.664 15.5152 362.749 15.5792C362.856 15.6218 362.93 15.6965 362.973 15.8032C363.037 15.9098 363.069 16.0805 363.069 16.3152C363.069 16.4645 363.058 16.6032 363.037 16.7312C363.016 16.8378 363.005 16.9445 363.005 17.0512C363.005 17.6058 363.048 18.1498 363.133 18.6832C363.218 19.2165 363.389 19.6965 363.645 20.1232C363.901 20.5285 364.253 20.8698 364.701 21.1472C365.149 21.4032 365.746 21.5312 366.493 21.5312C367.432 21.5312 368.221 21.3392 368.861 20.9552C369.522 20.5498 370.066 20.1125 370.493 19.6432C370.941 19.1525 371.293 18.7152 371.549 18.3312C371.805 17.9258 372.018 17.7232 372.189 17.7232C372.466 17.7232 372.605 17.8618 372.605 18.1392ZM361.373 16.7312C361.373 16.6458 361.352 16.5712 361.309 16.5072C361.266 16.4218 361.245 16.3472 361.245 16.2832C361.245 16.1978 361.266 16.1232 361.309 16.0592C361.352 15.9952 361.373 15.9098 361.373 15.8032C361.373 15.7392 361.352 15.6965 361.309 15.6752C361.266 15.6325 361.245 15.5898 361.245 15.5472C361.053 15.5898 360.85 15.7712 360.637 16.0912C360.445 16.4112 360.253 16.7845 360.061 17.2112C359.89 17.6378 359.752 18.0752 359.645 18.5232C359.538 18.9498 359.485 19.3018 359.485 19.5792C359.485 19.7285 359.528 19.9738 359.613 20.3152C359.698 20.6565 359.794 20.8805 359.901 20.9872C360.264 20.2405 360.594 19.5152 360.893 18.8112C361.213 18.1072 361.373 17.4138 361.373 16.7312Z" fill="#0016DE"/>
<path d="M119.053 8.87377C119.612 8.75186 120.688 8.78709 121.283 8.80577C121.294 8.80606 121.304 8.80636 121.315 8.80665C121.455 8.81111 121.591 8.81103 121.747 8.81082C122.116 8.8103 122.623 8.80969 123.672 8.86911C123.811 8.86592 123.951 8.86295 124.092 8.86022C124.229 8.85742 124.363 8.85058 124.499 8.83963C127.219 8.62542 129.825 6.67592 131.986 4.39605C132.013 4.36547 132.038 4.33621 132.065 4.3037C132.209 4.13452 132.362 3.95174 132.515 3.76674C132.576 3.68646 132.604 3.62716 132.631 3.49841C132.657 3.3728 132.663 3.18711 132.66 3.0031C132.661 3.01273 132.664 3.02154 132.666 3.02941C132.753 3.187 132.661 2.92797 132.517 2.79104C132.375 2.63324 132.209 2.48842 132.054 2.36193C131.879 2.23758 131.69 2.11589 131.494 1.99684C130.071 1.49172 127.179 1.67869 124.942 1.77826C124.567 1.79926 124.201 1.82202 123.824 1.84766C123.382 1.87777 122.946 1.91564 122.509 1.96229C121.77 2.04117 121.034 2.14339 120.303 2.26967C119.884 2.36355 119.481 2.46704 119.115 2.56737C118.598 2.70888 118.145 2.84538 117.768 2.94684C116.857 3.18965 115.824 3.44348 115.069 3.66815C114.944 3.70474 114.83 3.73925 114.721 3.77331C114.14 3.99693 113.568 4.24139 113.03 4.51569C112.99 4.52434 112.953 4.53088 112.909 4.54076C112.804 4.56227 112.693 4.59506 112.592 4.63147C112.16 4.80004 111.666 5.0931 111.021 5.56688C110.666 5.82921 110.264 6.14823 109.812 6.54684C109.522 6.80408 109.345 6.91012 109.2 6.99731C109.157 7.02302 109.118 7.04656 109.079 7.07343C108.946 7.16507 108.857 7.30974 108.757 7.48086C108.626 7.70529 108.478 7.97092 108.191 8.24835C107.282 9.14208 107.168 9.74908 107.149 10.0829C107.145 10.1585 107.148 10.2224 107.154 10.2676C107.166 10.2281 107.174 10.1807 107.174 10.1337C107.156 9.86439 107.044 9.8398 107.103 9.87935C107.146 9.91601 107.253 9.98298 107.364 10.0374C107.441 10.0747 107.516 10.1087 107.589 10.1394C107.827 10.2517 108.374 10.2277 108.792 10.0863C108.949 10.0371 109.17 9.99042 109.436 9.91427C109.711 9.83595 110.035 9.72552 110.375 9.56696C111.235 9.1605 111.704 8.90403 112.08 8.71236C112.188 8.65662 112.289 8.60464 112.389 8.55264C112.707 8.38775 113.109 8.18986 113.521 7.99272C114.013 7.75674 114.522 7.52358 114.909 7.3402C115.016 7.30158 115.124 7.2631 115.233 7.22482L115.186 7.24407C115.945 6.94735 116.666 6.54791 117.502 6.10548C117.562 6.07422 117.622 6.04352 117.682 6.01274C118.207 5.74489 118.776 5.60224 119.217 5.61043C119.66 5.61776 119.953 5.7582 120.047 5.98608C120.141 6.21516 120.026 6.51725 119.75 6.83584C119.473 7.15516 119.074 7.46352 118.628 7.73275C118.576 7.76389 118.525 7.79509 118.473 7.82696C117.741 8.28145 116.93 8.81238 116.045 9.22176C116.037 9.22488 116.013 9.23539 116.005 9.23815C115.87 9.29456 115.739 9.35047 115.606 9.40779C114.391 9.9282 113.201 10.5175 111.923 11.0659C111.022 11.4418 110.084 11.8291 108.953 11.9887C108.835 12.0043 108.72 12.0162 108.598 12.0248C107.998 12.1156 107.321 12.0834 106.752 11.9211C106.383 11.8108 106.029 11.6837 105.643 11.3272C105.373 11.0986 105.022 10.4698 105.164 9.87738C105.259 9.46024 105.388 9.22801 105.5 9.01471C105.618 8.79859 105.728 8.62491 105.826 8.44582C105.879 8.34836 105.949 8.21956 106.04 8.06639C106.4 7.44117 107.107 6.47506 107.905 5.75994C108.256 5.44027 108.694 5.10442 109.125 4.80812C109.74 4.38219 110.341 4.04066 110.619 3.83131C110.957 3.57581 111.359 3.33681 111.762 3.13143C111.958 3.03169 112.146 2.94894 112.324 2.87441C112.875 2.64443 113.351 2.48355 113.606 2.34158C113.91 2.1734 114.196 2.09125 114.618 1.98091C114.907 1.90616 115.268 1.81604 115.751 1.68568C116.309 1.53588 116.712 1.46801 117.054 1.41288C117.538 1.33581 117.896 1.28521 118.419 1.11775C118.997 0.932437 119.618 0.779781 120.11 0.721012C120.337 0.6935 120.591 0.652373 120.859 0.611799C121.211 0.558384 121.582 0.507264 121.928 0.489865C122.206 0.476264 122.451 0.498699 122.656 0.520875C122.721 0.527704 122.783 0.53431 122.844 0.539688C123.069 0.517566 123.289 0.49734 123.513 0.477925C123.549 0.467318 123.587 0.455775 123.626 0.443873C123.655 0.435106 123.685 0.42607 123.716 0.416887C123.897 0.363505 124.101 0.305254 124.36 0.263431C124.832 0.186536 125.251 0.184971 125.696 0.185635C126.041 0.186288 126.399 0.188368 126.811 0.159008C127.089 0.139105 127.41 0.104677 127.727 0.0734199C128.198 0.0266222 128.667 -0.0120862 128.996 0.00365382C129.116 0.00946224 129.226 0.0393669 129.329 0.0696651C129.329 0.0698498 129.33 0.0700344 129.33 0.070219C129.337 0.0722771 129.344 0.0742885 129.351 0.0763409C130.164 0.0701892 130.933 0.0217952 131.905 0.259695C131.994 0.27925 132.086 0.303747 132.187 0.339158C132.243 0.358758 132.312 0.387081 132.374 0.416339C132.653 0.534732 132.92 0.657873 133.116 0.732981C133.356 0.848928 133.923 1.07301 134.53 1.87036C134.689 2.09847 134.851 2.41474 134.895 2.80906C134.933 3.07798 134.955 3.37179 134.943 3.65804C134.932 3.9445 134.836 4.23632 134.686 4.51249C134.556 4.75087 134.389 4.97591 134.204 5.19642C134.195 5.20795 134.185 5.21977 134.176 5.23191C134.114 5.31005 134.05 5.40487 133.985 5.50152C133.925 5.58981 133.865 5.6787 133.794 5.77203C133.728 5.85863 133.559 6.02495 133.334 6.23995C133.197 6.36967 133.038 6.51822 132.87 6.67557C132.469 7.12161 132.045 7.55995 131.6 7.97715C131.523 8.08153 131.462 8.18119 131.424 8.27335C131.397 8.33896 131.381 8.40348 131.364 8.46977C131.341 8.55985 131.315 8.6541 131.259 8.75751C131.215 8.83836 131.144 8.91274 131.082 8.94381C131.053 8.95829 131.026 8.96345 131.001 8.96813C130.973 8.97349 130.948 8.97799 130.927 8.99515C130.911 9.00752 130.901 9.02753 130.888 9.05201C130.867 9.09108 130.839 9.14188 130.775 9.19147C130.537 9.37564 130.253 9.57004 129.967 9.75161C129.649 9.95353 129.327 10.1391 129.071 10.2907C128.785 10.4616 128.344 10.6528 127.888 10.8122C127.569 10.9242 127.244 11.0213 126.965 11.1037C126.691 11.1846 126.409 11.2855 126.129 11.3712C125.793 11.4745 125.459 11.5551 125.167 11.5623C125.108 11.5638 125.031 11.5355 124.936 11.4983C124.869 11.472 124.792 11.4412 124.706 11.4129C124.514 11.4284 124.323 11.4371 124.129 11.4391C123.98 11.4405 123.833 11.4415 123.686 11.4422C123.676 11.4475 123.664 11.4528 123.653 11.4582C123.653 11.4584 123.653 11.4585 123.652 11.4586C123.397 11.5816 123.051 11.7497 122.551 11.6589C122.425 11.6357 122.347 11.591 122.275 11.5508C122.203 11.5112 122.14 11.4759 122.048 11.4694C121.943 11.4622 121.823 11.4885 121.689 11.5172C121.499 11.5575 121.293 11.6024 121.08 11.5655C121.066 11.563 121.05 11.5602 121.034 11.5574C120.878 11.5313 120.658 11.4924 120.428 11.4115C119.76 11.3969 119.092 11.378 118.424 11.3561C117.313 11.3197 116.194 11.2751 115.086 11.2286C114.54 11.2057 114.021 11.0949 113.639 10.9147C113.258 10.7342 113.033 10.5005 113.041 10.2581C113.032 10.0158 113.254 9.781 113.633 9.59685C114.012 9.41294 114.528 9.29626 115.073 9.26587C115.954 9.21689 116.83 9.16664 117.714 9.11871C117.76 9.11325 117.805 9.10795 117.852 9.10295C118.199 9.06569 118.515 8.99433 118.831 8.92277C118.904 8.90633 118.979 8.88983 119.053 8.87377ZM108.538 14.1201C108.702 14.3418 108.77 14.8087 108.819 15.053C108.82 15.0575 108.821 15.062 108.822 15.0665C108.834 15.1254 108.848 15.1773 108.867 15.2396C108.911 15.3802 108.97 15.5964 109.059 15.9395C109.106 16.025 109.151 16.0968 109.184 16.1416C109.187 16.146 109.19 16.1501 109.193 16.1538C109.192 16.1488 109.143 16.1099 109.151 16.1196C109.156 16.1261 109.218 16.1577 109.313 16.1878C109.507 16.2507 109.801 16.3092 110.101 16.3593C110.711 16.4599 111.377 16.5441 112.041 16.6329C112.281 16.6652 112.529 16.697 112.773 16.728C112.793 16.7285 112.815 16.729 112.835 16.7295C113.234 16.7388 113.731 16.7462 114.042 16.8011C114.438 16.8711 114.704 16.9303 114.926 16.9809C116.196 17.1161 117.471 17.2248 118.745 17.2636C119.145 17.2757 119.544 17.2807 119.942 17.2768C120.309 17.2733 120.675 17.2635 121.04 17.2469C121.252 17.216 121.454 17.1792 121.637 17.1441C121.731 17.1261 121.822 17.1085 121.906 17.0924C122.056 17.0639 122.188 17.0389 122.303 17.0234C122.747 16.9652 123.247 16.9475 123.617 16.915C123.676 16.9103 123.735 16.9045 123.788 16.899C124.07 16.8298 124.351 16.7474 124.62 16.653C124.641 16.6571 124.662 16.6615 124.684 16.6659C124.953 16.72 125.249 16.6283 125.673 16.438C125.859 16.3532 126.068 16.2488 126.309 16.1167C126.464 16.0312 126.567 16.0229 126.654 16.0153C126.679 16.013 126.702 16.0111 126.725 16.0065C126.805 15.9902 126.846 15.9186 126.896 15.8311C126.959 15.7188 127.03 15.584 127.212 15.5055C127.772 15.256 127.935 14.9532 128.096 14.7226C128.102 14.7134 128.108 14.7043 128.113 14.6953C128.152 14.6326 128.189 14.5754 128.232 14.5276C128.374 14.3707 128.639 14.2435 128.852 14.1766C129.021 14.1224 129.28 13.9005 129.465 13.7144C129.535 13.6438 129.646 13.5748 129.777 13.4944C129.912 13.4115 130.068 13.3163 130.222 13.194C130.612 12.8854 130.821 12.7268 130.988 12.5989C131.035 12.5625 131.08 12.5287 131.124 12.4948C131.263 12.3875 131.44 12.2624 131.619 12.1361C131.832 11.9847 132.046 11.8314 132.2 11.704C132.256 11.6741 132.315 11.6429 132.372 11.6132L132.359 11.6207C132.635 11.4697 132.964 11.2877 133.392 11.1573C133.646 11.0788 133.905 11.0455 134.097 11.0315C134.419 11.0086 134.685 11.0999 134.895 11.2647C135.104 11.4306 135.228 11.66 135.249 11.9061C135.268 12.1524 135.181 12.3983 135.007 12.5963C134.837 12.7944 134.587 12.9261 134.364 12.976C134.224 13.0074 134.14 13.0372 134.067 13.0759C133.918 13.1496 133.73 13.2783 133.507 13.441C133.505 13.4421 133.499 13.4463 133.497 13.4474C133.426 13.4969 133.354 13.5469 133.282 13.5957C132.724 13.9781 132.163 14.3347 131.597 14.6704C131.202 14.9051 130.807 15.1349 130.419 15.3644C130.379 15.3879 130.339 15.4117 130.299 15.4353C130.012 15.6878 129.735 15.9372 129.54 16.0977C129.436 16.1832 129.341 16.2399 129.258 16.2822C129.225 16.2956 129.188 16.3114 129.154 16.3269C129.084 16.3593 129.016 16.3957 128.958 16.4499C128.925 16.48 128.884 16.5215 128.829 16.5766C128.612 16.7938 128.174 17.2247 127.668 17.4914C127.445 17.6107 127.168 17.7186 126.905 17.8029C126.525 17.9264 126.174 18.0018 126.015 18.0865C125.735 18.2367 125.382 18.3223 125.076 18.3798C124.781 18.436 124.528 18.4701 124.392 18.5412C124.231 18.6255 124.077 18.635 123.858 18.642C123.703 18.647 123.517 18.6506 123.263 18.6722C122.977 18.6959 122.766 18.6803 122.593 18.6653C122.369 18.6466 122.21 18.6282 121.981 18.6736C121.954 18.6791 121.926 18.6857 121.897 18.6934C121.603 18.7702 121.296 18.8203 121.053 18.8066C120.943 18.8004 120.816 18.8055 120.685 18.8105C120.51 18.817 120.328 18.8231 120.162 18.8024C120.025 18.7853 119.91 18.7384 119.811 18.6968C119.78 18.6838 119.749 18.6714 119.72 18.6605C119.61 18.6618 119.503 18.6633 119.394 18.665C119.376 18.6728 119.357 18.6814 119.338 18.6903C119.241 18.7348 119.122 18.7893 118.973 18.8162C118.74 18.8587 118.534 18.831 118.318 18.801C118.15 18.7777 117.974 18.7529 117.774 18.7589C117.636 18.763 117.48 18.7805 117.325 18.7976C117.095 18.8229 116.868 18.8471 116.711 18.826C116.652 18.818 116.602 18.7869 116.552 18.7559C116.552 18.7557 116.552 18.7555 116.552 18.7553C116.548 18.7532 116.545 18.7512 116.541 18.7491C116.158 18.7639 115.773 18.7795 115.389 18.7948C115.355 18.8016 115.322 18.8082 115.288 18.8147C115.125 18.8465 114.965 18.8771 114.86 18.9242C114.746 18.9754 114.464 18.9977 114.166 19.0198C113.971 19.0342 113.768 19.0486 113.604 19.0719C113.507 19.0855 113.416 19.0503 113.325 19.0141C113.24 18.9802 113.15 18.9453 113.052 18.9481C113.004 18.9495 112.949 18.9596 112.891 18.9705C112.841 18.98 112.787 18.9901 112.732 18.995C112.682 18.9996 112.564 18.9765 112.422 18.9469C112.329 18.9284 112.229 18.9075 112.121 18.8885C112.044 18.889 111.969 18.8893 111.895 18.8895C111.681 18.8896 111.475 18.8893 111.26 18.8867C111.199 18.9096 111.144 18.941 111.099 18.9832C111.067 19.0134 111.039 19.0503 111.01 19.088C110.971 19.1393 110.931 19.1923 110.876 19.2327C110.833 19.2643 110.785 19.2745 110.756 19.2576C110.742 19.2497 110.732 19.2362 110.722 19.2238C110.711 19.2097 110.702 19.1972 110.689 19.1965C110.679 19.196 110.669 19.2045 110.656 19.2147C110.636 19.2311 110.609 19.2523 110.572 19.2499C110.432 19.2412 110.272 19.2192 110.115 19.1959C109.94 19.1701 109.762 19.1417 109.619 19.13C109.457 19.1167 109.228 19.0499 108.98 18.965C108.807 18.9061 108.625 18.8375 108.452 18.7733C108.284 18.7106 108.084 18.6571 107.868 18.5652C107.611 18.458 107.332 18.2751 107.174 18.0619C107.142 18.0194 107.125 17.9452 107.113 17.8561C107.108 17.8217 107.104 17.7848 107.1 17.7465C107.099 17.7186 107.098 17.6899 107.097 17.6606C106.956 17.4669 106.854 17.2847 106.765 17.1059C106.758 17.102 106.75 17.0979 106.742 17.0939C106.741 17.0938 106.741 17.0938 106.741 17.0937C106.561 17.0029 106.315 16.8617 106.301 16.5522C106.297 16.473 106.325 16.4154 106.349 16.3629C106.374 16.3115 106.396 16.2659 106.386 16.2144C106.375 16.1571 106.33 16.1004 106.281 16.0372C106.213 15.9507 106.138 15.8499 106.144 15.729C106.144 15.7207 106.145 15.7118 106.145 15.7025C106.149 15.6139 106.156 15.4857 106.206 15.3481C106.138 14.9993 106.088 14.6531 106.049 14.3087C105.985 13.7342 105.954 13.1656 105.944 12.5918C105.94 12.3127 106.03 12.0345 106.2 11.8267C106.369 11.6177 106.601 11.502 106.843 11.4963C107.085 11.4883 107.322 11.5798 107.515 11.7425C107.708 11.9055 107.841 12.1301 107.895 12.3755C107.983 12.7749 108.084 13.1753 108.194 13.5669C108.202 13.5869 108.211 13.6071 108.219 13.6272C108.281 13.7763 108.375 13.9063 108.472 14.033C108.494 14.0621 108.516 14.0911 108.538 14.1201ZM135.452 7.40609C135.579 7.71725 135.551 8.32732 135.534 8.66373C135.534 8.66989 135.534 8.67605 135.534 8.68221C135.53 8.76185 135.53 8.83772 135.531 8.92579C135.532 9.13639 135.535 9.4212 135.473 10.0181C135.479 10.1915 135.484 10.3647 135.486 10.5385C135.494 11.0449 135.491 11.556 135.476 12.0669C135.486 12.7528 135.104 13.4703 134.766 13.8278C134.422 14.2129 134.104 14.4468 133.803 14.6681C133.199 15.1006 132.633 15.4471 132.07 15.81C132.052 15.8242 132.033 15.8386 132.014 15.8534C131.651 16.1343 131.208 16.4859 130.904 16.6667C130.516 16.8967 130.241 17.0508 130.02 17.1718C129.702 17.3948 129.396 17.6133 129.082 17.8461C128.182 18.5163 127.248 19.138 126.267 19.6982C125.848 19.9371 125.423 20.1633 124.989 20.3768C124.719 20.5096 124.447 20.6362 124.176 20.7572C124.043 20.8165 123.908 20.8741 123.772 20.93C123.538 21.0488 123.311 21.1615 123.102 21.2606C122.806 21.4004 122.539 21.5154 122.314 21.5896C121.769 21.7704 121.13 21.8691 120.658 21.9268C120.581 21.9363 120.509 21.945 120.441 21.953C120.074 22.0368 119.706 22.1133 119.337 22.1829C119.311 22.1769 119.285 22.1704 119.258 22.1637C118.923 22.0797 118.538 22.132 117.927 22.1936C117.661 22.2202 117.351 22.2479 116.989 22.2634C116.753 22.2734 116.631 22.229 116.531 22.193C116.502 22.1824 116.474 22.1724 116.446 22.1647C116.35 22.1381 116.253 22.1772 116.139 22.2229C115.988 22.2822 115.811 22.3526 115.566 22.3029C114.794 22.1425 114.462 22.2603 114.204 22.3523C114.131 22.379 114.058 22.4028 113.988 22.4155C113.765 22.4569 113.436 22.4042 113.195 22.3332C112.999 22.2774 112.613 22.3049 112.306 22.3391C112.184 22.3517 112.03 22.3383 111.844 22.316C111.783 22.3087 111.723 22.3007 111.663 22.2925C111.586 22.2869 111.397 22.2048 111.328 22.1689C111.198 22.0894 111.057 22.0033 110.906 21.9203C110.372 21.6237 110.112 21.4437 109.899 21.3017C109.838 21.261 109.782 21.2223 109.727 21.184C109.551 21.0625 109.342 20.9017 109.134 20.7346C108.885 20.5348 108.639 20.3257 108.445 20.1721C108.12 19.8128 107.81 19.4404 107.513 19.0537C107.285 18.8263 107.225 18.3041 107.303 17.9914C107.447 17.5723 107.762 17.3697 107.922 17.2916C108.096 17.2081 108.208 17.1871 108.303 17.1685C108.488 17.1374 108.606 17.1394 108.718 17.1413C109.173 17.1611 109.456 17.3238 109.665 17.5362C109.868 17.7515 109.947 18.0083 109.906 18.2517C109.864 18.4952 109.702 18.7082 109.469 18.8581C109.241 19.0089 108.936 19.0816 108.747 19.1038C108.708 19.1083 108.674 19.1184 108.699 19.1188C108.714 19.117 108.743 19.1176 108.83 19.0777C108.906 19.0421 109.117 18.9177 109.217 18.6293L109.04 17.7351C109.358 18.0579 109.692 18.3717 110.031 18.6759C110.568 19.1575 111.122 19.6193 111.675 20.0413C111.902 20.2138 112.131 20.3773 112.356 20.523L111.951 20.3733C112.126 20.402 112.325 20.4253 112.53 20.4462C112.58 20.4513 112.632 20.4563 112.686 20.4613C113.107 20.4299 113.537 20.3887 113.841 20.3753C114.086 20.364 114.27 20.3977 114.427 20.4259C114.538 20.4452 114.628 20.4619 114.726 20.4585C114.777 20.4567 114.851 20.4524 114.934 20.4468C115.284 20.4244 115.873 20.3773 116.415 20.4059C116.655 20.4191 116.937 20.4525 117.207 20.481C117.592 20.522 117.953 20.5519 118.13 20.5122C118.44 20.4433 118.801 20.4289 119.121 20.4101C119.425 20.3925 119.692 20.3712 119.833 20.3051C120.003 20.226 120.157 20.2188 120.386 20.2043C120.545 20.1939 120.739 20.1802 120.999 20.132C121.297 20.0763 121.514 20.0563 121.697 20.0379C121.956 20.0111 122.152 19.9873 122.407 19.8472C122.692 19.6908 122.986 19.5426 123.23 19.4671C123.334 19.4351 123.446 19.3879 123.56 19.3363C123.57 19.3316 123.58 19.3269 123.591 19.3221C123.764 19.2435 123.942 19.1593 124.114 19.1026C124.256 19.056 124.389 19.044 124.504 19.0332C124.541 19.0295 124.576 19.0259 124.609 19.0214C124.716 18.9659 124.819 18.9104 124.924 18.8518C124.938 18.8356 124.951 18.8188 124.965 18.8009C125.038 18.7107 125.124 18.6007 125.25 18.4964C125.448 18.332 125.651 18.2391 125.866 18.136C126.033 18.0553 126.206 17.9698 126.383 17.8382C126.505 17.7479 126.632 17.6347 126.76 17.5189C126.947 17.3481 127.127 17.1762 127.276 17.0842C127.331 17.0502 127.394 17.0396 127.456 17.0287C127.457 17.0287 127.457 17.0287 127.457 17.0287C127.461 17.0279 127.466 17.0271 127.47 17.0264C127.648 16.8704 127.823 16.7106 127.997 16.547C128.144 16.4098 128.281 16.2818 128.428 16.1466C128.453 16.1161 128.478 16.0855 128.503 16.0554C128.624 15.9098 128.747 15.7654 128.808 15.6519C128.872 15.5299 129.107 15.3021 129.361 15.0635C129.521 14.9111 129.696 14.7491 129.828 14.6105C129.908 14.528 130.007 14.4922 130.114 14.4519C130.214 14.4141 130.314 14.3781 130.4 14.3051C130.444 14.2677 130.485 14.2207 130.529 14.1712C130.568 14.1274 130.607 14.083 130.655 14.0378C130.701 13.9955 130.811 13.9352 130.962 13.8515C131.054 13.801 131.156 13.7451 131.264 13.6822C131.514 13.4761 131.762 13.2727 132 13.0726C132.036 13.0116 132.056 12.952 132.065 12.8882C132.07 12.8431 132.067 12.7962 132.064 12.7485C132.06 12.6836 132.054 12.6174 132.067 12.5505C132.077 12.4985 132.103 12.4599 132.135 12.4528C132.149 12.4495 132.166 12.4522 132.181 12.455C132.198 12.458 132.213 12.4608 132.223 12.4529C132.229 12.4471 132.23 12.4342 132.231 12.4186C132.233 12.3935 132.235 12.3617 132.26 12.3398C132.354 12.2567 132.455 12.1756 132.529 12.1097C132.614 12.0356 132.658 11.9854 132.659 11.9706C132.662 11.9437 132.665 12.0273 132.702 12.0509C132.705 12.0529 132.709 12.0539 132.713 12.0538C132.733 11.9198 132.752 11.7837 132.76 11.6673C132.769 11.5301 132.749 11.3893 132.73 11.2504C132.706 11.0859 132.683 10.9258 132.711 10.7901C132.717 10.7626 132.754 10.7279 132.8 10.6843C132.833 10.6535 132.871 10.6182 132.905 10.5779C132.902 10.4044 132.901 10.2312 132.9 10.0574C132.895 10.0514 132.89 10.0452 132.884 10.039C132.884 10.0389 132.884 10.0388 132.884 10.0387C132.762 9.89857 132.594 9.70759 132.685 9.43106C132.708 9.36074 132.753 9.31569 132.793 9.27507C132.832 9.23523 132.867 9.19943 132.874 9.1483C132.881 9.09023 132.854 9.02264 132.825 8.94913C132.784 8.84537 132.739 8.73027 132.775 8.61182C132.777 8.60372 132.78 8.59501 132.782 8.58594C132.808 8.49982 132.846 8.37366 132.925 8.24511C132.936 7.8726 132.949 7.49943 132.965 7.12569C132.991 6.50267 133.021 5.88033 133.054 5.25145C133.07 4.94564 133.175 4.64782 133.352 4.42607C133.529 4.2037 133.762 4.07853 134.004 4.07845C134.247 4.07475 134.482 4.18883 134.669 4.39459C134.856 4.60027 134.979 4.88382 135.015 5.18477C135.075 5.67332 135.137 6.16658 135.194 6.66055C135.2 6.68607 135.206 6.7118 135.211 6.73753C135.252 6.93039 135.326 7.10715 135.401 7.28329C135.418 7.32395 135.435 7.36487 135.452 7.40609ZM102.238 19.365C102.149 19.89 101.852 20.9379 101.736 21.5612C101.734 21.5725 101.732 21.5837 101.73 21.5951C101.701 21.7409 101.679 21.881 101.655 22.0454C101.601 22.4401 101.524 22.9702 101.383 24.1203C101.38 24.1758 101.378 24.2315 101.375 24.2872C101.375 24.3728 101.382 24.4074 101.417 24.4884C101.474 24.6265 101.684 24.871 102.066 25.256C103.717 26.4587 107.605 27.1628 110.622 27.8496C110.668 27.8574 110.715 27.8653 110.763 27.8734C111.198 27.9465 111.673 28.0247 112.138 28.1057C112.647 28.1944 113.136 28.2686 113.508 28.3356C114.392 28.4943 115.002 28.58 115.504 28.6478C116.949 28.7619 118.412 28.7673 119.871 28.6723C121.313 28.5789 122.739 28.3545 124.122 27.9667C124.991 27.7238 125.843 27.4163 126.674 27.0522C127.44 26.7173 128.189 26.3353 128.932 25.9246C129.147 25.7937 129.355 25.6623 129.556 25.5333C129.751 25.4079 129.936 25.2865 130.117 25.167C130.629 24.8271 131.079 24.517 131.457 24.2718C132.369 23.6824 133.42 23.0416 134.189 22.5442C134.315 22.4629 134.432 22.3866 134.542 22.3142C135.125 21.8822 135.701 21.4364 136.262 20.9809C136.307 20.9589 136.352 20.9367 136.397 20.9144C136.964 20.6355 137.566 20.1612 138.465 19.3752C138.792 19.0881 139.163 18.7544 139.574 18.371C139.656 18.2944 139.739 18.2167 139.823 18.138C140.153 17.8293 140.366 17.6895 140.528 17.5878C140.576 17.558 140.623 17.5266 140.669 17.4946C140.825 17.3829 140.932 17.2264 141.068 17.0303C141.24 16.7785 141.442 16.4791 141.804 16.1733C142.956 15.1913 143.263 14.5846 143.491 14.1412C143.56 14.0067 143.613 13.8955 143.684 13.7759C143.905 13.4034 144.28 12.9298 144.558 12.5695C144.785 12.2855 145.073 11.624 145.157 11.1384C145.192 10.9536 145.255 10.72 145.287 10.4448C145.29 10.4175 145.293 10.3905 145.295 10.3638C145.285 10.4446 145.327 10.4973 145.288 10.4445C145.254 10.3987 145.158 10.3071 145.029 10.2179C144.811 10.0652 144.568 9.92722 144.352 9.80393L144.446 9.8575C144.028 9.69319 143.65 9.61274 143.351 9.54766C143.226 9.52147 143.108 9.49839 142.99 9.47695C142.615 9.40862 142.139 9.32964 141.649 9.26307C141.064 9.18284 140.461 9.11905 139.999 9.08815C139.981 9.08532 139.963 9.08249 139.944 9.07965L139.995 9.08508C138.844 8.95541 137.68 8.89269 136.506 8.88625C135.893 8.88235 135.3 8.80327 134.85 8.65001C134.402 8.49655 134.135 8.28033 134.114 8.03389C134.095 7.78791 134.326 7.52879 134.763 7.31656C135.201 7.10451 135.811 6.96045 136.454 6.92418C137.687 6.85438 138.934 6.84322 140.18 6.92C140.189 6.92106 140.215 6.9232 140.223 6.92463C140.286 6.93121 140.349 6.93784 140.41 6.94453C141.988 7.14164 143.51 7.27253 145.234 7.99263C145.271 8.0096 145.309 8.02807 145.346 8.04622C145.367 8.05788 145.431 8.09223 145.451 8.10624C145.745 8.29858 146.056 8.49822 146.395 8.79367C146.688 9.08388 147.274 9.52687 147.225 10.5478C147.179 11.0108 147.065 11.4676 146.917 11.8806C146.874 12.0026 146.825 12.1262 146.777 12.2428C146.435 13.2347 145.935 14.0883 145.562 14.6547C145.25 15.1244 144.975 15.4217 144.737 15.6762C144.578 15.8453 144.425 16.0036 144.296 16.1614C144.226 16.2472 144.124 16.374 144.009 16.5129C143.529 17.1016 142.683 18.0599 141.813 18.836C141.517 19.1005 141.169 19.3884 140.813 19.6741C140.715 19.7523 140.612 19.8344 140.514 19.9103C139.864 20.4184 139.245 20.861 138.965 21.1234C138.472 21.5857 137.852 22.0452 137.297 22.4384C136.767 22.8139 136.298 23.1305 136.06 23.3535C135.778 23.6187 135.498 23.7938 135.079 24.0476C134.79 24.2224 134.432 24.4371 133.956 24.7388C133.405 25.0872 132.998 25.3027 132.651 25.4849C132.161 25.7404 131.793 25.9275 131.29 26.2888C130.977 26.5126 130.652 26.7312 130.335 26.9253C130.085 27.0783 129.841 27.2161 129.616 27.3275C129.385 27.4421 129.124 27.583 128.85 27.7257C128.488 27.9149 128.1 28.1075 127.732 28.252C127.428 28.371 127.161 28.4349 126.926 28.488C126.853 28.5045 126.782 28.5203 126.714 28.5362C126.475 28.6347 126.233 28.7304 125.992 28.8217C125.955 28.8435 125.916 28.8668 125.876 28.891C125.674 29.0115 125.422 29.1579 125.093 29.292C124.572 29.5037 124.088 29.6107 123.577 29.7061C123.18 29.7799 122.766 29.8466 122.296 29.9417C121.972 30.007 121.612 30.0856 121.246 30.1558C120.808 30.2402 120.374 30.3106 120.022 30.3405C119.942 30.3474 119.866 30.3522 119.795 30.3547C119.656 30.3597 119.533 30.339 119.412 30.3179C119.412 30.3177 119.411 30.3176 119.411 30.3174C119.403 30.316 119.394 30.3146 119.386 30.3132C118.483 30.4018 117.574 30.4582 116.662 30.4779C116.583 30.485 116.504 30.4918 116.424 30.4981C116.037 30.5292 115.659 30.5511 115.411 30.59C115.142 30.6328 114.468 30.628 113.756 30.5885C113.29 30.5636 112.808 30.5246 112.413 30.4958C112.181 30.4791 111.97 30.4133 111.753 30.3428C111.751 30.3421 111.748 30.3414 111.746 30.3406C111.552 30.2765 111.357 30.2118 111.133 30.1796C111.019 30.1633 110.896 30.1543 110.765 30.1448C110.65 30.1365 110.525 30.127 110.398 30.112C110.281 30.0983 110.02 30.0337 109.692 29.9512C109.485 29.8992 109.258 29.8416 109.01 29.782C108.354 29.6771 107.698 29.5666 107.041 29.4461C106.901 29.4445 106.773 29.4532 106.67 29.4774C106.595 29.4947 106.53 29.5203 106.463 29.5464C106.372 29.5818 106.275 29.6177 106.151 29.6357C106.054 29.6498 105.945 29.6396 105.876 29.609C105.844 29.5948 105.822 29.5766 105.801 29.5601C105.777 29.5412 105.756 29.5243 105.728 29.518C105.707 29.5135 105.683 29.5176 105.654 29.5224C105.608 29.5303 105.547 29.54 105.462 29.5206C105.149 29.4501 104.789 29.3538 104.442 29.2546C104.051 29.1434 103.667 29.0258 103.358 28.9378C103.012 28.8394 102.523 28.6449 102.027 28.405C101.681 28.2376 101.329 28.0462 101.01 27.848C100.731 27.6724 100.416 27.4837 100.09 27.1745C100.07 27.1571 100.049 27.1386 100.028 27.1199C99.7842 26.9046 99.4613 26.6108 99.2431 26.2494C99.1991 26.1768 99.169 26.0663 99.1388 25.9232C99.1176 25.8218 99.096 25.7031 99.0726 25.5686C98.8726 25.1445 98.7724 24.6242 98.8031 24.153C98.807 24.0854 98.8112 24.0178 98.8156 23.9503C98.8112 23.937 98.8068 23.9234 98.8023 23.9097C98.8022 23.9095 98.8021 23.9093 98.802 23.9091C98.7007 23.601 98.5633 23.1717 98.7168 22.5905C98.7559 22.443 98.8114 22.3537 98.8616 22.2731C98.9109 22.1939 98.9551 22.1243 98.9756 22.0159C98.9988 21.8934 98.9925 21.744 98.9877 21.5806C98.981 21.3507 98.9775 21.0914 99.0607 20.8438C99.0664 20.8269 99.0726 20.8087 99.0789 20.7899C99.1389 20.6114 99.2318 20.3449 99.3737 20.0931C99.5756 19.2965 99.8413 18.4936 100.26 17.7119C100.576 17.1252 100.988 16.5445 101.549 16.0674C102.129 15.5816 102.739 15.1601 103.371 14.7816C103.933 14.4454 104.54 14.2361 105.042 14.1991C105.536 14.1586 105.923 14.308 105.933 14.5614C105.965 14.7987 105.896 15.049 105.609 15.3887C105.33 15.7227 104.908 16.0888 104.445 16.4244C103.922 16.8016 103.427 17.2136 102.985 17.6521C102.838 17.8027 102.702 17.9801 102.579 18.18C102.561 18.2155 102.543 18.2515 102.525 18.2876C102.392 18.5581 102.322 18.8528 102.271 19.1545C102.259 19.2242 102.249 19.2944 102.238 19.365Z" fill="#0016DE"/>
</svg>
